<svg xmlns="http://www.w3.org/2000/svg" xmlns:xlink="http://www.w3.org/1999/xlink" contentStyleType="text/css" data-diagram-type="SEQUENCE" height="1883px" preserveAspectRatio="none" style="width:1848px;height:1883px;background:#FFFFFF;" version="1.1" viewBox="0 0 1848 1883" width="1848px" zoomAndPan="magnify"><defs/><g><g><title>Application</title><rect fill="#FFFFFF" height="535.3584" style="stroke:#000000;stroke-width:1;" width="10" x="317.3818" y="158.6133"/></g><g><title>Application</title><rect fill="#FFFFFF" height="232.3945" style="stroke:#000000;stroke-width:1;" width="10" x="317.3818" y="1551.3232"/></g><g><title>Aggregate</title><rect fill="#FFFFFF" height="72.5986" style="stroke:#000000;stroke-width:1;" width="10" x="680.7065" y="248.0112"/></g><g><title>Aggregate</title><rect fill="#FFFFFF" height="268.5952" style="stroke:#000000;stroke-width:1;" width="10" x="680.7065" y="350.4092"/></g><g><title>Aggregate</title><rect fill="#FFFFFF" height="29.7993" style="stroke:#000000;stroke-width:1;" width="10" x="680.7065" y="774.5703"/></g><g><title>Aggregate</title><rect fill="#FFFFFF" height="72.5986" style="stroke:#000000;stroke-width:1;" width="10" x="680.7065" y="1086.1328"/></g><g><title>Aggregate</title><rect fill="#FFFFFF" height="113.1973" style="stroke:#000000;stroke-width:1;" width="10" x="680.7065" y="1640.7212"/></g><g><title>Event</title><rect fill="#FFFFFF" height="29.7993" style="stroke:#000000;stroke-width:1;" width="10" x="917.6919" y="188.4126"/></g><g><title>Event</title><rect fill="#FFFFFF" height="140.1973" style="stroke:#000000;stroke-width:1;" width="10" x="917.6919" y="834.1689"/></g><g><title>Event</title><rect fill="#FFFFFF" height="29.7993" style="stroke:#000000;stroke-width:1;" width="10" x="917.6919" y="1581.1226"/></g><g><title>Event</title><rect fill="#FFFFFF" height="215.5952" style="stroke:#000000;stroke-width:1;" width="10" x="1203.1226" y="1232.3301"/></g><g><title>Event</title><rect fill="#FFFFFF" height="81.3979" style="stroke:#000000;stroke-width:1;" width="10" x="1411.1055" y="1329.728"/></g><rect fill="#FFFFFF" height="293.7632" style="stroke:#000000;stroke-width:1;" width="1129.8667" x="15" y="408.2085"/><rect fill="#FFFFFF" height="74.9673" style="stroke:none;stroke-width:1;" width="1129.8667" x="15" y="627.0044"/><rect fill="#FFFFFF" height="165.3652" style="stroke:#000000;stroke-width:1;" width="1112.52" x="15" y="891.9683"/><rect fill="#FFFFFF" height="74.9673" style="stroke:none;stroke-width:1;" width="1112.52" x="15" y="982.3662"/><rect fill="#FFFFFF" height="171.7959" style="stroke:#000000;stroke-width:1;" width="687.9014" x="1143.6035" y="1247.3301"/><rect fill="#FFFFFF" height="69.3979" style="stroke:#000000;stroke-width:1;" width="453.3008" x="622.5479" y="1655.7212"/><g><title>Client</title><rect fill="#000000" fill-opacity="0.00000" height="1718.7031" width="8" x="44.0874" y="83.0146"/><line style="stroke:#000000;stroke-width:1;" x1="48" x2="48" y1="83.0146" y2="1801.7178"/></g><g><title>Application</title><rect fill="#000000" fill-opacity="0.00000" height="1718.7031" width="8" x="318.3818" y="83.0146"/><line style="stroke:#000000;stroke-width:1;" x1="321.8237" x2="321.8237" y1="83.0146" y2="1801.7178"/></g><g><title>Aggregate</title><rect fill="#000000" fill-opacity="0.00000" height="1718.7031" width="8" x="681.7065" y="83.0146"/><line style="stroke:#000000;stroke-width:1;" x1="685.5479" x2="685.5479" y1="83.0146" y2="1801.7178"/></g><g><title>Event</title><rect fill="#000000" fill-opacity="0.00000" height="1718.7031" width="8" x="918.6919" y="83.0146"/><line style="stroke:#000000;stroke-width:1;" x1="921.7651" x2="921.7651" y1="83.0146" y2="1801.7178"/></g><g><title>Event</title><rect fill="#000000" fill-opacity="0.00000" height="1718.7031" width="8" x="1204.1226" y="83.0146"/><line style="stroke:#000000;stroke-width:1;" x1="1207.6035" x2="1207.6035" y1="83.0146" y2="1801.7178"/></g><g><title>Event</title><rect fill="#000000" fill-opacity="0.00000" height="1718.7031" width="8" x="1412.1055" y="83.0146"/><line style="stroke:#000000;stroke-width:1;" x1="1415.772" x2="1415.772" y1="83.0146" y2="1801.7178"/></g><g class="participant participant-head" data-participant="client"><text fill="#000000" font-family="Verdana" font-size="14" lengthAdjust="spacing" textLength="40.1748" x="25" y="80.0752">Client</text><ellipse cx="48.0874" cy="14" fill="#FFFFFF" rx="8" ry="8" style="stroke:#000000;stroke-width:1;"/><path d="M48.0874,22 L48.0874,49 M35.0874,30 L61.0874,30 M48.0874,49 L35.0874,64 M48.0874,49 L61.0874,64" fill="none" style="stroke:#000000;stroke-width:1;"/></g><g class="participant participant-tail" data-participant="client"><text fill="#000000" font-family="Verdana" font-size="14" lengthAdjust="spacing" textLength="40.1748" x="25" y="1814.793">Client</text><ellipse cx="48.0874" cy="1826.7324" fill="#FFFFFF" rx="8" ry="8" style="stroke:#000000;stroke-width:1;"/><path d="M48.0874,1834.7324 L48.0874,1861.7324 M35.0874,1842.7324 L61.0874,1842.7324 M48.0874,1861.7324 L35.0874,1876.7324 M48.0874,1861.7324 L61.0874,1876.7324" fill="none" style="stroke:#000000;stroke-width:1;"/></g><g class="participant participant-head" data-participant="app_service"><rect fill="#FFFFFF" height="48.0293" rx="2.5" ry="2.5" style="stroke:#000000;stroke-width:1;" width="91.1162" x="276.8237" y="33.9854"/><text fill="#000000" font-family="Verdana" font-size="14" lengthAdjust="spacing" textLength="77.1162" x="283.8237" y="55.0605">Application</text><text fill="#000000" font-family="Verdana" font-size="14" lengthAdjust="spacing" textLength="51.6455" x="296.5591" y="72.0752">Service</text></g><g class="participant participant-tail" data-participant="app_service"><rect fill="#FFFFFF" height="48.0293" rx="2.5" ry="2.5" style="stroke:#000000;stroke-width:1;" width="91.1162" x="276.8237" y="1800.7178"/><text fill="#000000" font-family="Verdana" font-size="14" lengthAdjust="spacing" textLength="77.1162" x="283.8237" y="1821.793">Application</text><text fill="#000000" font-family="Verdana" font-size="14" lengthAdjust="spacing" textLength="51.6455" x="296.5591" y="1838.8076">Service</text></g><g class="participant participant-head" data-participant="aggregate"><rect fill="#FFFFFF" height="31.0146" rx="2.5" ry="2.5" style="stroke:#000000;stroke-width:1;" width="86.3174" x="642.5479" y="51"/><text fill="#000000" font-family="Verdana" font-size="14" lengthAdjust="spacing" textLength="72.3174" x="649.5479" y="72.0752">Aggregate</text></g><g class="participant participant-tail" data-participant="aggregate"><rect fill="#FFFFFF" height="31.0146" rx="2.5" ry="2.5" style="stroke:#000000;stroke-width:1;" width="86.3174" x="642.5479" y="1800.7178"/><text fill="#000000" font-family="Verdana" font-size="14" lengthAdjust="spacing" textLength="72.3174" x="649.5479" y="1821.793">Aggregate</text></g><g class="participant participant-head" data-participant="event_store"><rect fill="#FFFFFF" height="48.0293" rx="2.5" ry="2.5" style="stroke:#000000;stroke-width:1;" width="53.8535" x="895.7651" y="33.9854"/><text fill="#000000" font-family="Verdana" font-size="14" lengthAdjust="spacing" textLength="39.8535" x="902.7651" y="55.0605">Event</text><text fill="#000000" font-family="Verdana" font-size="14" lengthAdjust="spacing" textLength="37.8984" x="903.7427" y="72.0752">Store</text></g><g class="participant participant-tail" data-participant="event_store"><rect fill="#FFFFFF" height="48.0293" rx="2.5" ry="2.5" style="stroke:#000000;stroke-width:1;" width="53.8535" x="895.7651" y="1800.7178"/><text fill="#000000" font-family="Verdana" font-size="14" lengthAdjust="spacing" textLength="39.8535" x="902.7651" y="1821.793">Event</text><text fill="#000000" font-family="Verdana" font-size="14" lengthAdjust="spacing" textLength="37.8984" x="903.7427" y="1838.8076">Store</text></g><g class="participant participant-head" data-participant="dispatcher"><rect fill="#FFFFFF" height="48.0293" rx="2.5" ry="2.5" style="stroke:#000000;stroke-width:1;" width="89.0381" x="1163.6035" y="33.9854"/><text fill="#000000" font-family="Verdana" font-size="14" lengthAdjust="spacing" textLength="39.8535" x="1188.1958" y="55.0605">Event</text><text fill="#000000" font-family="Verdana" font-size="14" lengthAdjust="spacing" textLength="75.0381" x="1170.6035" y="72.0752">Dispatcher</text></g><g class="participant participant-tail" data-participant="dispatcher"><rect fill="#FFFFFF" height="48.0293" rx="2.5" ry="2.5" style="stroke:#000000;stroke-width:1;" width="89.0381" x="1163.6035" y="1800.7178"/><text fill="#000000" font-family="Verdana" font-size="14" lengthAdjust="spacing" textLength="39.8535" x="1188.1958" y="1821.793">Event</text><text fill="#000000" font-family="Verdana" font-size="14" lengthAdjust="spacing" textLength="75.0381" x="1170.6035" y="1838.8076">Dispatcher</text></g><g class="participant participant-head" data-participant="handler"><rect fill="#FFFFFF" height="48.0293" rx="2.5" ry="2.5" style="stroke:#000000;stroke-width:1;" width="68.667" x="1381.772" y="33.9854"/><text fill="#000000" font-family="Verdana" font-size="14" lengthAdjust="spacing" textLength="39.8535" x="1396.1787" y="55.0605">Event</text><text fill="#000000" font-family="Verdana" font-size="14" lengthAdjust="spacing" textLength="54.667" x="1388.772" y="72.0752">Handler</text></g><g class="participant participant-tail" data-participant="handler"><rect fill="#FFFFFF" height="48.0293" rx="2.5" ry="2.5" style="stroke:#000000;stroke-width:1;" width="68.667" x="1381.772" y="1800.7178"/><text fill="#000000" font-family="Verdana" font-size="14" lengthAdjust="spacing" textLength="39.8535" x="1396.1787" y="1821.793">Event</text><text fill="#000000" font-family="Verdana" font-size="14" lengthAdjust="spacing" textLength="54.667" x="1388.772" y="1838.8076">Handler</text></g><g><title>Application</title><rect fill="#FFFFFF" height="535.3584" style="stroke:#000000;stroke-width:1;" width="10" x="317.3818" y="158.6133"/></g><g><title>Application</title><rect fill="#FFFFFF" height="232.3945" style="stroke:#000000;stroke-width:1;" width="10" x="317.3818" y="1551.3232"/></g><g><title>Aggregate</title><rect fill="#FFFFFF" height="72.5986" style="stroke:#000000;stroke-width:1;" width="10" x="680.7065" y="248.0112"/></g><g><title>Aggregate</title><rect fill="#FFFFFF" height="268.5952" style="stroke:#000000;stroke-width:1;" width="10" x="680.7065" y="350.4092"/></g><g><title>Aggregate</title><rect fill="#FFFFFF" height="29.7993" style="stroke:#000000;stroke-width:1;" width="10" x="680.7065" y="774.5703"/></g><g><title>Aggregate</title><rect fill="#FFFFFF" height="72.5986" style="stroke:#000000;stroke-width:1;" width="10" x="680.7065" y="1086.1328"/></g><g><title>Aggregate</title><rect fill="#FFFFFF" height="113.1973" style="stroke:#000000;stroke-width:1;" width="10" x="680.7065" y="1640.7212"/></g><g><title>Event</title><rect fill="#FFFFFF" height="29.7993" style="stroke:#000000;stroke-width:1;" width="10" x="917.6919" y="188.4126"/></g><g><title>Event</title><rect fill="#FFFFFF" height="140.1973" style="stroke:#000000;stroke-width:1;" width="10" x="917.6919" y="834.1689"/></g><g><title>Event</title><rect fill="#FFFFFF" height="29.7993" style="stroke:#000000;stroke-width:1;" width="10" x="917.6919" y="1581.1226"/></g><g><title>Event</title><rect fill="#FFFFFF" height="215.5952" style="stroke:#000000;stroke-width:1;" width="10" x="1203.1226" y="1232.3301"/></g><g><title>Event</title><rect fill="#FFFFFF" height="81.3979" style="stroke:#000000;stroke-width:1;" width="10" x="1411.1055" y="1329.728"/></g><rect fill="#FFFFFF" height="3" style="stroke:#FFFFFF;stroke-width:1;" width="1836.5049" x="5" y="113.9143"/><line style="stroke:#000000;stroke-width:0.5;" x1="5" x2="1841.5049" y1="113.9143" y2="113.9143"/><line style="stroke:#000000;stroke-width:0.5;" x1="5" x2="1841.5049" y1="116.9143" y2="116.9143"/><rect fill="#FFFFFF" height="23.7993" style="stroke:#000000;stroke-width:1;" width="175.1797" x="835.6626" y="103.0146"/><text fill="#000000" font-family="Verdana" font-size="13" font-weight="bold" lengthAdjust="spacing" textLength="156.7363" x="841.6626" y="120.0845">Command Processing</text><g class="message" data-participant-1="client" data-participant-2="app_service"><polygon fill="#000000" points="305.3818,154.6133,315.3818,158.6133,305.3818,162.6133,309.3818,158.6133" style="stroke:#000000;stroke-width:1;"/><line style="stroke:#000000;stroke-width:1;" x1="48.0874" x2="311.3818" y1="158.6133" y2="158.6133"/><text fill="#000000" font-family="Verdana" font-size="13" lengthAdjust="spacing" textLength="199.291" x="55.0874" y="153.8838">execute_command(command)</text></g><g class="message" data-participant-1="app_service" data-participant-2="event_store"><polygon fill="#000000" points="905.6919,184.4126,915.6919,188.4126,905.6919,192.4126,909.6919,188.4126" style="stroke:#000000;stroke-width:1;"/><line style="stroke:#000000;stroke-width:1;" x1="327.3818" x2="911.6919" y1="188.4126" y2="188.4126"/><text fill="#000000" font-family="Verdana" font-size="13" lengthAdjust="spacing" textLength="176.7441" x="334.3818" y="183.6831">load_events(aggregate_id)</text></g><g class="message" data-participant-1="event_store" data-participant-2="app_service"><polygon fill="#000000" points="338.3818,214.2119,328.3818,218.2119,338.3818,222.2119,334.3818,218.2119" style="stroke:#000000;stroke-width:1;"/><line style="stroke:#000000;stroke-width:1;stroke-dasharray:2,2;" x1="332.3818" x2="921.6919" y1="218.2119" y2="218.2119"/><text fill="#000000" font-family="Verdana" font-size="13" lengthAdjust="spacing" textLength="90.4351" x="344.3818" y="213.4824">event_stream</text></g><g class="message" data-participant-1="app_service" data-participant-2="aggregate"><polygon fill="#000000" points="668.7065,244.0112,678.7065,248.0112,668.7065,252.0112,672.7065,248.0112" style="stroke:#000000;stroke-width:1;"/><line style="stroke:#000000;stroke-width:1;" x1="327.3818" x2="674.7065" y1="248.0112" y2="248.0112"/><text fill="#000000" font-family="Verdana" font-size="13" lengthAdjust="spacing" textLength="266.4746" x="334.3818" y="243.2817">reconstruct_from_events(event_stream)</text></g><g class="message" data-participant-1="aggregate" data-participant-2="aggregate"><line style="stroke:#000000;stroke-width:1;" x1="690.7065" x2="732.7065" y1="277.8105" y2="277.8105"/><line style="stroke:#000000;stroke-width:1;" x1="732.7065" x2="732.7065" y1="277.8105" y2="290.8105"/><line style="stroke:#000000;stroke-width:1;" x1="691.7065" x2="732.7065" y1="290.8105" y2="290.8105"/><polygon fill="#000000" points="701.7065,286.8105,691.7065,290.8105,701.7065,294.8105,697.7065,290.8105" style="stroke:#000000;stroke-width:1;"/><text fill="#000000" font-family="Verdana" font-size="13" lengthAdjust="spacing" textLength="130.6855" x="697.7065" y="273.0811">apply_each_event()</text></g><g class="message" data-participant-1="aggregate" data-participant-2="app_service"><polygon fill="#000000" points="338.3818,316.6099,328.3818,320.6099,338.3818,324.6099,334.3818,320.6099" style="stroke:#000000;stroke-width:1;"/><line style="stroke:#000000;stroke-width:1;stroke-dasharray:2,2;" x1="332.3818" x2="684.7065" y1="320.6099" y2="320.6099"/><text fill="#000000" font-family="Verdana" font-size="13" lengthAdjust="spacing" textLength="163.9282" x="344.3818" y="315.8804">reconstructed_aggregate</text></g><g class="message" data-participant-1="app_service" data-participant-2="aggregate"><polygon fill="#000000" points="668.7065,346.4092,678.7065,350.4092,668.7065,354.4092,672.7065,350.4092" style="stroke:#000000;stroke-width:1;"/><line style="stroke:#000000;stroke-width:1;" x1="327.3818" x2="674.7065" y1="350.4092" y2="350.4092"/><text fill="#000000" font-family="Verdana" font-size="13" lengthAdjust="spacing" textLength="199.291" x="334.3818" y="345.6797">execute_command(command)</text></g><g class="message" data-participant-1="aggregate" data-participant-2="aggregate"><line style="stroke:#000000;stroke-width:1;" x1="690.7065" x2="732.7065" y1="380.2085" y2="380.2085"/><line style="stroke:#000000;stroke-width:1;" x1="732.7065" x2="732.7065" y1="380.2085" y2="393.2085"/><line style="stroke:#000000;stroke-width:1;" x1="691.7065" x2="732.7065" y1="393.2085" y2="393.2085"/><polygon fill="#000000" points="701.7065,389.2085,691.7065,393.2085,701.7065,397.2085,697.7065,393.2085" style="stroke:#000000;stroke-width:1;"/><text fill="#000000" font-family="Verdana" font-size="13" lengthAdjust="spacing" textLength="167.7876" x="697.7065" y="375.479">validate_business_rules()</text></g><path d="M15,408.2085 L79.0493,408.2085 L79.0493,416.0078 L69.0493,426.0078 L15,426.0078 L15,408.2085" fill="#FFFFFF" style="stroke:#000000;stroke-width:1;"/><rect fill="none" height="293.7632" style="stroke:#000000;stroke-width:1;" width="1129.8667" x="15" y="408.2085"/><text fill="#000000" font-family="Verdana" font-size="13" font-weight="bold" lengthAdjust="spacing" textLength="19.0493" x="30" y="422.2783">alt</text><text fill="#000000" font-family="Verdana" font-size="11" font-weight="bold" lengthAdjust="spacing" textLength="107.0889" x="94.0493" y="421.2676">[Command valid]</text><g class="message" data-participant-1="aggregate" data-participant-2="aggregate"><line style="stroke:#000000;stroke-width:1;" x1="690.7065" x2="732.7065" y1="447.8071" y2="447.8071"/><line style="stroke:#000000;stroke-width:1;" x1="732.7065" x2="732.7065" y1="447.8071" y2="460.8071"/><line style="stroke:#000000;stroke-width:1;" x1="691.7065" x2="732.7065" y1="460.8071" y2="460.8071"/><polygon fill="#000000" points="701.7065,456.8071,691.7065,460.8071,701.7065,464.8071,697.7065,460.8071" style="stroke:#000000;stroke-width:1;"/><text fill="#000000" font-family="Verdana" font-size="13" lengthAdjust="spacing" textLength="153.8418" x="697.7065" y="443.0776">create_domain_event()</text></g><g class="message" data-participant-1="aggregate" data-participant-2="aggregate"><line style="stroke:#000000;stroke-width:1;" x1="690.7065" x2="732.7065" y1="490.6064" y2="490.6064"/><line style="stroke:#000000;stroke-width:1;" x1="732.7065" x2="732.7065" y1="490.6064" y2="503.6064"/><line style="stroke:#000000;stroke-width:1;" x1="691.7065" x2="732.7065" y1="503.6064" y2="503.6064"/><polygon fill="#000000" points="701.7065,499.6064,691.7065,503.6064,701.7065,507.6064,697.7065,503.6064" style="stroke:#000000;stroke-width:1;"/><text fill="#000000" font-family="Verdana" font-size="13" lengthAdjust="spacing" textLength="153.9814" x="697.7065" y="485.877">apply_event_to_state()</text></g><g class="message" data-participant-1="aggregate" data-participant-2="aggregate"><line style="stroke:#000000;stroke-width:1;" x1="690.7065" x2="732.7065" y1="533.4058" y2="533.4058"/><line style="stroke:#000000;stroke-width:1;" x1="732.7065" x2="732.7065" y1="533.4058" y2="546.4058"/><line style="stroke:#000000;stroke-width:1;" x1="691.7065" x2="732.7065" y1="546.4058" y2="546.4058"/><polygon fill="#000000" points="701.7065,542.4058,691.7065,546.4058,701.7065,550.4058,697.7065,546.4058" style="stroke:#000000;stroke-width:1;"/><text fill="#000000" font-family="Verdana" font-size="13" lengthAdjust="spacing" textLength="202.9854" x="697.7065" y="528.6763">add_to_uncommitted_events()</text></g><path d="M921.9854,520.1064 L921.9854,545.1064 L1123.9854,545.1064 L1123.9854,530.1064 L1113.9854,520.1064 L921.9854,520.1064" fill="#FFFFFF" style="stroke:#000000;stroke-width:1;"/><path d="M1113.9854,520.1064 L1113.9854,530.1064 L1123.9854,530.1064 L1113.9854,520.1064" fill="#FFFFFF" style="stroke:#000000;stroke-width:1;"/><text fill="#000000" font-family="Verdana" font-size="13" lengthAdjust="spacing" textLength="181.1748" x="927.9854" y="538.1763">Add to uncommitted events</text><g class="message" data-participant-1="aggregate" data-participant-2="aggregate"><line style="stroke:#000000;stroke-width:1;" x1="690.7065" x2="732.7065" y1="576.2051" y2="576.2051"/><line style="stroke:#000000;stroke-width:1;" x1="732.7065" x2="732.7065" y1="576.2051" y2="589.2051"/><line style="stroke:#000000;stroke-width:1;" x1="691.7065" x2="732.7065" y1="589.2051" y2="589.2051"/><polygon fill="#000000" points="701.7065,585.2051,691.7065,589.2051,701.7065,593.2051,697.7065,589.2051" style="stroke:#000000;stroke-width:1;"/><text fill="#000000" font-family="Verdana" font-size="13" lengthAdjust="spacing" textLength="133.1104" x="697.7065" y="571.4756">increment_version()</text></g><g class="message" data-participant-1="aggregate" data-participant-2="app_service"><polygon fill="#000000" points="338.3818,615.0044,328.3818,619.0044,338.3818,623.0044,334.3818,619.0044" style="stroke:#000000;stroke-width:1;"/><line style="stroke:#000000;stroke-width:1;stroke-dasharray:2,2;" x1="332.3818" x2="684.7065" y1="619.0044" y2="619.0044"/><text fill="#000000" font-family="Verdana" font-size="13" lengthAdjust="spacing" textLength="95.0815" x="344.3818" y="614.2749">success_result</text></g><line style="stroke:#000000;stroke-width:1;stroke-dasharray:2,2;" x1="15" x2="1144.8667" y1="628.0044" y2="628.0044"/><text fill="#000000" font-family="Verdana" font-size="11" font-weight="bold" lengthAdjust="spacing" textLength="132.7305" x="20" y="639.0635">[Command is invalid]</text><g class="message" data-participant-1="aggregate" data-participant-2="app_service"><polygon fill="#000000" points="338.3818,660.1724,328.3818,664.1724,338.3818,668.1724,334.3818,664.1724" style="stroke:#000000;stroke-width:1;"/><line style="stroke:#000000;stroke-width:1;stroke-dasharray:2,2;" x1="332.3818" x2="684.7065" y1="664.1724" y2="664.1724"/><text fill="#000000" font-family="Verdana" font-size="13" lengthAdjust="spacing" textLength="77.5239" x="344.3818" y="659.4429">error_result</text></g><g class="message" data-participant-1="app_service" data-participant-2="client"><polygon fill="#000000" points="59.0874,689.9717,49.0874,693.9717,59.0874,697.9717,55.0874,693.9717" style="stroke:#000000;stroke-width:1;"/><line style="stroke:#000000;stroke-width:1;stroke-dasharray:2,2;" x1="53.0874" x2="321.3818" y1="693.9717" y2="693.9717"/><text fill="#000000" font-family="Verdana" font-size="13" lengthAdjust="spacing" textLength="99.3408" x="65.0874" y="689.2422">error_response</text></g><rect fill="#FFFFFF" height="3" style="stroke:#FFFFFF;stroke-width:1;" width="1836.5049" x="5" y="729.8713"/><line style="stroke:#000000;stroke-width:0.5;" x1="5" x2="1841.5049" y1="729.8713" y2="729.8713"/><line style="stroke:#000000;stroke-width:0.5;" x1="5" x2="1841.5049" y1="732.8713" y2="732.8713"/><rect fill="#FFFFFF" height="23.7993" style="stroke:#000000;stroke-width:1;" width="248.0952" x="799.2048" y="718.9717"/><text fill="#000000" font-family="Verdana" font-size="13" font-weight="bold" lengthAdjust="spacing" textLength="229.6519" x="805.2048" y="736.0415">Event Persistence and Dispatch</text><g class="message" data-participant-1="app_service" data-participant-2="aggregate"><polygon fill="#000000" points="668.7065,770.5703,678.7065,774.5703,668.7065,778.5703,672.7065,774.5703" style="stroke:#000000;stroke-width:1;"/><line style="stroke:#000000;stroke-width:1;" x1="322.3818" x2="674.7065" y1="774.5703" y2="774.5703"/><text fill="#000000" font-family="Verdana" font-size="13" lengthAdjust="spacing" textLength="178.6675" x="329.3818" y="769.8408">get_uncommitted_events()</text></g><g class="message" data-participant-1="aggregate" data-participant-2="app_service"><polygon fill="#000000" points="333.3818,800.3696,323.3818,804.3696,333.3818,808.3696,329.3818,804.3696" style="stroke:#000000;stroke-width:1;"/><line style="stroke:#000000;stroke-width:1;stroke-dasharray:2,2;" x1="327.3818" x2="684.7065" y1="804.3696" y2="804.3696"/><text fill="#000000" font-family="Verdana" font-size="13" lengthAdjust="spacing" textLength="63.8257" x="339.3818" y="799.6401">event_list</text></g><g class="message" data-participant-1="app_service" data-participant-2="event_store"><polygon fill="#000000" points="905.6919,830.1689,915.6919,834.1689,905.6919,838.1689,909.6919,834.1689" style="stroke:#000000;stroke-width:1;"/><line style="stroke:#000000;stroke-width:1;" x1="322.3818" x2="911.6919" y1="834.1689" y2="834.1689"/><text fill="#000000" font-family="Verdana" font-size="13" lengthAdjust="spacing" textLength="374.1753" x="329.3818" y="829.4395">append_events(stream_id, event_list, expected_version)</text></g><g class="message" data-participant-1="event_store" data-participant-2="event_store"><line style="stroke:#000000;stroke-width:1;" x1="927.6919" x2="969.6919" y1="863.9683" y2="863.9683"/><line style="stroke:#000000;stroke-width:1;" x1="969.6919" x2="969.6919" y1="863.9683" y2="876.9683"/><line style="stroke:#000000;stroke-width:1;" x1="928.6919" x2="969.6919" y1="876.9683" y2="876.9683"/><polygon fill="#000000" points="938.6919,872.9683,928.6919,876.9683,938.6919,880.9683,934.6919,876.9683" style="stroke:#000000;stroke-width:1;"/><text fill="#000000" font-family="Verdana" font-size="13" lengthAdjust="spacing" textLength="251.4307" x="934.6919" y="859.2388">check_concurrency(expected_version)</text></g><path d="M15,891.9683 L79.0493,891.9683 L79.0493,899.7676 L69.0493,909.7676 L15,909.7676 L15,891.9683" fill="#FFFFFF" style="stroke:#000000;stroke-width:1;"/><rect fill="none" height="165.3652" style="stroke:#000000;stroke-width:1;" width="1112.52" x="15" y="891.9683"/><text fill="#000000" font-family="Verdana" font-size="13" font-weight="bold" lengthAdjust="spacing" textLength="19.0493" x="30" y="906.0381">alt</text><text fill="#000000" font-family="Verdana" font-size="11" font-weight="bold" lengthAdjust="spacing" textLength="157.7275" x="94.0493" y="905.0273">[No concurrency conflict]</text><g class="message" data-participant-1="event_store" data-participant-2="event_store"><line style="stroke:#000000;stroke-width:1;" x1="927.6919" x2="969.6919" y1="931.5669" y2="931.5669"/><line style="stroke:#000000;stroke-width:1;" x1="969.6919" x2="969.6919" y1="931.5669" y2="944.5669"/><line style="stroke:#000000;stroke-width:1;" x1="928.6919" x2="969.6919" y1="944.5669" y2="944.5669"/><polygon fill="#000000" points="938.6919,940.5669,928.6919,944.5669,938.6919,948.5669,934.6919,944.5669" style="stroke:#000000;stroke-width:1;"/><text fill="#000000" font-family="Verdana" font-size="13" lengthAdjust="spacing" textLength="170.8281" x="934.6919" y="926.8374">persist_events(event_list)</text></g><g class="message" data-participant-1="event_store" data-participant-2="app_service"><polygon fill="#000000" points="333.3818,970.3662,323.3818,974.3662,333.3818,978.3662,329.3818,974.3662" style="stroke:#000000;stroke-width:1;"/><line style="stroke:#000000;stroke-width:1;stroke-dasharray:2,2;" x1="327.3818" x2="921.6919" y1="974.3662" y2="974.3662"/><text fill="#000000" font-family="Verdana" font-size="13" lengthAdjust="spacing" textLength="49.8354" x="339.3818" y="969.6367">success</text></g><line style="stroke:#000000;stroke-width:1;stroke-dasharray:2,2;" x1="15" x2="1127.52" y1="983.3662" y2="983.3662"/><text fill="#000000" font-family="Verdana" font-size="11" font-weight="bold" lengthAdjust="spacing" textLength="196.1416" x="20" y="994.4253">[Concurrency conflict detected]</text><g class="message" data-participant-1="event_store" data-participant-2="app_service"><polygon fill="#000000" points="333.3818,1015.5342,323.3818,1019.5342,333.3818,1023.5342,329.3818,1019.5342" style="stroke:#000000;stroke-width:1;"/><line style="stroke:#000000;stroke-width:1;stroke-dasharray:2,2;" x1="327.3818" x2="921.6919" y1="1019.5342" y2="1019.5342"/><text fill="#000000" font-family="Verdana" font-size="13" lengthAdjust="spacing" textLength="119.9644" x="339.3818" y="1014.8047">concurrency_error</text></g><g class="message" data-participant-1="app_service" data-participant-2="client"><polygon fill="#000000" points="59.0874,1045.3335,49.0874,1049.3335,59.0874,1053.3335,55.0874,1049.3335" style="stroke:#000000;stroke-width:1;"/><line style="stroke:#000000;stroke-width:1;stroke-dasharray:2,2;" x1="53.0874" x2="321.3818" y1="1049.3335" y2="1049.3335"/><text fill="#000000" font-family="Verdana" font-size="13" lengthAdjust="spacing" textLength="87.0327" x="65.0874" y="1044.604">conflict_error</text></g><g class="message" data-participant-1="app_service" data-participant-2="aggregate"><polygon fill="#000000" points="668.7065,1082.1328,678.7065,1086.1328,668.7065,1090.1328,672.7065,1086.1328" style="stroke:#000000;stroke-width:1;"/><line style="stroke:#000000;stroke-width:1;" x1="322.3818" x2="674.7065" y1="1086.1328" y2="1086.1328"/><text fill="#000000" font-family="Verdana" font-size="13" lengthAdjust="spacing" textLength="197.7866" x="329.3818" y="1081.4033">mark_events_as_committed()</text></g><g class="message" data-participant-1="aggregate" data-participant-2="aggregate"><line style="stroke:#000000;stroke-width:1;" x1="690.7065" x2="732.7065" y1="1115.9321" y2="1115.9321"/><line style="stroke:#000000;stroke-width:1;" x1="732.7065" x2="732.7065" y1="1115.9321" y2="1128.9321"/><line style="stroke:#000000;stroke-width:1;" x1="691.7065" x2="732.7065" y1="1128.9321" y2="1128.9321"/><polygon fill="#000000" points="701.7065,1124.9321,691.7065,1128.9321,701.7065,1132.9321,697.7065,1128.9321" style="stroke:#000000;stroke-width:1;"/><text fill="#000000" font-family="Verdana" font-size="13" lengthAdjust="spacing" textLength="189.1411" x="697.7065" y="1111.2026">clear_uncommitted_events()</text></g><g class="message" data-participant-1="aggregate" data-participant-2="app_service"><polygon fill="#000000" points="333.3818,1154.7314,323.3818,1158.7314,333.3818,1162.7314,329.3818,1158.7314" style="stroke:#000000;stroke-width:1;"/><line style="stroke:#000000;stroke-width:1;stroke-dasharray:2,2;" x1="327.3818" x2="684.7065" y1="1158.7314" y2="1158.7314"/><text fill="#000000" font-family="Verdana" font-size="13" lengthAdjust="spacing" textLength="69.6084" x="339.3818" y="1154.002">committed</text></g><rect fill="#FFFFFF" height="3" style="stroke:#FFFFFF;stroke-width:1;" width="1836.5049" x="5" y="1187.6311"/><line style="stroke:#000000;stroke-width:0.5;" x1="5" x2="1841.5049" y1="1187.6311" y2="1187.6311"/><line style="stroke:#000000;stroke-width:0.5;" x1="5" x2="1841.5049" y1="1190.6311" y2="1190.6311"/><rect fill="#FFFFFF" height="23.7993" style="stroke:#000000;stroke-width:1;" width="271.9243" x="787.2903" y="1176.7314"/><text fill="#000000" font-family="Verdana" font-size="13" font-weight="bold" lengthAdjust="spacing" textLength="253.481" x="793.2903" y="1193.8013">Event Dispatching and Side Effects</text><g class="message" data-participant-1="app_service" data-participant-2="dispatcher"><polygon fill="#000000" points="1191.1226,1228.3301,1201.1226,1232.3301,1191.1226,1236.3301,1195.1226,1232.3301" style="stroke:#000000;stroke-width:1;"/><line style="stroke:#000000;stroke-width:1;" x1="322.3818" x2="1197.1226" y1="1232.3301" y2="1232.3301"/><text fill="#000000" font-family="Verdana" font-size="13" lengthAdjust="spacing" textLength="153.3086" x="329.3818" y="1227.6006">dispatch_all(event_list)</text></g><path d="M1143.6035,1247.3301 L1219.9863,1247.3301 L1219.9863,1255.1294 L1209.9863,1265.1294 L1143.6035,1265.1294 L1143.6035,1247.3301" fill="#FFFFFF" style="stroke:#000000;stroke-width:1;"/><rect fill="none" height="171.7959" style="stroke:#000000;stroke-width:1;" width="687.9014" x="1143.6035" y="1247.3301"/><text fill="#000000" font-family="Verdana" font-size="13" font-weight="bold" lengthAdjust="spacing" textLength="31.3828" x="1158.6035" y="1261.3999">loop</text><text fill="#000000" font-family="Verdana" font-size="11" font-weight="bold" lengthAdjust="spacing" textLength="181.3066" x="1234.9863" y="1260.3892">[for each event in event_list]</text><g class="message" data-participant-1="dispatcher" data-participant-2="dispatcher"><line style="stroke:#000000;stroke-width:1;" x1="1213.1226" x2="1255.1226" y1="1286.9287" y2="1286.9287"/><line style="stroke:#000000;stroke-width:1;" x1="1255.1226" x2="1255.1226" y1="1286.9287" y2="1299.9287"/><line style="stroke:#000000;stroke-width:1;" x1="1214.1226" x2="1255.1226" y1="1299.9287" y2="1299.9287"/><polygon fill="#000000" points="1224.1226,1295.9287,1214.1226,1299.9287,1224.1226,1303.9287,1220.1226,1299.9287" style="stroke:#000000;stroke-width:1;"/><text fill="#000000" font-family="Verdana" font-size="13" lengthAdjust="spacing" textLength="173.9829" x="1220.1226" y="1282.1992">find_handlers(event_type)</text></g><g class="message" data-participant-1="dispatcher" data-participant-2="handler"><polygon fill="#000000" points="1399.1055,1325.728,1409.1055,1329.728,1399.1055,1333.728,1403.1055,1329.728" style="stroke:#000000;stroke-width:1;"/><line style="stroke:#000000;stroke-width:1;" x1="1213.1226" x2="1405.1055" y1="1329.728" y2="1329.728"/><text fill="#000000" font-family="Verdana" font-size="13" lengthAdjust="spacing" textLength="92.0093" x="1220.1226" y="1324.9985">handle(event)</text></g><g class="message" data-participant-1="handler" data-participant-2="handler"><line style="stroke:#000000;stroke-width:1;" x1="1421.1055" x2="1463.1055" y1="1363.927" y2="1363.927"/><line style="stroke:#000000;stroke-width:1;" x1="1463.1055" x2="1463.1055" y1="1363.927" y2="1376.927"/><line style="stroke:#000000;stroke-width:1;" x1="1422.1055" x2="1463.1055" y1="1376.927" y2="1376.927"/><polygon fill="#000000" points="1432.1055,1372.927,1422.1055,1376.927,1432.1055,1380.927,1428.1055,1376.927" style="stroke:#000000;stroke-width:1;"/><text fill="#000000" font-family="Verdana" font-size="13" lengthAdjust="spacing" textLength="192.2134" x="1428.1055" y="1359.1975">process_event_side_effects()</text></g><path d="M1642.2134,1342.728 L1642.2134,1383.728 L1811.2134,1383.728 L1811.2134,1352.728 L1801.2134,1342.728 L1642.2134,1342.728" fill="#FFFFFF" style="stroke:#000000;stroke-width:1;"/><path d="M1801.2134,1342.728 L1801.2134,1352.728 L1811.2134,1352.728 L1801.2134,1342.728" fill="#FFFFFF" style="stroke:#000000;stroke-width:1;"/><text fill="#000000" font-family="Verdana" font-size="13" lengthAdjust="spacing" textLength="136.1763" x="1648.2134" y="1360.7979">Update read models,</text><text fill="#000000" font-family="Verdana" font-size="13" lengthAdjust="spacing" textLength="148.186" x="1648.2134" y="1376.5972">send notifications, etc.</text><g class="message" data-participant-1="handler" data-participant-2="dispatcher"><polygon fill="#000000" points="1224.1226,1407.126,1214.1226,1411.126,1224.1226,1415.126,1220.1226,1411.126" style="stroke:#000000;stroke-width:1;"/><line style="stroke:#000000;stroke-width:1;stroke-dasharray:2,2;" x1="1218.1226" x2="1415.1055" y1="1411.126" y2="1411.126"/><text fill="#000000" font-family="Verdana" font-size="13" lengthAdjust="spacing" textLength="51.7715" x="1230.1226" y="1406.3965">handled</text></g><g class="message" data-participant-1="dispatcher" data-participant-2="app_service"><polygon fill="#000000" points="333.3818,1443.9253,323.3818,1447.9253,333.3818,1451.9253,329.3818,1447.9253" style="stroke:#000000;stroke-width:1;"/><line style="stroke:#000000;stroke-width:1;stroke-dasharray:2,2;" x1="327.3818" x2="1207.1226" y1="1447.9253" y2="1447.9253"/><text fill="#000000" font-family="Verdana" font-size="13" lengthAdjust="spacing" textLength="145.0884" x="339.3818" y="1443.1958">all_events_dispatched</text></g><g class="message" data-participant-1="app_service" data-participant-2="client"><polygon fill="#000000" points="59.0874,1473.7246,49.0874,1477.7246,59.0874,1481.7246,55.0874,1477.7246" style="stroke:#000000;stroke-width:1;"/><line style="stroke:#000000;stroke-width:1;stroke-dasharray:2,2;" x1="53.0874" x2="321.3818" y1="1477.7246" y2="1477.7246"/><text fill="#000000" font-family="Verdana" font-size="13" lengthAdjust="spacing" textLength="109.332" x="65.0874" y="1472.9951">command_result</text></g><rect fill="#FFFFFF" height="3" style="stroke:#FFFFFF;stroke-width:1;" width="1836.5049" x="5" y="1506.6243"/><line style="stroke:#000000;stroke-width:0.5;" x1="5" x2="1841.5049" y1="1506.6243" y2="1506.6243"/><line style="stroke:#000000;stroke-width:0.5;" x1="5" x2="1841.5049" y1="1509.6243" y2="1509.6243"/><rect fill="#FFFFFF" height="23.7993" style="stroke:#000000;stroke-width:1;" width="259.813" x="793.3459" y="1495.7246"/><text fill="#000000" font-family="Verdana" font-size="13" font-weight="bold" lengthAdjust="spacing" textLength="241.3696" x="799.3459" y="1512.7944">Query Processing (Event Replay)</text><g class="message" data-participant-1="client" data-participant-2="app_service"><polygon fill="#000000" points="305.3818,1547.3232,315.3818,1551.3232,305.3818,1555.3232,309.3818,1551.3232" style="stroke:#000000;stroke-width:1;"/><line style="stroke:#000000;stroke-width:1;" x1="48.0874" x2="311.3818" y1="1551.3232" y2="1551.3232"/><text fill="#000000" font-family="Verdana" font-size="13" lengthAdjust="spacing" textLength="250.2944" x="55.0874" y="1546.5938">query_aggregate_state(aggregate_id)</text></g><g class="message" data-participant-1="app_service" data-participant-2="event_store"><polygon fill="#000000" points="905.6919,1577.1226,915.6919,1581.1226,905.6919,1585.1226,909.6919,1581.1226" style="stroke:#000000;stroke-width:1;"/><line style="stroke:#000000;stroke-width:1;" x1="327.3818" x2="911.6919" y1="1581.1226" y2="1581.1226"/><text fill="#000000" font-family="Verdana" font-size="13" lengthAdjust="spacing" textLength="199.9512" x="334.3818" y="1576.3931">load_all_events(aggregate_id)</text></g><g class="message" data-participant-1="event_store" data-participant-2="app_service"><polygon fill="#000000" points="338.3818,1606.9219,328.3818,1610.9219,338.3818,1614.9219,334.3818,1610.9219" style="stroke:#000000;stroke-width:1;"/><line style="stroke:#000000;stroke-width:1;stroke-dasharray:2,2;" x1="332.3818" x2="921.6919" y1="1610.9219" y2="1610.9219"/><text fill="#000000" font-family="Verdana" font-size="13" lengthAdjust="spacing" textLength="158.2852" x="344.3818" y="1606.1924">complete_event_stream</text></g><g class="message" data-participant-1="app_service" data-participant-2="aggregate"><polygon fill="#000000" points="668.7065,1636.7212,678.7065,1640.7212,668.7065,1644.7212,672.7065,1640.7212" style="stroke:#000000;stroke-width:1;"/><line style="stroke:#000000;stroke-width:1;" x1="327.3818" x2="674.7065" y1="1640.7212" y2="1640.7212"/><text fill="#000000" font-family="Verdana" font-size="13" lengthAdjust="spacing" textLength="334.3247" x="334.3818" y="1635.9917">reconstruct_from_events(complete_event_stream)</text></g><path d="M622.5479,1655.7212 L698.9307,1655.7212 L698.9307,1663.5205 L688.9307,1673.5205 L622.5479,1673.5205 L622.5479,1655.7212" fill="#FFFFFF" style="stroke:#000000;stroke-width:1;"/><rect fill="none" height="69.3979" style="stroke:#000000;stroke-width:1;" width="453.3008" x="622.5479" y="1655.7212"/><text fill="#000000" font-family="Verdana" font-size="13" font-weight="bold" lengthAdjust="spacing" textLength="31.3828" x="637.5479" y="1669.791">loop</text><text fill="#000000" font-family="Verdana" font-size="11" font-weight="bold" lengthAdjust="spacing" textLength="161.96" x="713.9307" y="1668.7803">[for each historical event]</text><g class="message" data-participant-1="aggregate" data-participant-2="aggregate"><line style="stroke:#000000;stroke-width:1;" x1="690.7065" x2="732.7065" y1="1699.7195" y2="1699.7195"/><line style="stroke:#000000;stroke-width:1;" x1="732.7065" x2="732.7065" y1="1699.7195" y2="1712.7195"/><line style="stroke:#000000;stroke-width:1;" x1="691.7065" x2="732.7065" y1="1712.7195" y2="1712.7195"/><polygon fill="#000000" points="701.7065,1708.7195,691.7065,1712.7195,701.7065,1716.7195,697.7065,1712.7195" style="stroke:#000000;stroke-width:1;"/><text fill="#000000" font-family="Verdana" font-size="13" lengthAdjust="spacing" textLength="128.4004" x="697.7065" y="1694.99">apply_event(event)</text></g><path d="M847.4004,1678.5205 L847.4004,1719.5205 L1054.4004,1719.5205 L1054.4004,1688.5205 L1044.4004,1678.5205 L847.4004,1678.5205" fill="#FFFFFF" style="stroke:#000000;stroke-width:1;"/><path d="M1044.4004,1678.5205 L1044.4004,1688.5205 L1054.4004,1688.5205 L1044.4004,1678.5205" fill="#FFFFFF" style="stroke:#000000;stroke-width:1;"/><text fill="#000000" font-family="Verdana" font-size="13" lengthAdjust="spacing" textLength="186.7417" x="853.4004" y="1696.5903">State is always derived from</text><text fill="#000000" font-family="Verdana" font-size="13" lengthAdjust="spacing" textLength="175.7412" x="853.4004" y="1712.3896">the complete event history</text><g class="message" data-participant-1="aggregate" data-participant-2="app_service"><polygon fill="#000000" points="338.3818,1749.9185,328.3818,1753.9185,338.3818,1757.9185,334.3818,1753.9185" style="stroke:#000000;stroke-width:1;"/><line style="stroke:#000000;stroke-width:1;stroke-dasharray:2,2;" x1="332.3818" x2="684.7065" y1="1753.9185" y2="1753.9185"/><text fill="#000000" font-family="Verdana" font-size="13" lengthAdjust="spacing" textLength="88.0229" x="344.3818" y="1749.189">current_state</text></g><g class="message" data-participant-1="app_service" data-participant-2="client"><polygon fill="#000000" points="59.0874,1779.7178,49.0874,1783.7178,59.0874,1787.7178,55.0874,1783.7178" style="stroke:#000000;stroke-width:1;"/><line style="stroke:#000000;stroke-width:1;stroke-dasharray:2,2;" x1="53.0874" x2="321.3818" y1="1783.7178" y2="1783.7178"/><text fill="#000000" font-family="Verdana" font-size="13" lengthAdjust="spacing" textLength="106.9072" x="65.0874" y="1778.9883">aggregate_state</text></g><!--SRC=[jLVRQjmm47ttLwXvsa3I3oXi8QI1FfMqeMy1eqgpkoAofKhoDllt7LriIrxRsL0AWLZscVkPqUm7Tu06Y9PKj5L5cLE6NDrB0Qsx8jGI5XuhJOqJJ6ZQEd9rfxKKZ3gXskVs2SnHC0XWgdLjuvcGYSn-Rs1FNGBsfnBqS4HRg1ATY3ZmBshhpxF8By9gwjW1J83puJYB_afRBXFq49-hQhibzwffy4WUZM9WhMZtPBkjgXWwkVrSnFM9m2kmpa7DejWc_R_ssHD732h7OqupOTILXOIwfAAy3g_iPaXABN9bUGvouTjpnz9N0xIfECngcBep64Lv0qorADunL- -CQdh7Shrvb4CHHoKJZMXCdchqv11rRQvpx5a0cGF0wr5_5iluSYsI2qgKwLdo_aYbuBuUlpea1JAZDfq4Yq5KLBg1DW5M4RAeXs7YK0jN3JRPa8WLWPIsa7QdCFFu-Wq9pZsoQtsamldqfU9vCVnh5UACs1ySekyu9qwH31qvOYDsqOfeCPJ6UtK4Ox7zU-rhHRKTOo5tO3lf43nRJLG3qiAGL67HsancpqblZ39lAY-uWZfIRsVY6fa74mLP6qFBmwm8euGy-l2jWnRLUM_xEHJcnWelz-3cQxJUL0kTBj65otgZ73hu4SFfZSU-nfbpawd5vrSDeGrJgHScKZcIffPm5BCNxCAMTSPWjawRSxMXbxufag7yymwl65_GLVqwrg4SLDx_wwda4YtBYkUHZOmyzmjbN0ZZJJDPL7NWsfh1HPRsTkTKdB5qXNyDDIyfMJMrzK34pVl6EfD0pGAHLrWxm1T8ExHNtqx-9lRjzIGua8VT3bDkvrfilFVHId-egPG58mQJsPfGIQKqsU7Iuo-fM0uSF7c3aLpzrDXEO2EbNQBddpjfI7Enb4mu58jF4H_cUkzQlvO4wHvVYEgufAJRmM9cQeYP2SEucFC_jR- -y5gbd3IA8vrldd7AOKOH9dPfXxFOx8vzdDYSHXe_y99xlRk1TtcmPxN7OlJ46t053_AYhFH1k1twSR_G1Pv8tpimftoZsqHg_G1STK_NgmlURoyxhX_f_brOpzwvwurv-FTz3xEX9GwY-dyjVhC6vfUeieyEmXj5VidemuNBpjWG1OsVVFxzHa3b7th2DH-CEEBEubrzRl47p929rC3H_2cDmxM954QpYnM-v2hDoJWXo18R_m80]--></g></svg>
