<svg xmlns="http://www.w3.org/2000/svg" xmlns:xlink="http://www.w3.org/1999/xlink" contentStyleType="text/css" data-diagram-type="CLASS" height="1664.5833px" preserveAspectRatio="none" style="width:935px;height:1664px;" version="1.1" viewBox="0 0 935 1664" width="935.4167px" zoomAndPan="magnify"><title>Generic Pipeline Stage Design</title><defs><linearGradient id="g1rauusjtujvl00" x1="50%" x2="50%" y1="0%" y2="100%"><stop offset="0%" stop-color="#FFFFFF"/><stop offset="100%" stop-color="#EEEEEE"/></linearGradient><linearGradient id="g1rauusjtujvl01" x1="50%" x2="50%" y1="0%" y2="100%"><stop offset="0%" stop-color="#F18E3E"/><stop offset="100%" stop-color="#EC7211"/></linearGradient></defs><g><g class="title" data-source-line="2"><rect fill="url(#g1rauusjtujvl00)" height="71.4722" rx="4.1667" ry="4.1667" style="stroke:#EEEEEE;stroke-width:1.0417;" width="371.6736" x="274.8003" y="5.2083"/><text fill="#EC7211" font-family="Verdana" font-size="20.8333" font-weight="bold" lengthAdjust="spacing" textLength="350.8403" x="285.2169" y="36.5702">Generic Pipeline Stage Design</text><text fill="#EC7211" font-family="Verdana" font-size="20.8333" font-weight="bold" lengthAdjust="spacing" textLength="333.374" x="293.95" y="61.8896">Adaptive Parallel Processing</text></g><!--class Pipeline_Stage_Interface--><g class="entity" data-entity="Pipeline_Stage_Interface" data-source-line="8" data-uid="ent0002" id="entity_Pipeline_Stage_Interface"><rect fill="url(#g1rauusjtujvl01)" height="174.4034" rx="4.1667" ry="4.1667" style="stroke:#EC7211;stroke-width:1.0417;" width="265.7761" x="7.2917" y="1182.5659"/><rect fill="url(#g1rauusjtujvl01)" height="60.3673" rx="4.1667" ry="4.1667" style="stroke:url(#g1rauusjtujvl01);stroke-width:1.0417;" width="265.7761" x="7.2917" y="1182.5659"/><rect fill="url(#g1rauusjtujvl01)" height="4.1667" style="stroke:url(#g1rauusjtujvl01);stroke-width:1.0417;" width="265.7761" x="7.2917" y="1238.7666"/><rect fill="none" height="174.4034" rx="4.1667" ry="4.1667" style="stroke:#EC7211;stroke-width:1.0417;" width="265.7761" x="7.2917" y="1182.5659"/><ellipse cx="58.7341" cy="1212.7496" fill="#EC4624" rx="10.4167" ry="10.4167" style="stroke:#A7280E;stroke-width:1.0417;"/><path d="M56.1381,1209.9114 L56.1381,1208.3245 L61.5641,1208.3245 L61.5641,1209.9114 L59.7514,1209.9114 L59.7514,1215.8502 L61.5641,1215.8502 L61.5641,1217.4371 L56.1381,1217.4371 L56.1381,1215.8502 L57.9508,1215.8502 L57.9508,1209.9114 Z " fill="#000000"/><text fill="#4E5D6C" font-family="Verdana" font-size="12.5" font-style="italic" lengthAdjust="spacing" textLength="72.4548" x="119.5773" y="1205.5497">&#171;#E8F4F8&#187;</text><text fill="#FFFFFF" font-family="Verdana" font-size="11.4583" font-style="italic" lengthAdjust="spacing" textLength="144.1411" x="83.7341" y="1230.1108">Pipeline_Stage_Interface</text><line style="stroke:#EC7211;stroke-width:1.0417;" x1="8.3333" x2="272.0261" y1="1242.9332" y2="1242.9332"/><line style="stroke:#EC7211;stroke-width:1.0417;" x1="8.3333" x2="272.0261" y1="1251.2666" y2="1251.2666"/><ellipse cx="18.75" cy="1269.1669" fill="#84BE84" rx="3.125" ry="3.125" style="stroke:#038048;stroke-width:1.0417;"/><text fill="#FFFFFF" font-family="Verdana" font-size="11.4583" lengthAdjust="spacing" textLength="229.3177" x="32.2917" y="1272.1615">Process(Input) : Result&lt;Output, Error&gt;</text><ellipse cx="18.75" cy="1293.5093" fill="#84BE84" rx="3.125" ry="3.125" style="stroke:#038048;stroke-width:1.0417;"/><text fill="#FFFFFF" font-family="Verdana" font-size="11.4583" lengthAdjust="spacing" textLength="91.8625" x="32.2917" y="1296.5038">Name() : String</text><ellipse cx="18.75" cy="1317.8516" fill="#84BE84" rx="3.125" ry="3.125" style="stroke:#038048;stroke-width:1.0417;"/><text fill="#FFFFFF" font-family="Verdana" font-size="11.4583" lengthAdjust="spacing" textLength="123.2051" x="32.2917" y="1320.8462">Is_Ready() : Boolean</text><ellipse cx="18.75" cy="1342.194" fill="#84BE84" rx="3.125" ry="3.125" style="stroke:#038048;stroke-width:1.0417;"/><text fill="#FFFFFF" font-family="Verdana" font-size="11.4583" lengthAdjust="spacing" textLength="42.51" x="32.2917" y="1345.1885">Reset()</text></g><!--class Generic_Stage<Input, Output, Config, State>--><g class="entity" data-entity="Generic_Stage.Input. Output. Config. State." data-source-line="15" data-uid="ent0003" id="entity_Generic_Stage.Input. Output. Config. State."><rect fill="url(#g1rauusjtujvl01)" height="604.8899" rx="4.1667" ry="4.1667" style="stroke:#EC7211;stroke-width:1.0417;" width="307.0043" x="333.5521" y="451.5868"/><rect fill="url(#g1rauusjtujvl01)" height="60.3673" rx="4.1667" ry="4.1667" style="stroke:url(#g1rauusjtujvl01);stroke-width:1.0417;" width="307.0043" x="333.5521" y="451.5868"/><rect fill="url(#g1rauusjtujvl01)" height="4.1667" style="stroke:url(#g1rauusjtujvl01);stroke-width:1.0417;" width="307.0043" x="333.5521" y="507.7874"/><rect fill="none" height="604.8899" rx="4.1667" ry="4.1667" style="stroke:#EC7211;stroke-width:1.0417;" width="307.0043" x="333.5521" y="451.5868"/><ellipse cx="348.1354" cy="481.7704" fill="#239B02" rx="10.4167" ry="10.4167" style="stroke:#176702;stroke-width:1.0417;"/><path d="M347.7285,478.4725 L346.8801,482.2017 L348.583,482.2017 Z M346.6299,476.8245 L348.8333,476.8245 L351.293,485.9371 L349.4924,485.9371 L348.9309,483.6849 L346.52,483.6849 L345.9707,485.9371 L344.1702,485.9371 Z " fill="#000000"/><text fill="#4E5D6C" font-family="Verdana" font-size="12.5" font-style="italic" lengthAdjust="spacing" textLength="72.4548" x="463.3268" y="474.5706">&#171;#F0F8E8&#187;</text><text fill="#FFFFFF" font-family="Verdana" font-size="11.4583" font-style="italic" lengthAdjust="spacing" textLength="265.3376" x="366.8854" y="499.1316">Generic_Stage&lt;Input, Output, Config, State&gt;</text><line style="stroke:#EC7211;stroke-width:1.0417;" x1="334.5938" x2="639.5147" y1="511.9541" y2="511.9541"/><rect fill="none" height="6.25" style="stroke:#C82930;stroke-width:1.0417;" width="6.25" x="341.8854" y="526.7294"/><text fill="#FFFFFF" font-family="Verdana" font-size="11.4583" lengthAdjust="spacing" textLength="81.456" x="358.5521" y="532.849">Name : String</text><rect fill="none" height="6.25" style="stroke:#C82930;stroke-width:1.0417;" width="6.25" x="341.8854" y="551.0718"/><text fill="#FFFFFF" font-family="Verdana" font-size="11.4583" lengthAdjust="spacing" textLength="121.3867" x="358.5521" y="557.1913">Config : Config_Type</text><rect fill="none" height="6.25" style="stroke:#C82930;stroke-width:1.0417;" width="6.25" x="341.8854" y="575.4141"/><text fill="#FFFFFF" font-family="Verdana" font-size="11.4583" lengthAdjust="spacing" textLength="109.492" x="358.5521" y="581.5337">State : State_Type</text><rect fill="none" height="6.25" style="stroke:#C82930;stroke-width:1.0417;" width="6.25" x="341.8854" y="599.7565"/><text fill="#FFFFFF" font-family="Verdana" font-size="11.4583" lengthAdjust="spacing" textLength="133.2367" x="358.5521" y="605.876">Is_Initialized : Boolean</text><rect fill="none" height="6.25" style="stroke:#C82930;stroke-width:1.0417;" width="6.25" x="341.8854" y="624.0988"/><text fill="#FFFFFF" font-family="Verdana" font-size="11.4583" lengthAdjust="spacing" textLength="153.4119" x="358.5521" y="630.2183">Items_Processed : Natural</text><rect fill="none" height="6.25" style="stroke:#C82930;stroke-width:1.0417;" width="6.25" x="341.8854" y="648.4412"/><text fill="#FFFFFF" font-family="Verdana" font-size="11.4583" lengthAdjust="spacing" textLength="131.4911" x="358.5521" y="654.5607">Errors_Count : Natural</text><rect fill="none" height="6.25" style="stroke:#C82930;stroke-width:1.0417;" width="6.25" x="341.8854" y="672.7835"/><text fill="#FFFFFF" font-family="Verdana" font-size="11.4583" lengthAdjust="spacing" textLength="126.9928" x="358.5521" y="678.903">Total_Time : Duration</text><rect fill="none" height="6.25" style="stroke:#C82930;stroke-width:1.0417;" width="6.25" x="341.8854" y="697.1258"/><text fill="#FFFFFF" font-family="Verdana" font-size="11.4583" lengthAdjust="spacing" textLength="118.4886" x="358.5521" y="703.2454">Min_Time : Duration</text><rect fill="none" height="6.25" style="stroke:#C82930;stroke-width:1.0417;" width="6.25" x="341.8854" y="721.4682"/><text fill="#FFFFFF" font-family="Verdana" font-size="11.4583" lengthAdjust="spacing" textLength="121.756" x="358.5521" y="727.5877">Max_Time : Duration</text><line style="stroke:#EC7211;stroke-width:1.0417;" x1="334.5938" x2="639.5147" y1="739.3685" y2="739.3685"/><ellipse cx="345.0104" cy="757.2689" fill="#84BE84" rx="3.125" ry="3.125" style="stroke:#038048;stroke-width:1.0417;"/><text fill="#FFFFFF" font-family="Verdana" font-size="11.4583" lengthAdjust="spacing" textLength="182.9865" x="358.5521" y="760.2634">Create(Config) : Pipeline_Stage</text><ellipse cx="345.0104" cy="781.6112" fill="#84BE84" rx="3.125" ry="3.125" style="stroke:#038048;stroke-width:1.0417;"/><text fill="#FFFFFF" font-family="Verdana" font-size="11.4583" lengthAdjust="spacing" textLength="174.2864" x="358.5521" y="784.6058">Process(Input) : Stage_Result</text><ellipse cx="345.0104" cy="805.9536" fill="#84BE84" rx="3.125" ry="3.125" style="stroke:#038048;stroke-width:1.0417;"/><text fill="#FFFFFF" font-family="Verdana" font-size="11.4583" lengthAdjust="spacing" textLength="219.2917" x="358.5521" y="808.9481">Process_Batch(Inputs) : Batch_Result</text><ellipse cx="345.0104" cy="830.2959" fill="#84BE84" rx="3.125" ry="3.125" style="stroke:#038048;stroke-width:1.0417;"/><text fill="#FFFFFF" font-family="Verdana" font-size="11.4583" lengthAdjust="spacing" textLength="196.5708" x="358.5521" y="833.2904">Get_Statistics() : Stage_Statistics</text><ellipse cx="345.0104" cy="854.6383" fill="#84BE84" rx="3.125" ry="3.125" style="stroke:#038048;stroke-width:1.0417;"/><text fill="#FFFFFF" font-family="Verdana" font-size="11.4583" lengthAdjust="spacing" textLength="151.7782" x="358.5521" y="857.6328">Update_State(New_State)</text><line style="stroke:#EC7211;stroke-width:1.0417;" x1="334.5938" x2="639.5147" y1="869.4136" y2="869.4136"/><text fill="#FFFFFF" font-family="Verdana" font-size="11.4583" font-style="italic" lengthAdjust="spacing" textLength="211.1903" x="345.0104" y="890.3085">Process_Item(Input, State) : Output</text><text fill="#FFFFFF" font-family="Verdana" font-size="11.4583" font-style="italic" lengthAdjust="spacing" textLength="177.4867" x="345.0104" y="914.6508">Initialize_State(Config) : State</text><text fill="#FFFFFF" font-family="Verdana" font-size="11.4583" font-style="italic" lengthAdjust="spacing" textLength="184.167" x="345.0104" y="938.9932">Is_Valid_State(State) : Boolean</text><text fill="#FFFFFF" font-family="Verdana" font-size="11.4583" font-style="italic" lengthAdjust="spacing" textLength="241.4754" x="345.0104" y="963.3355">Can_Process_In_Parallel(State) : Boolean</text><line style="stroke:#EC7211;stroke-width:1.0417;" x1="334.5938" x2="639.5147" y1="975.1163" y2="975.1163"/><polygon fill="#FFFF44" points="345.0104,987.8083,349.1771,991.975,345.0104,996.1417,340.8438,991.975" style="stroke:#B38D22;stroke-width:1.0417;"/><text fill="#FFFFFF" font-family="Verdana" font-size="11.4583" lengthAdjust="spacing" textLength="210.172" x="358.5521" y="996.0112">Process_Sequential(Items) : Results</text><polygon fill="#FFFF44" points="345.0104,1012.1507,349.1771,1016.3173,345.0104,1020.484,340.8438,1016.3173" style="stroke:#B38D22;stroke-width:1.0417;"/><text fill="#FFFFFF" font-family="Verdana" font-size="11.4583" lengthAdjust="spacing" textLength="191.183" x="358.5521" y="1020.3535">Process_Parallel(Items) : Results</text><polygon fill="#FFFF44" points="345.0104,1036.493,349.1771,1040.6597,345.0104,1044.8263,340.8438,1040.6597" style="stroke:#B38D22;stroke-width:1.0417;"/><text fill="#FFFFFF" font-family="Verdana" font-size="11.4583" lengthAdjust="spacing" textLength="220.6624" x="358.5521" y="1044.6959">Determine_Processing_Mode() : Mode</text></g><!--class Stage_Statistics--><g class="entity" data-entity="Stage_Statistics" data-source-line="42" data-uid="ent0004" id="entity_Stage_Statistics"><rect fill="url(#g1rauusjtujvl01)" height="247.4304" rx="4.1667" ry="4.1667" style="stroke:#EC7211;stroke-width:1.0417;" width="189.8702" x="309.8229" y="1146.0555"/><rect fill="url(#g1rauusjtujvl01)" height="60.3673" rx="4.1667" ry="4.1667" style="stroke:url(#g1rauusjtujvl01);stroke-width:1.0417;" width="189.8702" x="309.8229" y="1146.0555"/><rect fill="url(#g1rauusjtujvl01)" height="4.1667" style="stroke:url(#g1rauusjtujvl01);stroke-width:1.0417;" width="189.8702" x="309.8229" y="1202.2562"/><rect fill="none" height="247.4304" rx="4.1667" ry="4.1667" style="stroke:#EC7211;stroke-width:1.0417;" width="189.8702" x="309.8229" y="1146.0555"/><ellipse cx="349.2763" cy="1176.2392" fill="#FFFFFF" rx="10.4167" ry="10.4167" style="stroke:#BEBEBE;stroke-width:1.0417;"/><path d="M351.1867,1180.6642 Q350.7595,1180.8839 350.2895,1180.9938 Q349.8195,1181.1037 349.3007,1181.1037 Q347.4575,1181.1037 346.487,1179.8891 Q345.5166,1178.6745 345.5166,1176.3795 Q345.5166,1174.0785 346.487,1172.8639 Q347.4575,1171.6493 349.3007,1171.6493 Q349.8195,1171.6493 350.2956,1171.7592 Q350.7717,1171.869 351.1867,1172.0888 L351.1867,1174.0907 Q350.7229,1173.6635 350.2865,1173.4651 Q349.8501,1173.2668 349.3862,1173.2668 Q348.3974,1173.2668 347.8939,1174.0511 Q347.3903,1174.8354 347.3903,1176.3795 Q347.3903,1177.9176 347.8939,1178.7019 Q348.3974,1179.4862 349.3862,1179.4862 Q349.8501,1179.4862 350.2865,1179.2879 Q350.7229,1179.0895 351.1867,1178.6623 Z " fill="#000000"/><text fill="#4E5D6C" font-family="Verdana" font-size="12.5" font-style="italic" lengthAdjust="spacing" textLength="71.6919" x="384.1754" y="1169.0393">&#171;#FFF2E8&#187;</text><text fill="#FFFFFF" font-family="Verdana" font-size="11.4583" lengthAdjust="spacing" textLength="92.9367" x="373.553" y="1193.6004">Stage_Statistics</text><line style="stroke:#EC7211;stroke-width:1.0417;" x1="310.8646" x2="498.6514" y1="1206.4228" y2="1206.4228"/><ellipse cx="321.2813" cy="1224.3232" fill="none" rx="3.125" ry="3.125" style="stroke:#038048;stroke-width:1.0417;"/><text fill="#FFFFFF" font-family="Verdana" font-size="11.4583" lengthAdjust="spacing" textLength="153.4119" x="334.8229" y="1227.3177">Items_Processed : Natural</text><ellipse cx="321.2813" cy="1248.6655" fill="none" rx="3.125" ry="3.125" style="stroke:#038048;stroke-width:1.0417;"/><text fill="#FFFFFF" font-family="Verdana" font-size="11.4583" lengthAdjust="spacing" textLength="129.6783" x="334.8229" y="1251.6601">Items_Failed : Natural</text><ellipse cx="321.2813" cy="1273.0079" fill="none" rx="3.125" ry="3.125" style="stroke:#038048;stroke-width:1.0417;"/><text fill="#FFFFFF" font-family="Verdana" font-size="11.4583" lengthAdjust="spacing" textLength="126.9928" x="334.8229" y="1276.0024">Total_Time : Duration</text><ellipse cx="321.2813" cy="1297.3502" fill="none" rx="3.125" ry="3.125" style="stroke:#038048;stroke-width:1.0417;"/><text fill="#FFFFFF" font-family="Verdana" font-size="11.4583" lengthAdjust="spacing" textLength="145.6126" x="334.8229" y="1300.3447">Average_Time : Duration</text><ellipse cx="321.2813" cy="1321.6926" fill="none" rx="3.125" ry="3.125" style="stroke:#038048;stroke-width:1.0417;"/><text fill="#FFFFFF" font-family="Verdana" font-size="11.4583" lengthAdjust="spacing" textLength="118.4886" x="334.8229" y="1324.6871">Min_Time : Duration</text><ellipse cx="321.2813" cy="1346.0349" fill="none" rx="3.125" ry="3.125" style="stroke:#038048;stroke-width:1.0417;"/><text fill="#FFFFFF" font-family="Verdana" font-size="11.4583" lengthAdjust="spacing" textLength="121.756" x="334.8229" y="1349.0294">Max_Time : Duration</text><ellipse cx="321.2813" cy="1370.3772" fill="none" rx="3.125" ry="3.125" style="stroke:#038048;stroke-width:1.0417;"/><text fill="#FFFFFF" font-family="Verdana" font-size="11.4583" lengthAdjust="spacing" textLength="108.0429" x="334.8229" y="1373.3718">Throughput : Float</text><line style="stroke:#EC7211;stroke-width:1.0417;" x1="310.8646" x2="498.6514" y1="1385.1526" y2="1385.1526"/></g><!--class Batch_Result--><g class="entity" data-entity="Batch_Result" data-source-line="52" data-uid="ent0005" id="entity_Batch_Result"><rect fill="url(#g1rauusjtujvl01)" height="174.4034" rx="4.1667" ry="4.1667" style="stroke:#EC7211;stroke-width:1.0417;" width="178.8986" x="536.1458" y="1182.5659"/><rect fill="url(#g1rauusjtujvl01)" height="60.3673" rx="4.1667" ry="4.1667" style="stroke:url(#g1rauusjtujvl01);stroke-width:1.0417;" width="178.8986" x="536.1458" y="1182.5659"/><rect fill="url(#g1rauusjtujvl01)" height="4.1667" style="stroke:url(#g1rauusjtujvl01);stroke-width:1.0417;" width="178.8986" x="536.1458" y="1238.7666"/><rect fill="none" height="174.4034" rx="4.1667" ry="4.1667" style="stroke:#EC7211;stroke-width:1.0417;" width="178.8986" x="536.1458" y="1182.5659"/><ellipse cx="578.5399" cy="1212.7496" fill="#FFFFFF" rx="10.4167" ry="10.4167" style="stroke:#BEBEBE;stroke-width:1.0417;"/><path d="M580.4503,1217.1746 Q580.0231,1217.3944 579.5531,1217.5042 Q579.0831,1217.6141 578.5643,1217.6141 Q576.7211,1217.6141 575.7506,1216.3995 Q574.7801,1215.1849 574.7801,1212.89 Q574.7801,1210.5889 575.7506,1209.3743 Q576.7211,1208.1597 578.5643,1208.1597 Q579.0831,1208.1597 579.5592,1208.2696 Q580.0353,1208.3795 580.4503,1208.5992 L580.4503,1210.6011 Q579.9864,1210.1739 579.55,1209.9755 Q579.1136,1209.7772 578.6498,1209.7772 Q577.661,1209.7772 577.1575,1210.5615 Q576.6539,1211.3458 576.6539,1212.89 Q576.6539,1214.428 577.1575,1215.2124 Q577.661,1215.9967 578.6498,1215.9967 Q579.1136,1215.9967 579.55,1215.7983 Q579.9864,1215.5999 580.4503,1215.1727 Z " fill="#000000"/><text fill="#4E5D6C" font-family="Verdana" font-size="12.5" font-style="italic" lengthAdjust="spacing" textLength="71.6919" x="605.3393" y="1205.5497">&#171;#FFF2E8&#187;</text><text fill="#FFFFFF" font-family="Verdana" font-size="11.4583" lengthAdjust="spacing" textLength="75.4303" x="603.4701" y="1230.1108">Batch_Result</text><line style="stroke:#EC7211;stroke-width:1.0417;" x1="537.1875" x2="714.0028" y1="1242.9332" y2="1242.9332"/><ellipse cx="547.6042" cy="1260.8336" fill="none" rx="3.125" ry="3.125" style="stroke:#038048;stroke-width:1.0417;"/><text fill="#FFFFFF" font-family="Verdana" font-size="11.4583" lengthAdjust="spacing" textLength="129.1356" x="561.1458" y="1263.8281">Results : Result_Array</text><ellipse cx="547.6042" cy="1285.1759" fill="none" rx="3.125" ry="3.125" style="stroke:#038048;stroke-width:1.0417;"/><text fill="#FFFFFF" font-family="Verdana" font-size="11.4583" lengthAdjust="spacing" textLength="142.4403" x="561.1458" y="1288.1705">Success_Count : Natural</text><ellipse cx="547.6042" cy="1309.5183" fill="none" rx="3.125" ry="3.125" style="stroke:#038048;stroke-width:1.0417;"/><text fill="#FFFFFF" font-family="Verdana" font-size="11.4583" lengthAdjust="spacing" textLength="125.5213" x="561.1458" y="1312.5128">Error_Count : Natural</text><ellipse cx="547.6042" cy="1333.8606" fill="none" rx="3.125" ry="3.125" style="stroke:#038048;stroke-width:1.0417;"/><text fill="#FFFFFF" font-family="Verdana" font-size="11.4583" lengthAdjust="spacing" textLength="126.9928" x="561.1458" y="1336.8552">Total_Time : Duration</text><line style="stroke:#EC7211;stroke-width:1.0417;" x1="537.1875" x2="714.0028" y1="1348.636" y2="1348.636"/></g><!--class Processing_Mode--><g class="entity" data-entity="Processing_Mode" data-source-line="59" data-uid="ent0006" id="entity_Processing_Mode"><rect fill="url(#g1rauusjtujvl01)" height="124.4527" rx="4.1667" ry="4.1667" style="stroke:#EC7211;stroke-width:1.0417;" width="140.5507" x="751.1563" y="1207.5451"/><rect fill="url(#g1rauusjtujvl01)" height="34.759" rx="4.1667" ry="4.1667" style="stroke:url(#g1rauusjtujvl01);stroke-width:1.0417;" width="140.5507" x="751.1563" y="1207.5451"/><rect fill="url(#g1rauusjtujvl01)" height="4.1667" style="stroke:url(#g1rauusjtujvl01);stroke-width:1.0417;" width="140.5507" x="751.1563" y="1238.1374"/><rect fill="none" height="124.4527" rx="4.1667" ry="4.1667" style="stroke:#EC7211;stroke-width:1.0417;" width="140.5507" x="751.1563" y="1207.5451"/><ellipse cx="765.7396" cy="1224.9246" fill="#F18E3E" rx="10.4167" ry="10.4167" style="stroke:#BD5B0E;stroke-width:1.0417;"/><path d="M768.7954,1229.6121 L763.1191,1229.6121 L763.1191,1220.4995 L768.7954,1220.4995 L768.7954,1222.0865 L764.9197,1222.0865 L764.9197,1224.0518 L768.4292,1224.0518 L768.4292,1225.6387 L764.9197,1225.6387 L764.9197,1228.0252 L768.7954,1228.0252 Z " fill="#000000"/><text fill="#FFFFFF" font-family="Verdana" font-size="11.4583" lengthAdjust="spacing" textLength="98.8841" x="784.4896" y="1229.4816">Processing_Mode</text><line style="stroke:#EC7211;stroke-width:1.0417;" x1="752.1979" x2="890.6653" y1="1242.3041" y2="1242.3041"/><text fill="#FFFFFF" font-family="Verdana" font-size="11.4583" lengthAdjust="spacing" textLength="60.8109" x="762.6146" y="1263.199">Sequential</text><text fill="#FFFFFF" font-family="Verdana" font-size="11.4583" lengthAdjust="spacing" textLength="41.8218" x="762.6146" y="1287.5413">Parallel</text><text fill="#FFFFFF" font-family="Verdana" font-size="11.4583" lengthAdjust="spacing" textLength="50.2589" x="762.6146" y="1311.8837">Adaptive</text><line style="stroke:#EC7211;stroke-width:1.0417;" x1="752.1979" x2="890.6653" y1="1323.6645" y2="1323.6645"/></g><!--class Stage_Error_Kind--><g class="entity" data-entity="Stage_Error_Kind" data-source-line="65" data-uid="ent0007" id="entity_Stage_Error_Kind"><rect fill="url(#g1rauusjtujvl01)" height="148.7951" rx="4.1667" ry="4.1667" style="stroke:#EC7211;stroke-width:1.0417;" width="143.7734" x="662.0417" y="151.7118"/><rect fill="url(#g1rauusjtujvl01)" height="34.759" rx="4.1667" ry="4.1667" style="stroke:url(#g1rauusjtujvl01);stroke-width:1.0417;" width="143.7734" x="662.0417" y="151.7118"/><rect fill="url(#g1rauusjtujvl01)" height="4.1667" style="stroke:url(#g1rauusjtujvl01);stroke-width:1.0417;" width="143.7734" x="662.0417" y="182.3041"/><rect fill="none" height="148.7951" rx="4.1667" ry="4.1667" style="stroke:#EC7211;stroke-width:1.0417;" width="143.7734" x="662.0417" y="151.7118"/><ellipse cx="676.625" cy="169.0913" fill="#F18E3E" rx="10.4167" ry="10.4167" style="stroke:#BD5B0E;stroke-width:1.0417;"/><path d="M679.6808,173.7788 L674.0046,173.7788 L674.0046,164.6662 L679.6808,164.6662 L679.6808,166.2531 L675.8051,166.2531 L675.8051,168.2185 L679.3146,168.2185 L679.3146,169.8054 L675.8051,169.8054 L675.8051,172.1918 L679.6808,172.1918 Z " fill="#000000"/><text fill="#FFFFFF" font-family="Verdana" font-size="11.4583" lengthAdjust="spacing" textLength="102.1067" x="695.375" y="173.6483">Stage_Error_Kind</text><line style="stroke:#EC7211;stroke-width:1.0417;" x1="663.0833" x2="804.7734" y1="186.4708" y2="186.4708"/><text fill="#FFFFFF" font-family="Verdana" font-size="11.4583" lengthAdjust="spacing" textLength="97.8938" x="673.5" y="207.3656">Validation_Failed</text><text fill="#FFFFFF" font-family="Verdana" font-size="11.4583" lengthAdjust="spacing" textLength="102.0284" x="673.5" y="231.708">Processing_Failed</text><text fill="#FFFFFF" font-family="Verdana" font-size="11.4583" lengthAdjust="spacing" textLength="66.7247" x="673.5" y="256.0503">State_Error</text><text fill="#FFFFFF" font-family="Verdana" font-size="11.4583" lengthAdjust="spacing" textLength="113.5595" x="673.5" y="280.3927">Configuration_Error</text><line style="stroke:#EC7211;stroke-width:1.0417;" x1="663.0833" x2="804.7734" y1="292.1735" y2="292.1735"/></g><!--class Stage_Error--><g class="entity" data-entity="Stage_Error" data-source-line="72" data-uid="ent0008" id="entity_Stage_Error"><rect fill="url(#g1rauusjtujvl01)" height="174.4034" rx="4.1667" ry="4.1667" style="stroke:#EC7211;stroke-width:1.0417;" width="177.2985" x="536.9479" y="1483.0659"/><rect fill="url(#g1rauusjtujvl01)" height="60.3673" rx="4.1667" ry="4.1667" style="stroke:url(#g1rauusjtujvl01);stroke-width:1.0417;" width="177.2985" x="536.9479" y="1483.0659"/><rect fill="url(#g1rauusjtujvl01)" height="4.1667" style="stroke:url(#g1rauusjtujvl01);stroke-width:1.0417;" width="177.2985" x="536.9479" y="1539.2666"/><rect fill="none" height="174.4034" rx="4.1667" ry="4.1667" style="stroke:#EC7211;stroke-width:1.0417;" width="177.2985" x="536.9479" y="1483.0659"/><ellipse cx="581.5478" cy="1513.2496" fill="#FFFFFF" rx="10.4167" ry="10.4167" style="stroke:#BEBEBE;stroke-width:1.0417;"/><path d="M583.4582,1517.6746 Q583.031,1517.8944 582.561,1518.0042 Q582.091,1518.1141 581.5722,1518.1141 Q579.729,1518.1141 578.7585,1516.8995 Q577.7881,1515.6849 577.7881,1513.39 Q577.7881,1511.0889 578.7585,1509.8743 Q579.729,1508.6597 581.5722,1508.6597 Q582.091,1508.6597 582.5671,1508.7696 Q583.0432,1508.8795 583.4582,1509.0992 L583.4582,1511.1011 Q582.9944,1510.6739 582.558,1510.4755 Q582.1216,1510.2772 581.6577,1510.2772 Q580.6689,1510.2772 580.1654,1511.0615 Q579.6618,1511.8458 579.6618,1513.39 Q579.6618,1514.928 580.1654,1515.7124 Q580.6689,1516.4967 581.6577,1516.4967 Q582.1216,1516.4967 582.558,1516.2983 Q582.9944,1516.0999 583.4582,1515.6727 Z " fill="#000000"/><text fill="#4E5D6C" font-family="Verdana" font-size="12.5" font-style="italic" lengthAdjust="spacing" textLength="71.6919" x="605.3762" y="1506.0497">&#171;#FFF2E8&#187;</text><text fill="#FFFFFF" font-family="Verdana" font-size="11.4583" lengthAdjust="spacing" textLength="69.3487" x="606.5478" y="1530.6108">Stage_Error</text><line style="stroke:#EC7211;stroke-width:1.0417;" x1="537.9896" x2="713.2047" y1="1543.4332" y2="1543.4332"/><ellipse cx="548.4063" cy="1561.3336" fill="none" rx="3.125" ry="3.125" style="stroke:#038048;stroke-width:1.0417;"/><text fill="#FFFFFF" font-family="Verdana" font-size="11.4583" lengthAdjust="spacing" textLength="140.8401" x="561.9479" y="1564.3281">Kind : Stage_Error_Kind</text><ellipse cx="548.4063" cy="1585.6759" fill="none" rx="3.125" ry="3.125" style="stroke:#038048;stroke-width:1.0417;"/><text fill="#FFFFFF" font-family="Verdana" font-size="11.4583" lengthAdjust="spacing" textLength="97.3007" x="561.9479" y="1588.6705">Message : String</text><ellipse cx="548.4063" cy="1610.0183" fill="none" rx="3.125" ry="3.125" style="stroke:#038048;stroke-width:1.0417;"/><text fill="#FFFFFF" font-family="Verdana" font-size="11.4583" lengthAdjust="spacing" textLength="121.935" x="561.9479" y="1613.0128">Stage_Name : String</text><ellipse cx="548.4063" cy="1634.3606" fill="none" rx="3.125" ry="3.125" style="stroke:#038048;stroke-width:1.0417;"/><text fill="#FFFFFF" font-family="Verdana" font-size="11.4583" lengthAdjust="spacing" textLength="122.8078" x="561.9479" y="1637.3552">Item_Index : Natural</text><line style="stroke:#EC7211;stroke-width:1.0417;" x1="537.9896" x2="713.2047" y1="1649.136" y2="1649.136"/></g><!--class Example_Transform_Stage--><g class="entity" data-entity="Example_Transform_Stage" data-source-line="79" data-uid="ent0009" id="entity_Example_Transform_Stage"><rect fill="url(#g1rauusjtujvl01)" height="271.7728" rx="4.1667" ry="4.1667" style="stroke:#EC7211;stroke-width:1.0417;" width="277.9338" x="348.0833" y="90.2222"/><rect fill="url(#g1rauusjtujvl01)" height="60.3673" rx="4.1667" ry="4.1667" style="stroke:url(#g1rauusjtujvl01);stroke-width:1.0417;" width="277.9338" x="348.0833" y="90.2222"/><rect fill="url(#g1rauusjtujvl01)" height="4.1667" style="stroke:url(#g1rauusjtujvl01);stroke-width:1.0417;" width="277.9338" x="348.0833" y="146.4228"/><rect fill="none" height="271.7728" rx="4.1667" ry="4.1667" style="stroke:#EC7211;stroke-width:1.0417;" width="277.9338" x="348.0833" y="90.2222"/><ellipse cx="399.6769" cy="120.4058" fill="#FFFFFF" rx="10.4167" ry="10.4167" style="stroke:#BEBEBE;stroke-width:1.0417;"/><path d="M401.5873,124.8309 Q401.16,125.0506 400.69,125.1605 Q400.2201,125.2703 399.7013,125.2703 Q397.858,125.2703 396.8876,124.0557 Q395.9171,122.8411 395.9171,120.5462 Q395.9171,118.2452 396.8876,117.0306 Q397.858,115.816 399.7013,115.816 Q400.2201,115.816 400.6961,115.9259 Q401.1722,116.0357 401.5873,116.2554 L401.5873,118.2574 Q401.1234,117.8301 400.687,117.6318 Q400.2506,117.4334 399.7867,117.4334 Q398.798,117.4334 398.2944,118.2177 Q397.7909,119.002 397.7909,120.5462 Q397.7909,122.0843 398.2944,122.8686 Q398.798,123.6529 399.7867,123.6529 Q400.2506,123.6529 400.687,123.4545 Q401.1234,123.2562 401.5873,122.8289 Z " fill="#000000"/><text fill="#4E5D6C" font-family="Verdana" font-size="12.5" font-style="italic" lengthAdjust="spacing" textLength="71.6919" x="466.8293" y="113.206">&#171;#FFF2E8&#187;</text><text fill="#FFFFFF" font-family="Verdana" font-size="11.4583" lengthAdjust="spacing" textLength="155.9967" x="424.6769" y="137.767">Example_Transform_Stage</text><line style="stroke:#EC7211;stroke-width:1.0417;" x1="349.125" x2="624.9754" y1="150.5895" y2="150.5895"/><text fill="#FFFFFF" font-family="Verdana" font-size="11.4583" lengthAdjust="spacing" textLength="127.653" x="359.5417" y="171.4844">Input_Type =&gt; String</text><text fill="#FFFFFF" font-family="Verdana" font-size="11.4583" lengthAdjust="spacing" textLength="143.8614" x="359.5417" y="195.8267">Output_Type =&gt; Integer</text><text fill="#FFFFFF" font-family="Verdana" font-size="11.4583" lengthAdjust="spacing" textLength="201.2929" x="359.5417" y="220.1691">Config_Type =&gt; Transform_Config</text><text fill="#FFFFFF" font-family="Verdana" font-size="11.4583" lengthAdjust="spacing" textLength="189.3982" x="359.5417" y="244.5114">State_Type =&gt; Transform_State</text><line style="stroke:#EC7211;stroke-width:1.0417;" x1="349.125" x2="624.9754" y1="256.2922" y2="256.2922"/><ellipse cx="359.5417" cy="274.1926" fill="#84BE84" rx="3.125" ry="3.125" style="stroke:#038048;stroke-width:1.0417;"/><text fill="#FFFFFF" font-family="Verdana" font-size="11.4583" lengthAdjust="spacing" textLength="211.1847" x="373.0833" y="277.1871">Process_Item(Input, State) : Output</text><ellipse cx="359.5417" cy="298.5349" fill="#84BE84" rx="3.125" ry="3.125" style="stroke:#038048;stroke-width:1.0417;"/><text fill="#FFFFFF" font-family="Verdana" font-size="11.4583" lengthAdjust="spacing" textLength="177.5035" x="373.0833" y="301.5294">Initialize_State(Config) : State</text><ellipse cx="359.5417" cy="322.8772" fill="#84BE84" rx="3.125" ry="3.125" style="stroke:#038048;stroke-width:1.0417;"/><text fill="#FFFFFF" font-family="Verdana" font-size="11.4583" lengthAdjust="spacing" textLength="184.1782" x="373.0833" y="325.8718">Is_Valid_State(State) : Boolean</text><ellipse cx="359.5417" cy="347.2196" fill="#84BE84" rx="3.125" ry="3.125" style="stroke:#038048;stroke-width:1.0417;"/><text fill="#FFFFFF" font-family="Verdana" font-size="11.4583" lengthAdjust="spacing" textLength="241.4754" x="373.0833" y="350.2141">Can_Process_In_Parallel(State) : Boolean</text></g><g class="entity" data-entity="GMN16" data-source-line="99" data-uid="ent0017" id="entity_GMN16"><path d="M676.7917,671.8159 L676.7917,749.8576 L640.8646,754.0243 L676.7917,758.1909 L676.7917,836.2324 A4.1667,4.1667 0 0 0 680.9583,840.3991 L924.3991,840.3991 A4.1667,4.1667 0 0 0 928.5658,836.2324 L928.5658,678.0659 L918.1491,667.6493 L680.9583,667.6493 A4.1667,4.1667 0 0 0 676.7917,671.8159" fill="#0073BB" style="stroke:#005C96;stroke-width:1.0417;"/><path d="M918.1491,667.6493 L918.1491,675.9826 A2.0833,2.0833 0 0 0 920.2324,678.0659 L928.5658,678.0659 L918.1491,667.6493" fill="#0073BB" style="stroke:#005C96;stroke-width:1.0417;"/><text fill="#FFFFFF" font-family="Verdana" font-size="12.5" font-weight="bold" lengthAdjust="spacing" textLength="147.5891" x="688.25" y="690.6331">Adaptive Processing:</text><text fill="#FFFFFF" font-family="Verdana" font-size="12.5" lengthAdjust="spacing" textLength="167.7673" x="688.25" y="705.8247">1. Monitor processing time</text><text fill="#FFFFFF" font-family="Verdana" font-size="12.5" lengthAdjust="spacing" textLength="201.5259" x="688.25" y="721.0164">2. Switch to parallel if beneficial</text><text fill="#FFFFFF" font-family="Verdana" font-size="12.5" lengthAdjust="spacing" textLength="219.4824" x="688.25" y="736.208">3. Fall back to sequential on errors</text><text fill="#FFFFFF" font-family="Verdana" font-size="12.5" lengthAdjust="spacing" textLength="4.3945" x="688.25" y="751.3997">&#160;</text><text fill="#FFFFFF" font-family="Verdana" font-size="12.5" font-weight="bold" lengthAdjust="spacing" textLength="96.6858" x="688.25" y="766.5913">Key Features:</text><text fill="#FFFFFF" font-family="Verdana" font-size="12.5" lengthAdjust="spacing" textLength="155.2124" x="688.25" y="781.783">- Automatic optimization</text><text fill="#FFFFFF" font-family="Verdana" font-size="12.5" lengthAdjust="spacing" textLength="104.8584" x="688.25" y="796.9746">- Error resilience</text><text fill="#FFFFFF" font-family="Verdana" font-size="12.5" lengthAdjust="spacing" textLength="144.4397" x="688.25" y="812.1663">- Performance tracking</text><text fill="#FFFFFF" font-family="Verdana" font-size="12.5" lengthAdjust="spacing" textLength="130.5725" x="688.25" y="827.3579">- State management</text></g><g class="entity" data-entity="GMN19" data-source-line="112" data-uid="ent0020" id="entity_GMN19"><path d="M97.4271,197.0763 L97.4271,255.1513 A4.1667,4.1667 0 0 0 101.5938,259.318 L307.9373,259.318 A4.1667,4.1667 0 0 0 312.104,255.1513 L312.104,230.2743 L347.6563,226.1076 L312.104,221.9409 L312.104,203.3263 L301.6873,192.9097 L101.5938,192.9097 A4.1667,4.1667 0 0 0 97.4271,197.0763" fill="#0073BB" style="stroke:#005C96;stroke-width:1.0417;"/><path d="M301.6873,192.9097 L301.6873,201.243 A2.0833,2.0833 0 0 0 303.7707,203.3263 L312.104,203.3263 L301.6873,192.9097" fill="#0073BB" style="stroke:#005C96;stroke-width:1.0417;"/><text fill="#FFFFFF" font-family="Verdana" font-size="12.5" font-weight="bold" lengthAdjust="spacing" textLength="182.3853" x="108.8854" y="215.8935">Implementation Example:</text><text fill="#FFFFFF" font-family="Verdana" font-size="12.5" lengthAdjust="spacing" textLength="174.7437" x="108.8854" y="231.0851">Converts strings to integers</text><text fill="#FFFFFF" font-family="Verdana" font-size="12.5" lengthAdjust="spacing" textLength="171.3684" x="108.8854" y="246.2768">with validation and caching</text></g><!--link Generic_Stage<Input, Output, Config, State> to Pipeline_Stage_Interface--><g class="link" data-entity-1="Generic_Stage.Input. Output. Config. State." data-entity-2="Pipeline_Stage_Interface" data-source-line="91" data-uid="lnk10" id="link_Generic_Stage.Input. Output. Config. State._Pipeline_Stage_Interface"><path codeLine="91" d="M333.1458,982.9826 C285.4271,1053.6388 246.2132,1111.7154 209.1924,1166.5279" fill="none" id="Generic_Stage&lt;Input, Output, Config, State&gt;-to-Pipeline_Stage_Interface" style="stroke:#EC7211;stroke-width:3.125;stroke-dasharray:7.2917,7.2917;"/><polygon fill="none" points="198.6979,1182.0659,214.3717,1170.0261,204.0131,1163.0298,198.6979,1182.0659" style="stroke:#EC7211;stroke-width:3.125;"/><text fill="#4E5D6C" font-family="Verdana" font-size="12.5" lengthAdjust="spacing" textLength="73.2056" x="268.5313" y="1106.5393">implements</text></g><!--link Generic_Stage<Input, Output, Config, State> to Stage_Statistics--><g class="link" data-entity-1="Generic_Stage.Input. Output. Config. State." data-entity-2="Stage_Statistics" data-source-line="92" data-uid="lnk11" id="link_Generic_Stage.Input. Output. Config. State._Stage_Statistics"><path codeLine="92" d="M438.7083,1056.8368 C433.7188,1087.9618 429.8756,1111.999 425.4798,1139.3949" fill="none" id="Generic_Stage&lt;Input, Output, Config, State&gt;-to-Stage_Statistics" style="stroke:#EC7211;stroke-width:3.125;"/><polygon fill="#EC7211" points="424.4896,1145.5659,430.0889,1136.9694,425.3147,1140.4234,421.8608,1135.6492,424.4896,1145.5659" style="stroke:#EC7211;stroke-width:3.125;"/><text fill="#4E5D6C" font-family="Verdana" font-size="12.5" lengthAdjust="spacing" textLength="56.8787" x="439.9792" y="1106.5393">produces</text></g><!--link Generic_Stage<Input, Output, Config, State> to Batch_Result--><g class="link" data-entity-1="Generic_Stage.Input. Output. Config. State." data-entity-2="Batch_Result" data-source-line="93" data-uid="lnk12" id="link_Generic_Stage.Input. Output. Config. State._Batch_Result"><path codeLine="93" d="M568.4479,1056.8368 C580.8125,1102.7013 591.0291,1140.5523 600.6854,1176.3648" fill="none" id="Generic_Stage&lt;Input, Output, Config, State&gt;-to-Batch_Result" style="stroke:#EC7211;stroke-width:3.125;"/><polygon fill="#EC7211" points="602.3125,1182.3993,603.8948,1172.2628,600.9566,1177.3705,595.8489,1174.4323,602.3125,1182.3993" style="stroke:#EC7211;stroke-width:3.125;"/><text fill="#4E5D6C" font-family="Verdana" font-size="12.5" lengthAdjust="spacing" textLength="45.3735" x="587.0313" y="1106.5393">returns</text></g><!--link Generic_Stage<Input, Output, Config, State> to Processing_Mode--><g class="link" data-entity-1="Generic_Stage.Input. Output. Config. State." data-entity-2="Processing_Mode" data-source-line="94" data-uid="lnk13" id="link_Generic_Stage.Input. Output. Config. State._Processing_Mode"><path codeLine="94" d="M641.0313,1029.8472 C646.9688,1038.8993 652.9375,1047.7951 658.9271,1056.4722 C688.2604,1098.9618 701.3229,1105.1909 732.8854,1146.0555 C748.0625,1165.7013 760.4469,1182.4798 774.6448,1202.2402" fill="none" id="Generic_Stage&lt;Input, Output, Config, State&gt;-to-Processing_Mode" style="stroke:#EC7211;stroke-width:3.125;"/><polygon fill="#EC7211" points="778.2917,1207.3159,776.2051,1197.2711,775.2526,1203.0862,769.4375,1202.1336,778.2917,1207.3159" style="stroke:#EC7211;stroke-width:3.125;"/><text fill="#4E5D6C" font-family="Verdana" font-size="12.5" lengthAdjust="spacing" textLength="28.3813" x="711.9896" y="1106.5393">uses</text></g><!--link Batch_Result to Stage_Error--><g class="link" data-entity-1="Batch_Result" data-entity-2="Stage_Error" data-source-line="95" data-uid="lnk14" id="link_Batch_Result_Stage_Error"><path codeLine="95" d="M625.5938,1357.1284 C625.5938,1396.5451 625.5938,1436.8784 625.5938,1476.3368" fill="none" id="Batch_Result-to-Stage_Error" style="stroke:#EC7211;stroke-width:3.125;"/><polygon fill="#EC7211" points="625.5938,1482.5868,629.7604,1473.2118,625.5938,1477.3784,621.4271,1473.2118,625.5938,1482.5868" style="stroke:#EC7211;stroke-width:3.125;"/><text fill="#4E5D6C" font-family="Verdana" font-size="12.5" lengthAdjust="spacing" textLength="52.2949" x="631.8438" y="1443.5497">contains</text></g><!--link Example_Transform_Stage to Generic_Stage<Input, Output, Config, State>--><g class="link" data-entity-1="Example_Transform_Stage" data-entity-2="Generic_Stage.Input. Output. Config. State." data-source-line="96" data-uid="lnk15" id="link_Example_Transform_Stage_Generic_Stage.Input. Output. Config. State."><path codeLine="96" d="M487.0521,362.2222 C487.0521,390.0659 487.0521,401.6909 487.0521,432.7951" fill="none" id="Example_Transform_Stage-to-Generic_Stage&lt;Input, Output, Config, State&gt;" style="stroke:#EC7211;stroke-width:3.125;"/><polygon fill="none" points="487.0521,451.5451,493.3021,432.7951,480.8021,432.7951,487.0521,451.5451" style="stroke:#EC7211;stroke-width:3.125;"/><text fill="#4E5D6C" font-family="Verdana" font-size="12.5" lengthAdjust="spacing" textLength="72.9431" x="493.3021" y="412.0706">instantiates</text></g><!--SRC=[dLRTRnev47_dhvYcBoG4TDVUGnJba0XXAzGsYO3UqqahPtS0gxisPtlpqLx_zuxjNHl8KYLzOfaPp_pcDn_s6xF64e4zwBvKJAomOxWf43wWGCKpkEKRBBX0c1ksGhX2pLVYNp7AsSRmUuHRfbXHO06tIcQeDHUhJkTDZajxPdgzcCoIqNYIZcy-tSpWxUGi-Iiv2_hnfz5ytkYI97atYRhHvNmn6uqNGVr7SaRg3XS6rP9b24SDjjHXIwUDvWWkBlP23uVmlGFGQs1sfs9JcMCuXndggZ0NDvKXmIbCb99gw4olMObTQp8togPbPLETpf3bJqv-AMM1J3W5kK7JFUxyw7JOdJQAPGQoWcaDHpML7kM52tmAJRon54k-EhNq6XnQvBk9ry3x3iqsbdvzb6J-8rqyRT0fd2zdIxzHJDYdWXlE2luDyntyf3HOwhHcnsclcQcejaxhMD7fM5R2xAaMqh0YNN27xeh4XallyZCNxNBss2RlEnx72WbqrwTaITujSdiDVVrz9RSjqajcihMtqwvYzl-suGSqrh7Xsl1CTwEpA7HsNpQvvT8nsht61_zrtE3-tjJyHmXj2UtMnVR6vDjNVVT0h4djFkRk_kzPw_GVCivhs-0vrdBBUCn46l3GPpshRQTS6cy3-Zd-Lw6mkBgkC-Aaw1sxuBBLwWff8ajRlBWTqiyozsDbF-oyr6EopxkTXQq54IRuLvtQQ1F6YsUgGvtQWz4zAXkyJTVUnRq3NKnHrafMgpMLcJH98PdPod6x_mxbLnCOg4n7Ih4dfvfNcMFz-Hps_8YsQjhp9b0egfAsw6vfZXoCM7_wqnIPFfkz7u_xilde7xd8_NdNeovGNGlh9WOACh-Yt6dwvpk_HbXBznl4IGznPm644OwOVC4ejht2TlQvjzpVhRwDQ6HoVDmYCqAPFB9oKr33q9MfbrALVZkrmt9BmArX-7iOW_XT4EJszbfXP24eOWol2AmzDsZsHRrBNxQAUY_PGBqNB9xUo_SDCVcwQt4m-7_ugml_7BWjI4azgr_fkjyVFjlvv6-ZP5vH9h_XRNlAoPD2QX_nEuxsHfDyLPeGxVYFy5s_aqqcXM7S1ZpOfls-fVDLU8XXeGspEy4GXewGzCPGVBKs89UlyqMzSd8INv0XoVEJ4rBzEQ2RWJgISja45HXQNwHyDu3v0wVqmKZOD6zFleGxYh_acLzOxmUGa0RkMFRL6kgmpK0AGFUO8JE7uoC-GO9smb5x07qOLKQMr0iPIC9Oyc_nyU999bjUS1IPVrdTKXiIkup-WxrwlpPFDFyI8mMHOdkJTcOEbhcQlmANdhv3bN8GfqrhEnXGstgmH2rTNdHTQBTNj4sN-rLYKoIkrd0VbZ4mYf-nR6q11Ym_0G00]--></g></svg>