<svg xmlns="http://www.w3.org/2000/svg" xmlns:xlink="http://www.w3.org/1999/xlink" contentStyleType="text/css" data-diagram-type="ACTIVITY" height="1395px" preserveAspectRatio="none" style="width:1167px;height:1395px;background:#FFFFFF;" version="1.1" viewBox="0 0 1167 1395" width="1167px" zoomAndPan="magnify"><defs/><g><ellipse cx="607.951" cy="15" fill="#FFFFFF" rx="10" ry="10" style="stroke:#000000;stroke-width:1;"/><rect fill="#ADD8E6" height="44.3066" rx="12.5" ry="12.5" style="stroke:#000000;stroke-width:1;" width="137.4072" x="539.2474" y="45"/><text fill="#000000" font-family="Verdana" font-size="10" lengthAdjust="spacing" textLength="117.4072" x="549.2474" y="65.0537">Initialize Pipeline Stage</text><text fill="#000000" font-family="Verdana" font-size="10" lengthAdjust="spacing" textLength="108.8574" x="549.2474" y="77.207">with Config and State</text><rect fill="#ADD8E6" height="32.1533" rx="12.5" ry="12.5" style="stroke:#000000;stroke-width:1;" width="103.54" x="556.181" y="109.3066"/><text fill="#000000" font-family="Verdana" font-size="10" lengthAdjust="spacing" textLength="83.54" x="566.181" y="129.3604">Receive Input(s)</text><polygon fill="#ADD8E6" points="577.6678,161.46,638.2343,161.46,650.2343,173.46,638.2343,185.46,577.6678,185.46,565.6678,173.46,577.6678,161.46" style="stroke:#000000;stroke-width:1;"/><text fill="#000000" font-family="Verdana" font-size="10" lengthAdjust="spacing" textLength="60.5664" x="577.6678" y="177.437">Input Valid?</text><text fill="#000000" font-family="Verdana" font-size="11" lengthAdjust="spacing" textLength="18.7935" x="546.8744" y="171.1504">yes</text><text fill="#000000" font-family="Verdana" font-size="11" lengthAdjust="spacing" textLength="13.6372" x="650.2343" y="171.1504">no</text><rect fill="#ADD8E6" height="32.1533" rx="12.5" ry="12.5" style="stroke:#000000;stroke-width:1;" width="109.4336" x="481.9635" y="195.46"/><text fill="#000000" font-family="Verdana" font-size="10" lengthAdjust="spacing" textLength="89.4336" x="491.9635" y="215.5137">Get Current State</text><rect fill="#ADD8E6" height="32.1533" rx="12.5" ry="12.5" style="stroke:#000000;stroke-width:1;" width="133.7988" x="612.3224" y="195.46"/><text fill="#000000" font-family="Verdana" font-size="10" lengthAdjust="spacing" textLength="113.7988" x="622.3224" y="215.5137">Increment Error Count</text><rect fill="#ADD8E6" height="32.1533" rx="12.5" ry="12.5" style="stroke:#000000;stroke-width:1;" width="135.6494" x="611.3971" y="247.6133"/><text fill="#000000" font-family="Verdana" font-size="10" lengthAdjust="spacing" textLength="115.6494" x="621.3971" y="267.667">Return Validation Error</text><ellipse cx="679.2218" cy="310.7666" fill="none" rx="11" ry="11" style="stroke:#000000;stroke-width:1;"/><ellipse cx="679.2218" cy="310.7666" fill="#FFFFFF" rx="6" ry="6" style="stroke:#000000;stroke-width:1;"/><rect fill="#ADD8E6" height="32.1533" rx="12.5" ry="12.5" style="stroke:#000000;stroke-width:1;" width="111.2988" x="552.3016" y="341.7666"/><text fill="#000000" font-family="Verdana" font-size="10" lengthAdjust="spacing" textLength="91.2988" x="562.3016" y="361.8203">Record Start Time</text><polygon fill="#ADD8E6" points="563.4955,393.9199,652.4066,393.9199,664.4066,405.9199,652.4066,417.9199,563.4955,417.9199,551.4955,405.9199,563.4955,393.9199" style="stroke:#000000;stroke-width:1;"/><text fill="#000000" font-family="Verdana" font-size="10" lengthAdjust="spacing" textLength="88.9111" x="563.4955" y="409.897">Processing Mode?</text><text fill="#000000" font-family="Verdana" font-size="11" lengthAdjust="spacing" textLength="64.0073" x="487.4882" y="403.6104">Single Item</text><text fill="#000000" font-family="Verdana" font-size="11" lengthAdjust="spacing" textLength="93.6235" x="664.4066" y="403.6104">Batch Processing</text><rect fill="#ADD8E6" height="32.1533" rx="12.5" ry="12.5" style="stroke:#000000;stroke-width:1;" width="182.9736" x="202.4807" y="427.9199"/><text fill="#000000" font-family="Verdana" font-size="10" lengthAdjust="spacing" textLength="162.9736" x="212.4807" y="447.9736">Apply Process_Element Function</text><polygon fill="#ADD8E6" points="236.5798,480.0732,351.3552,480.0732,363.3552,492.0732,351.3552,504.0732,236.5798,504.0732,224.5798,492.0732,236.5798,480.0732" style="stroke:#000000;stroke-width:1;"/><text fill="#000000" font-family="Verdana" font-size="10" lengthAdjust="spacing" textLength="114.7754" x="236.5798" y="496.0503">Processing Successful?</text><text fill="#000000" font-family="Verdana" font-size="11" lengthAdjust="spacing" textLength="18.7935" x="205.7864" y="489.7637">yes</text><text fill="#000000" font-family="Verdana" font-size="11" lengthAdjust="spacing" textLength="13.6372" x="363.3552" y="489.7637">no</text><rect fill="#ADD8E6" height="32.1533" rx="12.5" ry="12.5" style="stroke:#000000;stroke-width:1;" width="98.6182" x="119.208" y="514.0732"/><text fill="#000000" font-family="Verdana" font-size="10" lengthAdjust="spacing" textLength="78.6182" x="129.208" y="534.127">Validate Output</text><polygon fill="#ADD8E6" points="134.4326,581.2266,202.6016,581.2266,214.6016,593.2266,202.6016,605.2266,134.4326,605.2266,122.4326,593.2266,134.4326,581.2266" style="stroke:#000000;stroke-width:1;"/><text fill="#000000" font-family="Verdana" font-size="10" lengthAdjust="spacing" textLength="68.1689" x="134.4326" y="597.2036">Output Valid?</text><text fill="#000000" font-family="Verdana" font-size="11" lengthAdjust="spacing" textLength="18.7935" x="103.6392" y="590.917">yes</text><text fill="#000000" font-family="Verdana" font-size="11" lengthAdjust="spacing" textLength="13.6372" x="214.6016" y="590.917">no</text><rect fill="#ADD8E6" height="32.1533" rx="12.5" ry="12.5" style="stroke:#000000;stroke-width:1;" width="85.8789" x="42.1304" y="615.2266"/><text fill="#000000" font-family="Verdana" font-size="10" lengthAdjust="spacing" textLength="65.8789" x="52.1304" y="635.2803">Update State</text><rect fill="#ADD8E6" height="32.1533" rx="12.5" ry="12.5" style="stroke:#000000;stroke-width:1;" width="158.1396" x="6" y="682.3799"/><text fill="#000000" font-family="Verdana" font-size="10" lengthAdjust="spacing" textLength="138.1396" x="16" y="702.4336">Increment Items Processed</text><rect fill="#ADD8E6" height="32.1533" rx="12.5" ry="12.5" style="stroke:#000000;stroke-width:1;" width="139.5654" x="15.2871" y="749.5332"/><text fill="#000000" font-family="Verdana" font-size="10" lengthAdjust="spacing" textLength="119.5654" x="25.2871" y="769.5869">Record Processing Time</text><rect fill="#ADD8E6" height="32.1533" rx="12.5" ry="12.5" style="stroke:#000000;stroke-width:1;" width="114.7998" x="27.6699" y="807.3799"/><text fill="#000000" font-family="Verdana" font-size="10" lengthAdjust="spacing" textLength="94.7998" x="37.6699" y="827.4336">Return Ok(Output)</text><rect fill="#ADD8E6" height="32.1533" rx="12.5" ry="12.5" style="stroke:#000000;stroke-width:1;" width="133.7988" x="185.0649" y="615.2266"/><text fill="#000000" font-family="Verdana" font-size="10" lengthAdjust="spacing" textLength="113.7988" x="195.0649" y="635.2803">Increment Error Count</text><rect fill="#ADD8E6" height="32.1533" rx="12.5" ry="12.5" style="stroke:#000000;stroke-width:1;" width="135.6494" x="184.1396" y="682.3799"/><text fill="#000000" font-family="Verdana" font-size="10" lengthAdjust="spacing" textLength="115.6494" x="194.1396" y="702.4336">Return Validation Error</text><polygon fill="#ADD8E6" points="168.5171,845.5332,180.5171,857.5332,168.5171,869.5332,156.5171,857.5332,168.5171,845.5332" style="stroke:#000000;stroke-width:1;"/><rect fill="#ADD8E6" height="32.1533" rx="12.5" ry="12.5" style="stroke:#000000;stroke-width:1;" width="133.7988" x="352.5186" y="514.0732"/><text fill="#000000" font-family="Verdana" font-size="10" lengthAdjust="spacing" textLength="113.7988" x="362.5186" y="534.127">Increment Error Count</text><rect fill="#ADD8E6" height="32.1533" rx="12.5" ry="12.5" style="stroke:#000000;stroke-width:1;" width="139.2578" x="349.7891" y="581.2266"/><text fill="#000000" font-family="Verdana" font-size="10" lengthAdjust="spacing" textLength="119.2578" x="359.7891" y="601.2803">Return Processing Error</text><polygon fill="#ADD8E6" points="293.9675,875.5332,305.9675,887.5332,293.9675,899.5332,281.9675,887.5332,293.9675,875.5332" style="stroke:#000000;stroke-width:1;"/><rect fill="#ADD8E6" height="32.1533" rx="12.5" ry="12.5" style="stroke:#000000;stroke-width:1;" width="133.3398" x="855.2646" y="427.9199"/><text fill="#000000" font-family="Verdana" font-size="10" lengthAdjust="spacing" textLength="113.3398" x="865.2646" y="447.9736">Initialize Result Arrays</text><polygon fill="#ADD8E6" points="885.8579,480.0732,958.0112,480.0732,970.0112,492.0732,958.0112,504.0732,885.8579,504.0732,873.8579,492.0732,885.8579,480.0732" style="stroke:#000000;stroke-width:1;"/><text fill="#000000" font-family="Verdana" font-size="10" lengthAdjust="spacing" textLength="72.1533" x="885.8579" y="496.0503">Parallel Mode?</text><text fill="#000000" font-family="Verdana" font-size="11" lengthAdjust="spacing" textLength="18.7935" x="855.0645" y="489.7637">yes</text><text fill="#000000" font-family="Verdana" font-size="11" lengthAdjust="spacing" textLength="13.6372" x="970.0112" y="489.7637">no</text><rect fill="#000000" height="6" rx="2.5" ry="2.5" style="stroke:#000000;stroke-width:1;" width="473.1455" x="529.0469" y="514.0732"/><rect fill="#ADD8E6" height="32.1533" rx="12.5" ry="12.5" style="stroke:#000000;stroke-width:1;" width="129.3408" x="543.0469" y="540.0732"/><text fill="#000000" font-family="Verdana" font-size="10" lengthAdjust="spacing" textLength="109.3408" x="553.0469" y="560.127">Process Item Group 1</text><rect fill="#ADD8E6" height="32.1533" rx="12.5" ry="12.5" style="stroke:#000000;stroke-width:1;" width="129.3408" x="700.3877" y="540.0732"/><text fill="#000000" font-family="Verdana" font-size="10" lengthAdjust="spacing" textLength="109.3408" x="710.3877" y="560.127">Process Item Group 2</text><rect fill="#ADD8E6" height="32.1533" rx="12.5" ry="12.5" style="stroke:#000000;stroke-width:1;" width="130.4639" x="857.7285" y="540.0732"/><text fill="#000000" font-family="Verdana" font-size="10" lengthAdjust="spacing" textLength="110.4639" x="867.7285" y="560.127">Process Item Group N</text><rect fill="#000000" height="6" rx="2.5" ry="2.5" style="stroke:#000000;stroke-width:1;" width="473.1455" x="529.0469" y="592.2266"/><rect fill="#ADD8E6" height="32.1533" rx="12.5" ry="12.5" style="stroke:#000000;stroke-width:1;" width="112.1143" x="1022.1924" y="586.0732"/><text fill="#000000" font-family="Verdana" font-size="10" lengthAdjust="spacing" textLength="92.1143" x="1032.1924" y="606.127">Process Next Item</text><rect fill="#ADD8E6" height="32.1533" rx="12.5" ry="12.5" style="stroke:#000000;stroke-width:1;" width="81.7188" x="1037.3901" y="653.2266"/><text fill="#000000" font-family="Verdana" font-size="10" lengthAdjust="spacing" textLength="61.7188" x="1047.3901" y="673.2803">Store Result</text><polygon fill="#ADD8E6" points="1078.2495,514.0732,1090.2495,526.0732,1078.2495,538.0732,1066.2495,526.0732,1078.2495,514.0732" style="stroke:#000000;stroke-width:1;"/><polygon fill="#ADD8E6" points="1046.8823,733.3799,1109.6167,733.3799,1121.6167,745.3799,1109.6167,757.3799,1046.8823,757.3799,1034.8823,745.3799,1046.8823,733.3799" style="stroke:#000000;stroke-width:1;"/><text fill="#000000" font-family="Verdana" font-size="10" lengthAdjust="spacing" textLength="62.7344" x="1046.8823" y="749.3569">More Items?</text><polygon fill="#ADD8E6" points="921.9346,763.3799,933.9346,775.3799,921.9346,787.3799,909.9346,775.3799,921.9346,763.3799" style="stroke:#000000;stroke-width:1;"/><rect fill="#ADD8E6" height="32.1533" rx="12.5" ry="12.5" style="stroke:#000000;stroke-width:1;" width="109.3457" x="867.2617" y="813.0732"/><text fill="#000000" font-family="Verdana" font-size="10" lengthAdjust="spacing" textLength="89.3457" x="877.2617" y="833.127">Collect All Results</text><rect fill="#ADD8E6" height="32.1533" rx="12.5" ry="12.5" style="stroke:#000000;stroke-width:1;" width="104.9805" x="869.4443" y="880.2266"/><text fill="#000000" font-family="Verdana" font-size="10" lengthAdjust="spacing" textLength="84.9805" x="879.4443" y="900.2803">Update Statistics</text><polygon fill="#ADD8E6" points="882.7646,932.3799,961.1045,932.3799,973.1045,944.3799,961.1045,956.3799,882.7646,956.3799,870.7646,944.3799,882.7646,932.3799" style="stroke:#000000;stroke-width:1;"/><text fill="#000000" font-family="Verdana" font-size="10" lengthAdjust="spacing" textLength="78.3398" x="882.7646" y="948.3569">Fail-Fast Mode?</text><text fill="#000000" font-family="Verdana" font-size="11" lengthAdjust="spacing" textLength="18.7935" x="851.9712" y="942.0703">yes</text><text fill="#000000" font-family="Verdana" font-size="11" lengthAdjust="spacing" textLength="13.6372" x="973.1045" y="942.0703">no</text><polygon fill="#ADD8E6" points="768.4199,966.3799,853.249,966.3799,865.249,978.3799,853.249,990.3799,768.4199,990.3799,756.4199,978.3799,768.4199,966.3799" style="stroke:#000000;stroke-width:1;"/><text fill="#000000" font-family="Verdana" font-size="10" lengthAdjust="spacing" textLength="84.8291" x="768.4199" y="982.3569">Any Item Failed?</text><text fill="#000000" font-family="Verdana" font-size="11" lengthAdjust="spacing" textLength="18.7935" x="737.6265" y="976.0703">yes</text><text fill="#000000" font-family="Verdana" font-size="11" lengthAdjust="spacing" textLength="13.6372" x="865.249" y="976.0703">no</text><rect fill="#ADD8E6" height="32.1533" rx="12.5" ry="12.5" style="stroke:#000000;stroke-width:1;" width="107.9102" x="692.4648" y="1000.3799"/><text fill="#000000" font-family="Verdana" font-size="10" lengthAdjust="spacing" textLength="87.9102" x="702.4648" y="1020.4336">Return First Error</text><ellipse cx="746.4199" cy="1063.5332" fill="none" rx="11" ry="11" style="stroke:#000000;stroke-width:1;"/><ellipse cx="746.4199" cy="1063.5332" fill="#FFFFFF" rx="6" ry="6" style="stroke:#000000;stroke-width:1;"/><rect fill="#ADD8E6" height="32.1533" rx="12.5" ry="12.5" style="stroke:#000000;stroke-width:1;" width="109.4727" x="820.5127" y="1000.3799"/><text fill="#000000" font-family="Verdana" font-size="10" lengthAdjust="spacing" textLength="89.4727" x="830.5127" y="1020.4336">Return All Results</text><rect fill="#ADD8E6" height="44.3066" rx="12.5" ry="12.5" style="stroke:#000000;stroke-width:1;" width="146.0986" x="959.9854" y="966.3799"/><text fill="#000000" font-family="Verdana" font-size="10" lengthAdjust="spacing" textLength="89.4727" x="969.9854" y="986.4336">Return All Results</text><text fill="#000000" font-family="Verdana" font-size="10" lengthAdjust="spacing" textLength="126.0986" x="969.9854" y="998.5869">(Success/Error per Item)</text><polygon fill="#ADD8E6" points="921.9346,1084.5332,933.9346,1096.5332,921.9346,1108.5332,909.9346,1096.5332,921.9346,1084.5332" style="stroke:#000000;stroke-width:1;"/><polygon fill="#ADD8E6" points="607.951,1114.5332,619.951,1126.5332,607.951,1138.5332,595.951,1126.5332,607.951,1114.5332" style="stroke:#000000;stroke-width:1;"/><rect fill="#ADD8E6" height="32.1533" rx="12.5" ry="12.5" style="stroke:#000000;stroke-width:1;" width="135.7666" x="540.0677" y="1158.5332"/><text fill="#000000" font-family="Verdana" font-size="10" lengthAdjust="spacing" textLength="115.7666" x="550.0677" y="1178.5869">Calculate Success Rate</text><rect fill="#ADD8E6" height="32.1533" rx="12.5" ry="12.5" style="stroke:#000000;stroke-width:1;" width="138.7109" x="538.5956" y="1210.6865"/><text fill="#000000" font-family="Verdana" font-size="10" lengthAdjust="spacing" textLength="118.7109" x="548.5956" y="1230.7402">Calculate Average Time</text><rect fill="#ADD8E6" height="32.1533" rx="12.5" ry="12.5" style="stroke:#000000;stroke-width:1;" width="145.1416" x="535.3802" y="1262.8398"/><text fill="#000000" font-family="Verdana" font-size="10" lengthAdjust="spacing" textLength="125.1416" x="545.3802" y="1282.8936">Calculate Min/Max Times</text><rect fill="#ADD8E6" height="32.1533" rx="12.5" ry="12.5" style="stroke:#000000;stroke-width:1;" width="135.5566" x="540.1727" y="1314.9932"/><text fill="#000000" font-family="Verdana" font-size="10" lengthAdjust="spacing" textLength="115.5566" x="550.1727" y="1335.0469">Return Stage Statistics</text><ellipse cx="607.951" cy="1378.1465" fill="none" rx="11" ry="11" style="stroke:#000000;stroke-width:1;"/><ellipse cx="607.951" cy="1378.1465" fill="#FFFFFF" rx="6" ry="6" style="stroke:#000000;stroke-width:1;"/><line style="stroke:#000000;stroke-width:1;" x1="607.951" x2="607.951" y1="25" y2="45"/><polygon fill="#000000" points="603.951,35,607.951,45,611.951,35,607.951,39" style="stroke:#000000;stroke-width:1;"/><line style="stroke:#000000;stroke-width:1;" x1="607.951" x2="607.951" y1="89.3066" y2="109.3066"/><polygon fill="#000000" points="603.951,99.3066,607.951,109.3066,611.951,99.3066,607.951,103.3066" style="stroke:#000000;stroke-width:1;"/><line style="stroke:#000000;stroke-width:1;" x1="679.2218" x2="679.2218" y1="227.6133" y2="247.6133"/><polygon fill="#000000" points="675.2218,237.6133,679.2218,247.6133,683.2218,237.6133,679.2218,241.6133" style="stroke:#000000;stroke-width:1;"/><line style="stroke:#000000;stroke-width:1;" x1="679.2218" x2="679.2218" y1="279.7666" y2="299.7666"/><polygon fill="#000000" points="675.2218,289.7666,679.2218,299.7666,683.2218,289.7666,679.2218,293.7666" style="stroke:#000000;stroke-width:1;"/><line style="stroke:#000000;stroke-width:1;" x1="565.6678" x2="536.6803" y1="173.46" y2="173.46"/><line style="stroke:#000000;stroke-width:1;" x1="536.6803" x2="536.6803" y1="173.46" y2="195.46"/><polygon fill="#000000" points="532.6803,185.46,536.6803,195.46,540.6803,185.46,536.6803,189.46" style="stroke:#000000;stroke-width:1;"/><line style="stroke:#000000;stroke-width:1;" x1="650.2343" x2="679.2218" y1="173.46" y2="173.46"/><line style="stroke:#000000;stroke-width:1;" x1="679.2218" x2="679.2218" y1="173.46" y2="195.46"/><polygon fill="#000000" points="675.2218,185.46,679.2218,195.46,683.2218,185.46,679.2218,189.46" style="stroke:#000000;stroke-width:1;"/><line style="stroke:#000000;stroke-width:1;" x1="536.6803" x2="536.6803" y1="227.6133" y2="326.7666"/><line style="stroke:#000000;stroke-width:1;" x1="536.6803" x2="607.951" y1="326.7666" y2="326.7666"/><line style="stroke:#000000;stroke-width:1;" x1="607.951" x2="607.951" y1="326.7666" y2="341.7666"/><polygon fill="#000000" points="603.951,331.7666,607.951,341.7666,611.951,331.7666,607.951,335.7666" style="stroke:#000000;stroke-width:1;"/><line style="stroke:#000000;stroke-width:1;" x1="607.951" x2="607.951" y1="141.46" y2="161.46"/><polygon fill="#000000" points="603.951,151.46,607.951,161.46,611.951,151.46,607.951,155.46" style="stroke:#000000;stroke-width:1;"/><line style="stroke:#000000;stroke-width:1;" x1="85.0698" x2="85.0698" y1="647.3799" y2="682.3799"/><polygon fill="#000000" points="81.0698,672.3799,85.0698,682.3799,89.0698,672.3799,85.0698,676.3799" style="stroke:#000000;stroke-width:1;"/><line style="stroke:#000000;stroke-width:1;" x1="85.0698" x2="85.0698" y1="714.5332" y2="749.5332"/><polygon fill="#000000" points="81.0698,739.5332,85.0698,749.5332,89.0698,739.5332,85.0698,743.5332" style="stroke:#000000;stroke-width:1;"/><line style="stroke:#000000;stroke-width:1;" x1="85.0698" x2="85.0698" y1="781.6865" y2="807.3799"/><polygon fill="#000000" points="81.0698,797.3799,85.0698,807.3799,89.0698,797.3799,85.0698,801.3799" style="stroke:#000000;stroke-width:1;"/><line style="stroke:#000000;stroke-width:1;" x1="251.9644" x2="251.9644" y1="647.3799" y2="682.3799"/><polygon fill="#000000" points="247.9644,672.3799,251.9644,682.3799,255.9644,672.3799,251.9644,676.3799" style="stroke:#000000;stroke-width:1;"/><line style="stroke:#000000;stroke-width:1;" x1="122.4326" x2="85.0698" y1="593.2266" y2="593.2266"/><line style="stroke:#000000;stroke-width:1;" x1="85.0698" x2="85.0698" y1="593.2266" y2="615.2266"/><polygon fill="#000000" points="81.0698,605.2266,85.0698,615.2266,89.0698,605.2266,85.0698,609.2266" style="stroke:#000000;stroke-width:1;"/><line style="stroke:#000000;stroke-width:1;" x1="214.6016" x2="251.9644" y1="593.2266" y2="593.2266"/><line style="stroke:#000000;stroke-width:1;" x1="251.9644" x2="251.9644" y1="593.2266" y2="615.2266"/><polygon fill="#000000" points="247.9644,605.2266,251.9644,615.2266,255.9644,605.2266,251.9644,609.2266" style="stroke:#000000;stroke-width:1;"/><line style="stroke:#000000;stroke-width:1;" x1="85.0698" x2="85.0698" y1="839.5332" y2="857.5332"/><line style="stroke:#000000;stroke-width:1;" x1="85.0698" x2="156.5171" y1="857.5332" y2="857.5332"/><polygon fill="#000000" points="146.5171,853.5332,156.5171,857.5332,146.5171,861.5332,150.5171,857.5332" style="stroke:#000000;stroke-width:1;"/><line style="stroke:#000000;stroke-width:1;" x1="251.9644" x2="251.9644" y1="714.5332" y2="857.5332"/><line style="stroke:#000000;stroke-width:1;" x1="251.9644" x2="180.5171" y1="857.5332" y2="857.5332"/><polygon fill="#000000" points="190.5171,853.5332,180.5171,857.5332,190.5171,861.5332,186.5171,857.5332" style="stroke:#000000;stroke-width:1;"/><line style="stroke:#000000;stroke-width:1;" x1="168.5171" x2="168.5171" y1="546.2266" y2="581.2266"/><polygon fill="#000000" points="164.5171,571.2266,168.5171,581.2266,172.5171,571.2266,168.5171,575.2266" style="stroke:#000000;stroke-width:1;"/><line style="stroke:#000000;stroke-width:1;" x1="419.418" x2="419.418" y1="546.2266" y2="581.2266"/><polygon fill="#000000" points="415.418,571.2266,419.418,581.2266,423.418,571.2266,419.418,575.2266" style="stroke:#000000;stroke-width:1;"/><line style="stroke:#000000;stroke-width:1;" x1="224.5798" x2="168.5171" y1="492.0732" y2="492.0732"/><line style="stroke:#000000;stroke-width:1;" x1="168.5171" x2="168.5171" y1="492.0732" y2="514.0732"/><polygon fill="#000000" points="164.5171,504.0732,168.5171,514.0732,172.5171,504.0732,168.5171,508.0732" style="stroke:#000000;stroke-width:1;"/><line style="stroke:#000000;stroke-width:1;" x1="363.3552" x2="419.418" y1="492.0732" y2="492.0732"/><line style="stroke:#000000;stroke-width:1;" x1="419.418" x2="419.418" y1="492.0732" y2="514.0732"/><polygon fill="#000000" points="415.418,504.0732,419.418,514.0732,423.418,504.0732,419.418,508.0732" style="stroke:#000000;stroke-width:1;"/><line style="stroke:#000000;stroke-width:1;" x1="168.5171" x2="168.5171" y1="869.5332" y2="887.5332"/><line style="stroke:#000000;stroke-width:1;" x1="168.5171" x2="281.9675" y1="887.5332" y2="887.5332"/><polygon fill="#000000" points="271.9675,883.5332,281.9675,887.5332,271.9675,891.5332,275.9675,887.5332" style="stroke:#000000;stroke-width:1;"/><line style="stroke:#000000;stroke-width:1;" x1="419.418" x2="419.418" y1="613.3799" y2="887.5332"/><line style="stroke:#000000;stroke-width:1;" x1="419.418" x2="305.9675" y1="887.5332" y2="887.5332"/><polygon fill="#000000" points="315.9675,883.5332,305.9675,887.5332,315.9675,891.5332,311.9675,887.5332" style="stroke:#000000;stroke-width:1;"/><line style="stroke:#000000;stroke-width:1;" x1="293.9675" x2="293.9675" y1="460.0732" y2="480.0732"/><polygon fill="#000000" points="289.9675,470.0732,293.9675,480.0732,297.9675,470.0732,293.9675,474.0732" style="stroke:#000000;stroke-width:1;"/><line style="stroke:#000000;stroke-width:1;" x1="607.7173" x2="607.7173" y1="520.0732" y2="540.0732"/><polygon fill="#000000" points="603.7173,530.0732,607.7173,540.0732,611.7173,530.0732,607.7173,534.0732" style="stroke:#000000;stroke-width:1;"/><line style="stroke:#000000;stroke-width:1;" x1="765.0581" x2="765.0581" y1="520.0732" y2="540.0732"/><polygon fill="#000000" points="761.0581,530.0732,765.0581,540.0732,769.0581,530.0732,765.0581,534.0732" style="stroke:#000000;stroke-width:1;"/><line style="stroke:#000000;stroke-width:1;" x1="922.9604" x2="922.9604" y1="520.0732" y2="540.0732"/><polygon fill="#000000" points="918.9604,530.0732,922.9604,540.0732,926.9604,530.0732,922.9604,534.0732" style="stroke:#000000;stroke-width:1;"/><line style="stroke:#000000;stroke-width:1;" x1="607.7173" x2="607.7173" y1="572.2266" y2="592.2266"/><polygon fill="#000000" points="603.7173,582.2266,607.7173,592.2266,611.7173,582.2266,607.7173,586.2266" style="stroke:#000000;stroke-width:1;"/><line style="stroke:#000000;stroke-width:1;" x1="765.0581" x2="765.0581" y1="572.2266" y2="592.2266"/><polygon fill="#000000" points="761.0581,582.2266,765.0581,592.2266,769.0581,582.2266,765.0581,586.2266" style="stroke:#000000;stroke-width:1;"/><line style="stroke:#000000;stroke-width:1;" x1="922.9604" x2="922.9604" y1="572.2266" y2="592.2266"/><polygon fill="#000000" points="918.9604,582.2266,922.9604,592.2266,926.9604,582.2266,922.9604,586.2266" style="stroke:#000000;stroke-width:1;"/><line style="stroke:#000000;stroke-width:1;" x1="1078.2495" x2="1078.2495" y1="618.2266" y2="653.2266"/><polygon fill="#000000" points="1074.2495,643.2266,1078.2495,653.2266,1082.2495,643.2266,1078.2495,647.2266" style="stroke:#000000;stroke-width:1;"/><line style="stroke:#000000;stroke-width:1;" x1="1078.2495" x2="1078.2495" y1="538.0732" y2="586.0732"/><polygon fill="#000000" points="1074.2495,576.0732,1078.2495,586.0732,1082.2495,576.0732,1078.2495,580.0732" style="stroke:#000000;stroke-width:1;"/><line style="stroke:#000000;stroke-width:1;" x1="1121.6167" x2="1146.3066" y1="745.3799" y2="745.3799"/><polygon fill="#000000" points="1142.3066,645.7266,1146.3066,635.7266,1150.3066,645.7266,1146.3066,641.7266" style="stroke:#000000;stroke-width:1;"/><line style="stroke:#000000;stroke-width:1;" x1="1146.3066" x2="1146.3066" y1="526.0732" y2="745.3799"/><line style="stroke:#000000;stroke-width:1;" x1="1146.3066" x2="1090.2495" y1="526.0732" y2="526.0732"/><polygon fill="#000000" points="1100.2495,522.0732,1090.2495,526.0732,1100.2495,530.0732,1096.2495,526.0732" style="stroke:#000000;stroke-width:1;"/><line style="stroke:#000000;stroke-width:1;" x1="1078.2495" x2="1078.2495" y1="685.3799" y2="733.3799"/><polygon fill="#000000" points="1074.2495,723.3799,1078.2495,733.3799,1082.2495,723.3799,1078.2495,727.3799" style="stroke:#000000;stroke-width:1;"/><line style="stroke:#000000;stroke-width:1;" x1="873.8579" x2="765.6196" y1="492.0732" y2="492.0732"/><line style="stroke:#000000;stroke-width:1;" x1="765.6196" x2="765.6196" y1="492.0732" y2="514.0732"/><polygon fill="#000000" points="761.6196,504.0732,765.6196,514.0732,769.6196,504.0732,765.6196,508.0732" style="stroke:#000000;stroke-width:1;"/><line style="stroke:#000000;stroke-width:1;" x1="970.0112" x2="1078.2495" y1="492.0732" y2="492.0732"/><line style="stroke:#000000;stroke-width:1;" x1="1078.2495" x2="1078.2495" y1="492.0732" y2="514.0732"/><polygon fill="#000000" points="1074.2495,504.0732,1078.2495,514.0732,1082.2495,504.0732,1078.2495,508.0732" style="stroke:#000000;stroke-width:1;"/><line style="stroke:#000000;stroke-width:1;" x1="765.6196" x2="765.6196" y1="598.2266" y2="775.3799"/><line style="stroke:#000000;stroke-width:1;" x1="765.6196" x2="909.9346" y1="775.3799" y2="775.3799"/><polygon fill="#000000" points="899.9346,771.3799,909.9346,775.3799,899.9346,779.3799,903.9346,775.3799" style="stroke:#000000;stroke-width:1;"/><line style="stroke:#000000;stroke-width:1;" x1="1078.2495" x2="1078.2495" y1="757.3799" y2="775.3799"/><line style="stroke:#000000;stroke-width:1;" x1="1078.2495" x2="933.9346" y1="775.3799" y2="775.3799"/><polygon fill="#000000" points="943.9346,771.3799,933.9346,775.3799,943.9346,779.3799,939.9346,775.3799" style="stroke:#000000;stroke-width:1;"/><line style="stroke:#000000;stroke-width:1;" x1="921.9346" x2="921.9346" y1="460.0732" y2="480.0732"/><polygon fill="#000000" points="917.9346,470.0732,921.9346,480.0732,925.9346,470.0732,921.9346,474.0732" style="stroke:#000000;stroke-width:1;"/><line style="stroke:#000000;stroke-width:1;" x1="921.9346" x2="921.9346" y1="787.3799" y2="813.0732"/><polygon fill="#000000" points="917.9346,803.0732,921.9346,813.0732,925.9346,803.0732,921.9346,807.0732" style="stroke:#000000;stroke-width:1;"/><line style="stroke:#000000;stroke-width:1;" x1="921.9346" x2="921.9346" y1="845.2266" y2="880.2266"/><polygon fill="#000000" points="917.9346,870.2266,921.9346,880.2266,925.9346,870.2266,921.9346,874.2266" style="stroke:#000000;stroke-width:1;"/><line style="stroke:#000000;stroke-width:1;" x1="746.4199" x2="746.4199" y1="1032.5332" y2="1052.5332"/><polygon fill="#000000" points="742.4199,1042.5332,746.4199,1052.5332,750.4199,1042.5332,746.4199,1046.5332" style="stroke:#000000;stroke-width:1;"/><line style="stroke:#000000;stroke-width:1;" x1="756.4199" x2="746.4199" y1="978.3799" y2="978.3799"/><line style="stroke:#000000;stroke-width:1;" x1="746.4199" x2="746.4199" y1="978.3799" y2="1000.3799"/><polygon fill="#000000" points="742.4199,990.3799,746.4199,1000.3799,750.4199,990.3799,746.4199,994.3799" style="stroke:#000000;stroke-width:1;"/><line style="stroke:#000000;stroke-width:1;" x1="865.249" x2="875.249" y1="978.3799" y2="978.3799"/><line style="stroke:#000000;stroke-width:1;" x1="875.249" x2="875.249" y1="978.3799" y2="1000.3799"/><polygon fill="#000000" points="871.249,990.3799,875.249,1000.3799,879.249,990.3799,875.249,994.3799" style="stroke:#000000;stroke-width:1;"/><line style="stroke:#000000;stroke-width:1;" x1="875.249" x2="875.249" y1="1032.5332" y2="1096.5332"/><line style="stroke:#000000;stroke-width:1;" x1="875.249" x2="909.9346" y1="1096.5332" y2="1096.5332"/><polygon fill="#000000" points="899.9346,1092.5332,909.9346,1096.5332,899.9346,1100.5332,903.9346,1096.5332" style="stroke:#000000;stroke-width:1;"/><line style="stroke:#000000;stroke-width:1;" x1="870.7646" x2="810.8345" y1="944.3799" y2="944.3799"/><line style="stroke:#000000;stroke-width:1;" x1="810.8345" x2="810.8345" y1="944.3799" y2="966.3799"/><polygon fill="#000000" points="806.8345,956.3799,810.8345,966.3799,814.8345,956.3799,810.8345,960.3799" style="stroke:#000000;stroke-width:1;"/><line style="stroke:#000000;stroke-width:1;" x1="973.1045" x2="1033.0347" y1="944.3799" y2="944.3799"/><line style="stroke:#000000;stroke-width:1;" x1="1033.0347" x2="1033.0347" y1="944.3799" y2="966.3799"/><polygon fill="#000000" points="1029.0347,956.3799,1033.0347,966.3799,1037.0347,956.3799,1033.0347,960.3799" style="stroke:#000000;stroke-width:1;"/><line style="stroke:#000000;stroke-width:1;" x1="1033.0347" x2="1033.0347" y1="1010.6865" y2="1096.5332"/><line style="stroke:#000000;stroke-width:1;" x1="1033.0347" x2="933.9346" y1="1096.5332" y2="1096.5332"/><polygon fill="#000000" points="943.9346,1092.5332,933.9346,1096.5332,943.9346,1100.5332,939.9346,1096.5332" style="stroke:#000000;stroke-width:1;"/><line style="stroke:#000000;stroke-width:1;" x1="921.9346" x2="921.9346" y1="912.3799" y2="932.3799"/><polygon fill="#000000" points="917.9346,922.3799,921.9346,932.3799,925.9346,922.3799,921.9346,926.3799" style="stroke:#000000;stroke-width:1;"/><line style="stroke:#000000;stroke-width:1;" x1="551.4955" x2="293.9675" y1="405.9199" y2="405.9199"/><line style="stroke:#000000;stroke-width:1;" x1="293.9675" x2="293.9675" y1="405.9199" y2="427.9199"/><polygon fill="#000000" points="289.9675,417.9199,293.9675,427.9199,297.9675,417.9199,293.9675,421.9199" style="stroke:#000000;stroke-width:1;"/><line style="stroke:#000000;stroke-width:1;" x1="664.4066" x2="921.9346" y1="405.9199" y2="405.9199"/><line style="stroke:#000000;stroke-width:1;" x1="921.9346" x2="921.9346" y1="405.9199" y2="427.9199"/><polygon fill="#000000" points="917.9346,417.9199,921.9346,427.9199,925.9346,417.9199,921.9346,421.9199" style="stroke:#000000;stroke-width:1;"/><line style="stroke:#000000;stroke-width:1;" x1="293.9675" x2="293.9675" y1="899.5332" y2="1126.5332"/><line style="stroke:#000000;stroke-width:1;" x1="293.9675" x2="595.951" y1="1126.5332" y2="1126.5332"/><polygon fill="#000000" points="585.951,1122.5332,595.951,1126.5332,585.951,1130.5332,589.951,1126.5332" style="stroke:#000000;stroke-width:1;"/><line style="stroke:#000000;stroke-width:1;" x1="921.9346" x2="921.9346" y1="1108.5332" y2="1126.5332"/><line style="stroke:#000000;stroke-width:1;" x1="921.9346" x2="619.951" y1="1126.5332" y2="1126.5332"/><polygon fill="#000000" points="629.951,1122.5332,619.951,1126.5332,629.951,1130.5332,625.951,1126.5332" style="stroke:#000000;stroke-width:1;"/><line style="stroke:#000000;stroke-width:1;" x1="607.951" x2="607.951" y1="373.9199" y2="393.9199"/><polygon fill="#000000" points="603.951,383.9199,607.951,393.9199,611.951,383.9199,607.951,387.9199" style="stroke:#000000;stroke-width:1;"/><line style="stroke:#000000;stroke-width:1;" x1="607.951" x2="607.951" y1="1138.5332" y2="1158.5332"/><polygon fill="#000000" points="603.951,1148.5332,607.951,1158.5332,611.951,1148.5332,607.951,1152.5332" style="stroke:#000000;stroke-width:1;"/><line style="stroke:#000000;stroke-width:1;" x1="607.951" x2="607.951" y1="1190.6865" y2="1210.6865"/><polygon fill="#000000" points="603.951,1200.6865,607.951,1210.6865,611.951,1200.6865,607.951,1204.6865" style="stroke:#000000;stroke-width:1;"/><line style="stroke:#000000;stroke-width:1;" x1="607.951" x2="607.951" y1="1242.8398" y2="1262.8398"/><polygon fill="#000000" points="603.951,1252.8398,607.951,1262.8398,611.951,1252.8398,607.951,1256.8398" style="stroke:#000000;stroke-width:1;"/><line style="stroke:#000000;stroke-width:1;" x1="607.951" x2="607.951" y1="1294.9932" y2="1314.9932"/><polygon fill="#000000" points="603.951,1304.9932,607.951,1314.9932,611.951,1304.9932,607.951,1308.9932" style="stroke:#000000;stroke-width:1;"/><line style="stroke:#000000;stroke-width:1;" x1="607.951" x2="607.951" y1="1347.1465" y2="1367.1465"/><polygon fill="#000000" points="603.951,1357.1465,607.951,1367.1465,611.951,1357.1465,607.951,1361.1465" style="stroke:#000000;stroke-width:1;"/><!--SRC=[bLHDRzf04BtxLqnlvb2bwJ4S8e92n84aWhQdIDN67io8PTVQ7PFGNz_ziZ6EKwaIGZ3pzksRDpFxXNTuGAYb89NPFQbQ6740KJ0TYKztejXNHZUgd6kf3KYgTlmg6np3QbEYYRXNwGwEO1PQyOR-85n_opBBmd2MtImLCGdfmyzKeoI5i65HuOjw8zx1NAijLI1KwSECKtTcZGNI4M6fwePpEt4nsa8U_i8lHrRUJi3LfY0_ePra03SFo31lZ475BGzAYv0h7V9BLHZdXSlU6-DgcBkoUUepQ-J6g4WhcBIA29-phEiCLKdRACfvuCaDmmywO5BrR7I1rfAgOALBx9HjN4Iw6XWFGS6ihkK94lhtlOng5eqg_AN-ElSP46wQml_SDd9Oi2DCYX6U6dR6J4CqV7cM61ntAnp_MOV3oQmKFDlaTTjMBfOT8jdG4nczwDB1pQTz4Z29cNul1XSD-j5d6Uk9umeD6NB-Yx7bwudk-59x8zcTu6BNWwNHwIPuZRQH33DZnCdsM-RsG4gKbnFGkRtLPj-MbiY3l_3Wjg-6wsc70b7vNVqS-_q_i8-TNws2IyiCrYXuIF28xx7xNJSsh4rR-xHt4jvsv2OyN_bqc9VRINRkZ_VEFHWI2-UOb8aWsDOVFh9CHT_CXI3vTI4iV-AcnypKALRgmJW-uAdf2pAM-_EJzdfqBDEPWTnFP-uZ_4NbQMcluXZMQE8RS1wszaMP2raqClWGZy0wx68lCJkYSMzbsh5UOaNgQYNUGy9fR9M4b_N2rYmK-nS0]--></g></svg>
