<svg xmlns="http://www.w3.org/2000/svg" xmlns:xlink="http://www.w3.org/1999/xlink" contentStyleType="text/css" data-diagram-type="SEQUENCE" height="2607.2917px" preserveAspectRatio="none" style="width:1077px;height:2607px;" version="1.1" viewBox="0 0 1077 2607" width="1077.0833px" zoomAndPan="magnify"><title>Result Pattern Flow - Error Handling Without Exceptions</title><defs><linearGradient id="ghs7w6s20wzkl0" x1="50%" x2="50%" y1="0%" y2="100%"><stop offset="0%" stop-color="#FFFFFF"/><stop offset="100%" stop-color="#EEEEEE"/></linearGradient><linearGradient id="ghs7w6s20wzkl1" x1="50%" x2="50%" y1="0%" y2="100%"><stop offset="0%" stop-color="#F18E3E"/><stop offset="100%" stop-color="#EC7211"/></linearGradient></defs><g><rect fill="url(#ghs7w6s20wzkl0)" height="46.1528" rx="4.1667" ry="4.1667" style="stroke:#EEEEEE;stroke-width:1.0417;" width="681.7627" x="193.7846" y="10.4167"/><text fill="#EC7211" font-family="Verdana" font-size="20.8333" font-weight="bold" lengthAdjust="spacing" textLength="660.9294" x="204.2013" y="41.7786">Result Pattern Flow - Error Handling Without Exceptions</text><g><title>Domain Service</title><rect fill="#8191A3" height="576.2248" style="stroke:#ABB6C2;stroke-width:1.0417;" width="10.4167" x="338.383" y="201.1027"/></g><g><title>Domain Service</title><rect fill="#8191A3" height="522.4915" style="stroke:#ABB6C2;stroke-width:1.0417;" width="10.4167" x="338.383" y="1033.0607"/></g><g><title>Domain Service</title><rect fill="#8191A3" height="40.1917" style="stroke:#ABB6C2;stroke-width:1.0417;" width="10.4167" x="338.383" y="1865.0187"/></g><g><title>Repository</title><rect fill="#8191A3" height="200.9583" style="stroke:#ABB6C2;stroke-width:1.0417;" width="10.4167" x="539.8478" y="241.2944"/></g><g><title>Repository</title><rect fill="#8191A3" height="200.9583" style="stroke:#ABB6C2;stroke-width:1.0417;" width="10.4167" x="539.8478" y="1073.2524"/></g><g><title>File System</title><rect fill="#8191A3" height="40.1917" style="stroke:#ABB6C2;stroke-width:1.0417;" width="10.4167" x="728.3824" y="281.486"/></g><g><title>File System</title><rect fill="#8191A3" height="40.1917" style="stroke:#ABB6C2;stroke-width:1.0417;" width="10.4167" x="728.3824" y="1113.444"/></g><g><title>Result.T.E.</title><rect fill="#8191A3" height="40.1917" style="stroke:#ABB6C2;stroke-width:1.0417;" width="10.4167" x="923.3317" y="361.8693"/></g><g><title>Result.T.E.</title><rect fill="#8191A3" height="40.1917" style="stroke:#ABB6C2;stroke-width:1.0417;" width="10.4167" x="923.3317" y="482.4443"/></g><g><title>Result.T.E.</title><rect fill="#8191A3" height="40.1917" style="stroke:#ABB6C2;stroke-width:1.0417;" width="10.4167" x="923.3317" y="562.8276"/></g><g><title>Result.T.E.</title><rect fill="#8191A3" height="40.1917" style="stroke:#ABB6C2;stroke-width:1.0417;" width="10.4167" x="923.3317" y="696.9442"/></g><g><title>Result.T.E.</title><rect fill="#8191A3" height="40.1917" style="stroke:#ABB6C2;stroke-width:1.0417;" width="10.4167" x="923.3317" y="817.5191"/></g><g><title>Result.T.E.</title><rect fill="#8191A3" height="40.1917" style="stroke:#ABB6C2;stroke-width:1.0417;" width="10.4167" x="923.3317" y="897.9024"/></g><g><title>Result.T.E.</title><rect fill="#8191A3" height="40.1917" style="stroke:#ABB6C2;stroke-width:1.0417;" width="10.4167" x="923.3317" y="1193.8273"/></g><g><title>Result.T.E.</title><rect fill="#8191A3" height="40.1917" style="stroke:#ABB6C2;stroke-width:1.0417;" width="10.4167" x="923.3317" y="1314.4023"/></g><g><title>Result.T.E.</title><rect fill="#8191A3" height="40.1917" style="stroke:#ABB6C2;stroke-width:1.0417;" width="10.4167" x="923.3317" y="1394.7856"/></g><g><title>Result.T.E.</title><rect fill="#8191A3" height="40.1917" style="stroke:#ABB6C2;stroke-width:1.0417;" width="10.4167" x="923.3317" y="1475.1689"/></g><g><title>Result.T.E.</title><rect fill="#8191A3" height="40.1917" style="stroke:#ABB6C2;stroke-width:1.0417;" width="10.4167" x="923.3317" y="1595.7438"/></g><g><title>Result.T.E.</title><rect fill="#8191A3" height="40.1917" style="stroke:#ABB6C2;stroke-width:1.0417;" width="10.4167" x="923.3317" y="1676.1271"/></g><g><title>Result.T.E.</title><rect fill="#8191A3" height="200.5249" style="stroke:#ABB6C2;stroke-width:1.0417;" width="10.4167" x="923.3317" y="1990.977"/></g><rect fill="none" height="145.7499" rx="4.1667" ry="4.1667" style="stroke:#4E5D6C;stroke-width:1.5625;" width="1022.4711" x="10.4167" y="2006.602"/><g><title>Client Code</title><rect fill="#000000" fill-opacity="0.00000" height="2458.2072" width="8.3333" x="106.7403" y="104.0527"/><line style="stroke:#ABB6C2;stroke-width:0.5208;stroke-dasharray:5.2083,5.2083;" x1="110.4167" x2="110.4167" y1="104.0527" y2="2562.2599"/></g><g><title>Domain Service</title><rect fill="#000000" fill-opacity="0.00000" height="2458.2072" width="8.3333" x="339.4246" y="104.0527"/><line style="stroke:#ABB6C2;stroke-width:0.5208;stroke-dasharray:5.2083,5.2083;" x1="343.1844" x2="343.1844" y1="104.0527" y2="2562.2599"/></g><g><title>Repository</title><rect fill="#000000" fill-opacity="0.00000" height="2458.2072" width="8.3333" x="540.8895" y="104.0527"/><line style="stroke:#ABB6C2;stroke-width:0.5208;stroke-dasharray:5.2083,5.2083;" x1="545.0399" x2="545.0399" y1="104.0527" y2="2562.2599"/></g><g><title>File System</title><rect fill="#000000" fill-opacity="0.00000" height="2458.2072" width="8.3333" x="729.424" y="104.0527"/><line style="stroke:#ABB6C2;stroke-width:0.5208;stroke-dasharray:5.2083,5.2083;" x1="732.5724" x2="732.5724" y1="104.0527" y2="2562.2599"/></g><g><title>Result.T.E.</title><rect fill="#000000" fill-opacity="0.00000" height="2458.2072" width="8.3333" x="924.3734" y="104.0527"/><line style="stroke:#ABB6C2;stroke-width:0.5208;stroke-dasharray:5.2083,5.2083;" x1="928.359" x2="928.359" y1="104.0527" y2="2562.2599"/></g><g class="participant participant-head" data-participant="client"><rect fill="url(#ghs7w6s20wzkl1)" height="40.1917" rx="4.1667" ry="4.1667" style="stroke:#EC7211;stroke-width:0.5208;" width="96.814" x="62.5" y="62.8194"/><text fill="#FFFFFF" font-family="Verdana" font-size="12.5" lengthAdjust="spacing" textLength="71.814" x="75" y="87.8866">Client Code</text></g><g class="participant participant-tail" data-participant="client"><rect fill="url(#ghs7w6s20wzkl1)" height="40.1917" rx="4.1667" ry="4.1667" style="stroke:#EC7211;stroke-width:0.5208;" width="96.814" x="62.5" y="2561.2183"/><text fill="#FFFFFF" font-family="Verdana" font-size="12.5" lengthAdjust="spacing" textLength="71.814" x="75" y="2586.2854">Client Code</text></g><g class="participant participant-head" data-participant="service"><rect fill="url(#ghs7w6s20wzkl1)" height="40.1917" rx="4.1667" ry="4.1667" style="stroke:#EC7211;stroke-width:0.5208;" width="123.7305" x="281.7261" y="62.8194"/><text fill="#FFFFFF" font-family="Verdana" font-size="12.5" lengthAdjust="spacing" textLength="98.7305" x="294.2261" y="87.8866">Domain Service</text></g><g class="participant participant-tail" data-participant="service"><rect fill="url(#ghs7w6s20wzkl1)" height="40.1917" rx="4.1667" ry="4.1667" style="stroke:#EC7211;stroke-width:0.5208;" width="123.7305" x="281.7261" y="2561.2183"/><text fill="#FFFFFF" font-family="Verdana" font-size="12.5" lengthAdjust="spacing" textLength="98.7305" x="294.2261" y="2586.2854">Domain Service</text></g><g class="participant participant-head" data-participant="repo"><rect fill="url(#ghs7w6s20wzkl1)" height="40.1917" rx="4.1667" ry="4.1667" style="stroke:#EC7211;stroke-width:0.5208;" width="91.6992" x="499.2065" y="62.8194"/><text fill="#FFFFFF" font-family="Verdana" font-size="12.5" lengthAdjust="spacing" textLength="66.6992" x="511.7065" y="87.8866">Repository</text></g><g class="participant participant-tail" data-participant="repo"><rect fill="url(#ghs7w6s20wzkl1)" height="40.1917" rx="4.1667" ry="4.1667" style="stroke:#EC7211;stroke-width:0.5208;" width="91.6992" x="499.2065" y="2561.2183"/><text fill="#FFFFFF" font-family="Verdana" font-size="12.5" lengthAdjust="spacing" textLength="66.6992" x="511.7065" y="2586.2854">Repository</text></g><g class="participant participant-head" data-participant="fs"><rect fill="url(#ghs7w6s20wzkl1)" height="40.1917" rx="4.1667" ry="4.1667" style="stroke:#EC7211;stroke-width:0.5208;" width="97.8699" x="684.6558" y="62.8194"/><text fill="#FFFFFF" font-family="Verdana" font-size="12.5" lengthAdjust="spacing" textLength="72.8699" x="697.1558" y="87.8866">File System</text></g><g class="participant participant-tail" data-participant="fs"><rect fill="url(#ghs7w6s20wzkl1)" height="40.1917" rx="4.1667" ry="4.1667" style="stroke:#EC7211;stroke-width:0.5208;" width="97.8699" x="684.6558" y="2561.2183"/><text fill="#FFFFFF" font-family="Verdana" font-size="12.5" lengthAdjust="spacing" textLength="72.8699" x="697.1558" y="2586.2854">File System</text></g><g class="participant participant-head" data-participant="result"><rect fill="url(#ghs7w6s20wzkl1)" height="40.1917" rx="4.1667" ry="4.1667" style="stroke:#EC7211;stroke-width:0.5208;" width="104.5288" x="876.2756" y="62.8194"/><text fill="#FFFFFF" font-family="Verdana" font-size="12.5" lengthAdjust="spacing" textLength="79.5288" x="888.7756" y="87.8866">Result&lt;T,E&gt;</text></g><g class="participant participant-tail" data-participant="result"><rect fill="url(#ghs7w6s20wzkl1)" height="40.1917" rx="4.1667" ry="4.1667" style="stroke:#EC7211;stroke-width:0.5208;" width="104.5288" x="876.2756" y="2561.2183"/><text fill="#FFFFFF" font-family="Verdana" font-size="12.5" lengthAdjust="spacing" textLength="79.5288" x="888.7756" y="2586.2854">Result&lt;T,E&gt;</text></g><g><title>Domain Service</title><rect fill="#8191A3" height="576.2248" style="stroke:#ABB6C2;stroke-width:1.0417;" width="10.4167" x="338.383" y="201.1027"/></g><g><title>Domain Service</title><rect fill="#8191A3" height="522.4915" style="stroke:#ABB6C2;stroke-width:1.0417;" width="10.4167" x="338.383" y="1033.0607"/></g><g><title>Domain Service</title><rect fill="#8191A3" height="40.1917" style="stroke:#ABB6C2;stroke-width:1.0417;" width="10.4167" x="338.383" y="1865.0187"/></g><g><title>Repository</title><rect fill="#8191A3" height="200.9583" style="stroke:#ABB6C2;stroke-width:1.0417;" width="10.4167" x="539.8478" y="241.2944"/></g><g><title>Repository</title><rect fill="#8191A3" height="200.9583" style="stroke:#ABB6C2;stroke-width:1.0417;" width="10.4167" x="539.8478" y="1073.2524"/></g><g><title>File System</title><rect fill="#8191A3" height="40.1917" style="stroke:#ABB6C2;stroke-width:1.0417;" width="10.4167" x="728.3824" y="281.486"/></g><g><title>File System</title><rect fill="#8191A3" height="40.1917" style="stroke:#ABB6C2;stroke-width:1.0417;" width="10.4167" x="728.3824" y="1113.444"/></g><g><title>Result.T.E.</title><rect fill="#8191A3" height="40.1917" style="stroke:#ABB6C2;stroke-width:1.0417;" width="10.4167" x="923.3317" y="361.8693"/></g><g><title>Result.T.E.</title><rect fill="#8191A3" height="40.1917" style="stroke:#ABB6C2;stroke-width:1.0417;" width="10.4167" x="923.3317" y="482.4443"/></g><g><title>Result.T.E.</title><rect fill="#8191A3" height="40.1917" style="stroke:#ABB6C2;stroke-width:1.0417;" width="10.4167" x="923.3317" y="562.8276"/></g><g><title>Result.T.E.</title><rect fill="#8191A3" height="40.1917" style="stroke:#ABB6C2;stroke-width:1.0417;" width="10.4167" x="923.3317" y="696.9442"/></g><g><title>Result.T.E.</title><rect fill="#8191A3" height="40.1917" style="stroke:#ABB6C2;stroke-width:1.0417;" width="10.4167" x="923.3317" y="817.5191"/></g><g><title>Result.T.E.</title><rect fill="#8191A3" height="40.1917" style="stroke:#ABB6C2;stroke-width:1.0417;" width="10.4167" x="923.3317" y="897.9024"/></g><g><title>Result.T.E.</title><rect fill="#8191A3" height="40.1917" style="stroke:#ABB6C2;stroke-width:1.0417;" width="10.4167" x="923.3317" y="1193.8273"/></g><g><title>Result.T.E.</title><rect fill="#8191A3" height="40.1917" style="stroke:#ABB6C2;stroke-width:1.0417;" width="10.4167" x="923.3317" y="1314.4023"/></g><g><title>Result.T.E.</title><rect fill="#8191A3" height="40.1917" style="stroke:#ABB6C2;stroke-width:1.0417;" width="10.4167" x="923.3317" y="1394.7856"/></g><g><title>Result.T.E.</title><rect fill="#8191A3" height="40.1917" style="stroke:#ABB6C2;stroke-width:1.0417;" width="10.4167" x="923.3317" y="1475.1689"/></g><g><title>Result.T.E.</title><rect fill="#8191A3" height="40.1917" style="stroke:#ABB6C2;stroke-width:1.0417;" width="10.4167" x="923.3317" y="1595.7438"/></g><g><title>Result.T.E.</title><rect fill="#8191A3" height="40.1917" style="stroke:#ABB6C2;stroke-width:1.0417;" width="10.4167" x="923.3317" y="1676.1271"/></g><g><title>Result.T.E.</title><rect fill="#8191A3" height="200.5249" style="stroke:#ABB6C2;stroke-width:1.0417;" width="10.4167" x="923.3317" y="1990.977"/></g><rect fill="#4E5D6C" height="3.125" rx="4.1667" ry="4.1667" style="stroke:#4E5D6C;stroke-width:1.0417;" width="1070.3735" x="0" y="140.8152"/><line style="stroke:#4E5D6C;stroke-width:1.0417;" x1="0" x2="1070.3735" y1="140.8152" y2="140.8152"/><line style="stroke:#4E5D6C;stroke-width:1.0417;" x1="0" x2="1070.3735" y1="143.9402" y2="143.9402"/><rect fill="#4E5D6C" height="33.9417" rx="4.1667" ry="4.1667" style="stroke:#4E5D6C;stroke-width:2.0833;" width="177.3132" x="446.5302" y="124.8861"/><text fill="#ABB6C2" font-family="Verdana" font-size="12.5" font-weight="bold" lengthAdjust="spacing" textLength="148.0408" x="457.9885" y="146.8282">Successful Operation</text><g class="message" data-participant-1="client" data-participant-2="service"><polygon fill="#EC7211" points="325.883,196.936,336.2996,201.1027,325.883,205.2694,330.0496,201.1027" style="stroke:#EC7211;stroke-width:1.0417;"/><line style="stroke:#EC7211;stroke-width:3.125;" x1="110.907" x2="332.133" y1="201.1027" y2="201.1027"/><text fill="#4E5D6C" font-family="Verdana" font-size="12.5" lengthAdjust="spacing" textLength="96.1426" x="123.407" y="191.1865">call operation()</text></g><g class="message" data-participant-1="service" data-participant-2="repo"><polygon fill="#EC7211" points="527.3478,237.1277,537.7645,241.2944,527.3478,245.461,531.5145,241.2944" style="stroke:#EC7211;stroke-width:1.0417;"/><line style="stroke:#EC7211;stroke-width:3.125;" x1="348.7996" x2="533.5978" y1="241.2944" y2="241.2944"/><text fill="#4E5D6C" font-family="Verdana" font-size="12.5" lengthAdjust="spacing" textLength="90.0757" x="361.2996" y="231.3782">find_entity(id)</text></g><g class="message" data-participant-1="repo" data-participant-2="fs"><polygon fill="#EC7211" points="715.8824,277.3193,726.299,281.486,715.8824,285.6527,720.049,281.486" style="stroke:#EC7211;stroke-width:1.0417;"/><line style="stroke:#EC7211;stroke-width:3.125;" x1="550.2645" x2="722.1324" y1="281.486" y2="281.486"/><text fill="#4E5D6C" font-family="Verdana" font-size="12.5" lengthAdjust="spacing" textLength="94.2078" x="562.7645" y="271.5698">read_file(path)</text></g><g class="message" data-participant-1="fs" data-participant-2="repo"><polygon fill="#EC7211" points="561.7228,317.511,551.3062,321.6777,561.7228,325.8443,557.5562,321.6777" style="stroke:#EC7211;stroke-width:1.0417;"/><line style="stroke:#EC7211;stroke-width:3.125;stroke-dasharray:2.0833,2.0833;" x1="555.4728" x2="732.549" y1="321.6777" y2="321.6777"/><text fill="#4E5D6C" font-family="Verdana" font-size="12.5" lengthAdjust="spacing" textLength="73.8647" x="573.1812" y="311.7615">file_content</text></g><g class="message" data-participant-1="repo" data-participant-2="result"><polygon fill="#EC7211" points="910.8317,357.7026,921.2484,361.8693,910.8317,366.036,914.9984,361.8693" style="stroke:#EC7211;stroke-width:1.0417;"/><line style="stroke:#EC7211;stroke-width:3.125;" x1="550.2645" x2="917.0817" y1="361.8693" y2="361.8693"/><text fill="#4E5D6C" font-family="Verdana" font-size="12.5" lengthAdjust="spacing" textLength="64.624" x="562.7645" y="351.9531">Ok(entity)</text></g><g class="message" data-participant-1="result" data-participant-2="repo"><polygon fill="#EC7211" points="561.7228,397.8943,551.3062,402.061,561.7228,406.2276,557.5562,402.061" style="stroke:#EC7211;stroke-width:1.0417;"/><line style="stroke:#EC7211;stroke-width:3.125;stroke-dasharray:2.0833,2.0833;" x1="555.4728" x2="927.4984" y1="402.061" y2="402.061"/><text fill="#4E5D6C" font-family="Verdana" font-size="12.5" lengthAdjust="spacing" textLength="136.3037" x="573.1812" y="392.1448">Result&lt;Entity, Error&gt;</text></g><g class="message" data-participant-1="repo" data-participant-2="service"><polygon fill="#EC7211" points="360.258,438.0859,349.8413,442.2526,360.258,446.4193,356.0913,442.2526" style="stroke:#EC7211;stroke-width:1.0417;"/><line style="stroke:#EC7211;stroke-width:3.125;stroke-dasharray:2.0833,2.0833;" x1="354.008" x2="544.0145" y1="442.2526" y2="442.2526"/><text fill="#4E5D6C" font-family="Verdana" font-size="12.5" lengthAdjust="spacing" textLength="136.3037" x="371.7163" y="432.3364">Result&lt;Entity, Error&gt;</text></g><g class="message" data-participant-1="service" data-participant-2="result"><polygon fill="#EC7211" points="910.8317,478.2776,921.2484,482.4443,910.8317,486.6109,914.9984,482.4443" style="stroke:#EC7211;stroke-width:1.0417;"/><line style="stroke:#EC7211;stroke-width:3.125;" x1="348.7996" x2="917.0817" y1="482.4443" y2="482.4443"/><text fill="#4E5D6C" font-family="Verdana" font-size="12.5" lengthAdjust="spacing" textLength="48.3093" x="361.2996" y="472.5281">Is_Ok()</text></g><g class="message" data-participant-1="result" data-participant-2="service"><polygon fill="#EC7211" points="360.258,518.4692,349.8413,522.6359,360.258,526.8026,356.0913,522.6359" style="stroke:#EC7211;stroke-width:1.0417;"/><line style="stroke:#EC7211;stroke-width:3.125;stroke-dasharray:2.0833,2.0833;" x1="354.008" x2="927.4984" y1="522.6359" y2="522.6359"/><text fill="#4E5D6C" font-family="Verdana" font-size="12.5" lengthAdjust="spacing" textLength="25.6165" x="371.7163" y="512.7197">true</text></g><g class="message" data-participant-1="service" data-participant-2="result"><polygon fill="#EC7211" points="910.8317,558.6609,921.2484,562.8276,910.8317,566.9942,914.9984,562.8276" style="stroke:#EC7211;stroke-width:1.0417;"/><line style="stroke:#EC7211;stroke-width:3.125;" x1="348.7996" x2="917.0817" y1="562.8276" y2="562.8276"/><text fill="#4E5D6C" font-family="Verdana" font-size="12.5" lengthAdjust="spacing" textLength="58.5999" x="361.2996" y="552.9114">Get_Ok()</text></g><g class="message" data-participant-1="result" data-participant-2="service"><polygon fill="#EC7211" points="360.258,598.8525,349.8413,603.0192,360.258,607.1859,356.0913,603.0192" style="stroke:#EC7211;stroke-width:1.0417;"/><line style="stroke:#EC7211;stroke-width:3.125;stroke-dasharray:2.0833,2.0833;" x1="354.008" x2="927.4984" y1="603.0192" y2="603.0192"/><text fill="#4E5D6C" font-family="Verdana" font-size="12.5" lengthAdjust="spacing" textLength="36.0352" x="371.7163" y="593.103">entity</text></g><g class="message" data-participant-1="service" data-participant-2="service"><line style="stroke:#EC7211;stroke-width:3.125;" x1="348.7996" x2="392.5496" y1="643.2109" y2="643.2109"/><line style="stroke:#EC7211;stroke-width:3.125;" x1="392.5496" x2="392.5496" y1="643.2109" y2="656.7525"/><line style="stroke:#EC7211;stroke-width:3.125;" x1="349.8413" x2="392.5496" y1="656.7525" y2="656.7525"/><polygon fill="#EC7211" points="360.258,652.5859,349.8413,656.7525,360.258,660.9192,356.0913,656.7525" style="stroke:#EC7211;stroke-width:1.0417;"/><text fill="#4E5D6C" font-family="Verdana" font-size="12.5" lengthAdjust="spacing" textLength="139.0625" x="361.2996" y="633.2947">process_entity(entity)</text></g><g class="message" data-participant-1="service" data-participant-2="result"><polygon fill="#EC7211" points="910.8317,692.7775,921.2484,696.9442,910.8317,701.1108,914.9984,696.9442" style="stroke:#EC7211;stroke-width:1.0417;"/><line style="stroke:#EC7211;stroke-width:3.125;" x1="348.7996" x2="917.0817" y1="696.9442" y2="696.9442"/><text fill="#4E5D6C" font-family="Verdana" font-size="12.5" lengthAdjust="spacing" textLength="135.022" x="361.2996" y="687.028">Ok(processed_result)</text></g><g class="message" data-participant-1="result" data-participant-2="service"><polygon fill="#EC7211" points="360.258,732.9692,349.8413,737.1358,360.258,741.3025,356.0913,737.1358" style="stroke:#EC7211;stroke-width:1.0417;"/><line style="stroke:#EC7211;stroke-width:3.125;stroke-dasharray:2.0833,2.0833;" x1="354.008" x2="927.4984" y1="737.1358" y2="737.1358"/><text fill="#4E5D6C" font-family="Verdana" font-size="12.5" lengthAdjust="spacing" textLength="192.0593" x="371.7163" y="727.2196">Result&lt;ProcessedData, Error&gt;</text></g><g class="message" data-participant-1="service" data-participant-2="client"><polygon fill="#EC7211" points="122.3653,773.1608,111.9486,777.3275,122.3653,781.4941,118.1986,777.3275" style="stroke:#EC7211;stroke-width:1.0417;"/><line style="stroke:#EC7211;stroke-width:3.125;stroke-dasharray:2.0833,2.0833;" x1="116.1153" x2="342.5496" y1="777.3275" y2="777.3275"/><text fill="#4E5D6C" font-family="Verdana" font-size="12.5" lengthAdjust="spacing" textLength="192.0593" x="133.8236" y="767.4113">Result&lt;ProcessedData, Error&gt;</text></g><g class="message" data-participant-1="client" data-participant-2="result"><polygon fill="#EC7211" points="910.8317,813.3525,921.2484,817.5191,910.8317,821.6858,914.9984,817.5191" style="stroke:#EC7211;stroke-width:1.0417;"/><line style="stroke:#EC7211;stroke-width:3.125;" x1="110.907" x2="917.0817" y1="817.5191" y2="817.5191"/><text fill="#4E5D6C" font-family="Verdana" font-size="12.5" lengthAdjust="spacing" textLength="48.3093" x="123.407" y="807.6029">Is_Ok()</text></g><g class="message" data-participant-1="result" data-participant-2="client"><polygon fill="#EC7211" points="122.3653,853.5441,111.9486,857.7108,122.3653,861.8774,118.1986,857.7108" style="stroke:#EC7211;stroke-width:1.0417;"/><line style="stroke:#EC7211;stroke-width:3.125;stroke-dasharray:2.0833,2.0833;" x1="116.1153" x2="927.4984" y1="857.7108" y2="857.7108"/><text fill="#4E5D6C" font-family="Verdana" font-size="12.5" lengthAdjust="spacing" textLength="25.6165" x="133.8236" y="847.7946">true</text></g><g class="message" data-participant-1="client" data-participant-2="result"><polygon fill="#EC7211" points="910.8317,893.7358,921.2484,897.9024,910.8317,902.0691,914.9984,897.9024" style="stroke:#EC7211;stroke-width:1.0417;"/><line style="stroke:#EC7211;stroke-width:3.125;" x1="110.907" x2="917.0817" y1="897.9024" y2="897.9024"/><text fill="#4E5D6C" font-family="Verdana" font-size="12.5" lengthAdjust="spacing" textLength="58.5999" x="123.407" y="887.9862">Get_Ok()</text></g><g class="message" data-participant-1="result" data-participant-2="client"><polygon fill="#EC7211" points="122.3653,933.9274,111.9486,938.0941,122.3653,942.2607,118.1986,938.0941" style="stroke:#EC7211;stroke-width:1.0417;"/><line style="stroke:#EC7211;stroke-width:3.125;stroke-dasharray:2.0833,2.0833;" x1="116.1153" x2="927.4984" y1="938.0941" y2="938.0941"/><text fill="#4E5D6C" font-family="Verdana" font-size="12.5" lengthAdjust="spacing" textLength="98.6023" x="133.8236" y="928.1779">processed_data</text></g><rect fill="#4E5D6C" height="3.125" rx="4.1667" ry="4.1667" style="stroke:#4E5D6C;stroke-width:1.0417;" width="1070.3735" x="0" y="972.7732"/><line style="stroke:#4E5D6C;stroke-width:1.0417;" x1="0" x2="1070.3735" y1="972.7732" y2="972.7732"/><line style="stroke:#4E5D6C;stroke-width:1.0417;" x1="0" x2="1070.3735" y1="975.8982" y2="975.8982"/><rect fill="#4E5D6C" height="33.9417" rx="4.1667" ry="4.1667" style="stroke:#4E5D6C;stroke-width:2.0833;" width="169.458" x="450.4578" y="956.8441"/><text fill="#ABB6C2" font-family="Verdana" font-size="12.5" font-weight="bold" lengthAdjust="spacing" textLength="140.1855" x="461.9161" y="978.7862">Error Handling Flow</text><g class="message" data-participant-1="client" data-participant-2="service"><polygon fill="#EC7211" points="325.883,1028.894,336.2996,1033.0607,325.883,1037.2274,330.0496,1033.0607" style="stroke:#EC7211;stroke-width:1.0417;"/><line style="stroke:#EC7211;stroke-width:3.125;" x1="110.907" x2="332.133" y1="1033.0607" y2="1033.0607"/><text fill="#4E5D6C" font-family="Verdana" font-size="12.5" lengthAdjust="spacing" textLength="96.1426" x="123.407" y="1023.1445">call operation()</text></g><g class="message" data-participant-1="service" data-participant-2="repo"><polygon fill="#EC7211" points="527.3478,1069.0857,537.7645,1073.2524,527.3478,1077.419,531.5145,1073.2524" style="stroke:#EC7211;stroke-width:1.0417;"/><line style="stroke:#EC7211;stroke-width:3.125;" x1="348.7996" x2="533.5978" y1="1073.2524" y2="1073.2524"/><text fill="#4E5D6C" font-family="Verdana" font-size="12.5" lengthAdjust="spacing" textLength="138.916" x="361.2996" y="1063.3362">find_entity(invalid_id)</text></g><g class="message" data-participant-1="repo" data-participant-2="fs"><polygon fill="#EC7211" points="715.8824,1109.2773,726.299,1113.444,715.8824,1117.6107,720.049,1113.444" style="stroke:#EC7211;stroke-width:1.0417;"/><line style="stroke:#EC7211;stroke-width:3.125;" x1="550.2645" x2="722.1324" y1="1113.444" y2="1113.444"/><text fill="#4E5D6C" font-family="Verdana" font-size="12.5" lengthAdjust="spacing" textLength="143.0481" x="562.7645" y="1103.5278">read_file(invalid_path)</text></g><g class="message" data-participant-1="fs" data-participant-2="repo"><polygon fill="#EC7211" points="561.7228,1149.469,551.3062,1153.6357,561.7228,1157.8023,557.5562,1153.6357" style="stroke:#EC7211;stroke-width:1.0417;"/><line style="stroke:#EC7211;stroke-width:3.125;stroke-dasharray:2.0833,2.0833;" x1="555.4728" x2="732.549" y1="1153.6357" y2="1153.6357"/><text fill="#4E5D6C" font-family="Verdana" font-size="12.5" lengthAdjust="spacing" textLength="129.5898" x="573.1812" y="1143.7195">file_not_found_error</text></g><g class="message" data-participant-1="repo" data-participant-2="result"><polygon fill="#EC7211" points="910.8317,1189.6606,921.2484,1193.8273,910.8317,1197.994,914.9984,1193.8273" style="stroke:#EC7211;stroke-width:1.0417;"/><line style="stroke:#EC7211;stroke-width:3.125;" x1="550.2645" x2="917.0817" y1="1193.8273" y2="1193.8273"/><text fill="#4E5D6C" font-family="Verdana" font-size="12.5" lengthAdjust="spacing" textLength="142.6941" x="562.7645" y="1183.9111">Err("Entity not found")</text></g><g class="message" data-participant-1="result" data-participant-2="repo"><polygon fill="#EC7211" points="561.7228,1229.8523,551.3062,1234.019,561.7228,1238.1856,557.5562,1234.019" style="stroke:#EC7211;stroke-width:1.0417;"/><line style="stroke:#EC7211;stroke-width:3.125;stroke-dasharray:2.0833,2.0833;" x1="555.4728" x2="927.4984" y1="1234.019" y2="1234.019"/><text fill="#4E5D6C" font-family="Verdana" font-size="12.5" lengthAdjust="spacing" textLength="136.3037" x="573.1812" y="1224.1028">Result&lt;Entity, Error&gt;</text></g><g class="message" data-participant-1="repo" data-participant-2="service"><polygon fill="#EC7211" points="360.258,1270.0439,349.8413,1274.2106,360.258,1278.3773,356.0913,1274.2106" style="stroke:#EC7211;stroke-width:1.0417;"/><line style="stroke:#EC7211;stroke-width:3.125;stroke-dasharray:2.0833,2.0833;" x1="354.008" x2="544.0145" y1="1274.2106" y2="1274.2106"/><text fill="#4E5D6C" font-family="Verdana" font-size="12.5" lengthAdjust="spacing" textLength="136.3037" x="371.7163" y="1264.2944">Result&lt;Entity, Error&gt;</text></g><g class="message" data-participant-1="service" data-participant-2="result"><polygon fill="#EC7211" points="910.8317,1310.2356,921.2484,1314.4023,910.8317,1318.5689,914.9984,1314.4023" style="stroke:#EC7211;stroke-width:1.0417;"/><line style="stroke:#EC7211;stroke-width:3.125;" x1="348.7996" x2="917.0817" y1="1314.4023" y2="1314.4023"/><text fill="#4E5D6C" font-family="Verdana" font-size="12.5" lengthAdjust="spacing" textLength="49.646" x="361.2996" y="1304.4861">Is_Err()</text></g><g class="message" data-participant-1="result" data-participant-2="service"><polygon fill="#EC7211" points="360.258,1350.4272,349.8413,1354.5939,360.258,1358.7606,356.0913,1354.5939" style="stroke:#EC7211;stroke-width:1.0417;"/><line style="stroke:#EC7211;stroke-width:3.125;stroke-dasharray:2.0833,2.0833;" x1="354.008" x2="927.4984" y1="1354.5939" y2="1354.5939"/><text fill="#4E5D6C" font-family="Verdana" font-size="12.5" lengthAdjust="spacing" textLength="25.6165" x="371.7163" y="1344.6777">true</text></g><g class="message" data-participant-1="service" data-participant-2="result"><polygon fill="#EC7211" points="910.8317,1390.6189,921.2484,1394.7856,910.8317,1398.9522,914.9984,1394.7856" style="stroke:#EC7211;stroke-width:1.0417;"/><line style="stroke:#EC7211;stroke-width:3.125;" x1="348.7996" x2="917.0817" y1="1394.7856" y2="1394.7856"/><text fill="#4E5D6C" font-family="Verdana" font-size="12.5" lengthAdjust="spacing" textLength="59.9365" x="361.2996" y="1384.8694">Get_Err()</text></g><g class="message" data-participant-1="result" data-participant-2="service"><polygon fill="#EC7211" points="360.258,1430.8105,349.8413,1434.9772,360.258,1439.1439,356.0913,1434.9772" style="stroke:#EC7211;stroke-width:1.0417;"/><line style="stroke:#EC7211;stroke-width:3.125;stroke-dasharray:2.0833,2.0833;" x1="354.008" x2="927.4984" y1="1434.9772" y2="1434.9772"/><text fill="#4E5D6C" font-family="Verdana" font-size="12.5" lengthAdjust="spacing" textLength="94.3542" x="371.7163" y="1425.061">error_message</text></g><g class="message" data-participant-1="service" data-participant-2="result"><polygon fill="#EC7211" points="910.8317,1471.0022,921.2484,1475.1689,910.8317,1479.3355,914.9984,1475.1689" style="stroke:#EC7211;stroke-width:1.0417;"/><line style="stroke:#EC7211;stroke-width:3.125;" x1="348.7996" x2="917.0817" y1="1475.1689" y2="1475.1689"/><text fill="#4E5D6C" font-family="Verdana" font-size="12.5" lengthAdjust="spacing" textLength="270.6238" x="361.2996" y="1465.2527">Err("Failed to process: " + error_message)</text></g><g class="message" data-participant-1="result" data-participant-2="service"><polygon fill="#EC7211" points="360.258,1511.1938,349.8413,1515.3605,360.258,1519.5272,356.0913,1515.3605" style="stroke:#EC7211;stroke-width:1.0417;"/><line style="stroke:#EC7211;stroke-width:3.125;stroke-dasharray:2.0833,2.0833;" x1="354.008" x2="927.4984" y1="1515.3605" y2="1515.3605"/><text fill="#4E5D6C" font-family="Verdana" font-size="12.5" lengthAdjust="spacing" textLength="192.0593" x="371.7163" y="1505.4443">Result&lt;ProcessedData, Error&gt;</text></g><g class="message" data-participant-1="service" data-participant-2="client"><polygon fill="#EC7211" points="122.3653,1551.3855,111.9486,1555.5522,122.3653,1559.7188,118.1986,1555.5522" style="stroke:#EC7211;stroke-width:1.0417;"/><line style="stroke:#EC7211;stroke-width:3.125;stroke-dasharray:2.0833,2.0833;" x1="116.1153" x2="342.5496" y1="1555.5522" y2="1555.5522"/><text fill="#4E5D6C" font-family="Verdana" font-size="12.5" lengthAdjust="spacing" textLength="192.0593" x="133.8236" y="1545.636">Result&lt;ProcessedData, Error&gt;</text></g><g class="message" data-participant-1="client" data-participant-2="result"><polygon fill="#EC7211" points="910.8317,1591.5771,921.2484,1595.7438,910.8317,1599.9105,914.9984,1595.7438" style="stroke:#EC7211;stroke-width:1.0417;"/><line style="stroke:#EC7211;stroke-width:3.125;" x1="110.907" x2="917.0817" y1="1595.7438" y2="1595.7438"/><text fill="#4E5D6C" font-family="Verdana" font-size="12.5" lengthAdjust="spacing" textLength="49.646" x="123.407" y="1585.8276">Is_Err()</text></g><g class="message" data-participant-1="result" data-participant-2="client"><polygon fill="#EC7211" points="122.3653,1631.7688,111.9486,1635.9355,122.3653,1640.1021,118.1986,1635.9355" style="stroke:#EC7211;stroke-width:1.0417;"/><line style="stroke:#EC7211;stroke-width:3.125;stroke-dasharray:2.0833,2.0833;" x1="116.1153" x2="927.4984" y1="1635.9355" y2="1635.9355"/><text fill="#4E5D6C" font-family="Verdana" font-size="12.5" lengthAdjust="spacing" textLength="25.6165" x="133.8236" y="1626.0193">true</text></g><g class="message" data-participant-1="client" data-participant-2="result"><polygon fill="#EC7211" points="910.8317,1671.9604,921.2484,1676.1271,910.8317,1680.2938,914.9984,1676.1271" style="stroke:#EC7211;stroke-width:1.0417;"/><line style="stroke:#EC7211;stroke-width:3.125;" x1="110.907" x2="917.0817" y1="1676.1271" y2="1676.1271"/><text fill="#4E5D6C" font-family="Verdana" font-size="12.5" lengthAdjust="spacing" textLength="59.9365" x="123.407" y="1666.2109">Get_Err()</text></g><g class="message" data-participant-1="result" data-participant-2="client"><polygon fill="#EC7211" points="122.3653,1712.1521,111.9486,1716.3188,122.3653,1720.4854,118.1986,1716.3188" style="stroke:#EC7211;stroke-width:1.0417;"/><line style="stroke:#EC7211;stroke-width:3.125;stroke-dasharray:2.0833,2.0833;" x1="116.1153" x2="927.4984" y1="1716.3188" y2="1716.3188"/><text fill="#4E5D6C" font-family="Verdana" font-size="12.5" lengthAdjust="spacing" textLength="94.3542" x="133.8236" y="1706.4026">error_message</text></g><g class="message" data-participant-1="client" data-participant-2="client"><line style="stroke:#EC7211;stroke-width:3.125;" x1="110.907" x2="154.657" y1="1756.5104" y2="1756.5104"/><line style="stroke:#EC7211;stroke-width:3.125;" x1="154.657" x2="154.657" y1="1756.5104" y2="1770.0521"/><line style="stroke:#EC7211;stroke-width:3.125;" x1="111.9486" x2="154.657" y1="1770.0521" y2="1770.0521"/><polygon fill="#EC7211" points="122.3653,1765.8854,111.9486,1770.0521,122.3653,1774.2188,118.1986,1770.0521" style="stroke:#EC7211;stroke-width:1.0417;"/><text fill="#4E5D6C" font-family="Verdana" font-size="12.5" lengthAdjust="spacing" textLength="186.6821" x="123.407" y="1746.5942">handle_error(error_message)</text></g><rect fill="#4E5D6C" height="3.125" rx="4.1667" ry="4.1667" style="stroke:#4E5D6C;stroke-width:1.0417;" width="1070.3735" x="0" y="1804.7312"/><line style="stroke:#4E5D6C;stroke-width:1.0417;" x1="0" x2="1070.3735" y1="1804.7312" y2="1804.7312"/><line style="stroke:#4E5D6C;stroke-width:1.0417;" x1="0" x2="1070.3735" y1="1807.8562" y2="1807.8562"/><rect fill="#4E5D6C" height="33.9417" rx="4.1667" ry="4.1667" style="stroke:#4E5D6C;stroke-width:2.0833;" width="213.9954" x="428.1891" y="1788.8021"/><text fill="#ABB6C2" font-family="Verdana" font-size="12.5" font-weight="bold" lengthAdjust="spacing" textLength="184.7229" x="439.6474" y="1810.7442">Pattern Matching Example</text><g class="message" data-participant-1="client" data-participant-2="service"><polygon fill="#EC7211" points="325.883,1860.8521,336.2996,1865.0187,325.883,1869.1854,330.0496,1865.0187" style="stroke:#EC7211;stroke-width:1.0417;"/><line style="stroke:#EC7211;stroke-width:3.125;" x1="110.907" x2="332.133" y1="1865.0187" y2="1865.0187"/><text fill="#4E5D6C" font-family="Verdana" font-size="12.5" lengthAdjust="spacing" textLength="96.1426" x="123.407" y="1855.1025">call operation()</text></g><g class="message" data-participant-1="service" data-participant-2="client"><polygon fill="#EC7211" points="122.3653,1901.0437,111.9486,1905.2104,122.3653,1909.377,118.1986,1905.2104" style="stroke:#EC7211;stroke-width:1.0417;"/><line style="stroke:#EC7211;stroke-width:3.125;stroke-dasharray:2.0833,2.0833;" x1="116.1153" x2="342.5496" y1="1905.2104" y2="1905.2104"/><text fill="#4E5D6C" font-family="Verdana" font-size="12.5" lengthAdjust="spacing" textLength="129.3823" x="133.8236" y="1895.2942">Result&lt;Data, Error&gt;</text></g><g class="message" data-participant-1="client" data-participant-2="result"><polygon fill="#EC7211" points="910.8317,1986.8103,921.2484,1990.977,910.8317,1995.1436,914.9984,1990.977" style="stroke:#EC7211;stroke-width:1.0417;"/><line style="stroke:#EC7211;stroke-width:3.125;" x1="110.907" x2="917.0817" y1="1990.977" y2="1990.977"/><text fill="#4E5D6C" font-family="Verdana" font-size="12.5" lengthAdjust="spacing" textLength="43.0664" x="123.407" y="1935.4858">Match(</text><text fill="#4E5D6C" font-family="Verdana" font-size="12.5" lengthAdjust="spacing" textLength="173.5535" x="132.196" y="1950.6775">Ok_Case: process_success,</text><text fill="#4E5D6C" font-family="Verdana" font-size="12.5" lengthAdjust="spacing" textLength="147.76" x="132.196" y="1965.8691">Err_Case: handle_error</text><text fill="#4E5D6C" font-family="Verdana" font-size="12.5" lengthAdjust="spacing" textLength="5.6763" x="123.407" y="1981.0608">)</text></g><path d="M14.5833,2006.602 L86.025,2006.602 L86.025,2023.877 L75.6083,2034.2936 L10.4167,2034.2936 L10.4167,2010.7686 A4.1667,4.1667 0 0 1 14.5833,2006.602" fill="#EEEEEE" style="stroke:#4E5D6C;stroke-width:1.5625;"/><rect fill="none" height="145.7499" rx="4.1667" ry="4.1667" style="stroke:#4E5D6C;stroke-width:1.5625;" width="1022.4711" x="10.4167" y="2006.602"/><text fill="#0073BB" font-family="Verdana" font-size="12.5" font-weight="bold" lengthAdjust="spacing" textLength="18.3167" x="31.25" y="2025.4191">alt</text><text fill="#4E5D6C" font-family="Verdana" font-size="12.5" font-weight="bold" lengthAdjust="spacing" textLength="97.1985" x="106.8583" y="2026.4608">[Result is Ok]</text><g class="message" data-participant-1="result" data-participant-2="client"><polygon fill="#EC7211" points="122.3653,2071.9686,111.9486,2076.1353,122.3653,2080.3019,118.1986,2076.1353" style="stroke:#EC7211;stroke-width:1.0417;"/><line style="stroke:#EC7211;stroke-width:3.125;" x1="116.1153" x2="922.29" y1="2076.1353" y2="2076.1353"/><text fill="#4E5D6C" font-family="Verdana" font-size="12.5" lengthAdjust="spacing" textLength="142.6392" x="133.8236" y="2066.2191">process_success(data)</text></g><line style="stroke:#4E5D6C;stroke-width:1.0417;stroke-dasharray:2.0833,2.0833;" x1="10.4167" x2="1032.8878" y1="2085.5103" y2="2085.5103"/><text fill="#4E5D6C" font-family="Verdana" font-size="12.5" font-weight="bold" lengthAdjust="spacing" textLength="99.1516" x="20.8333" y="2103.2857">[Result is Err]</text><g class="message" data-participant-1="result" data-participant-2="client"><polygon fill="#EC7211" points="122.3653,2139.8519,111.9486,2144.0186,122.3653,2148.1852,118.1986,2144.0186" style="stroke:#EC7211;stroke-width:1.0417;"/><line style="stroke:#EC7211;stroke-width:3.125;" x1="116.1153" x2="922.29" y1="2144.0186" y2="2144.0186"/><text fill="#4E5D6C" font-family="Verdana" font-size="12.5" lengthAdjust="spacing" textLength="123.3643" x="133.8236" y="2134.1024">handle_error(error)</text></g><g class="message" data-participant-1="result" data-participant-2="client"><polygon fill="#EC7211" points="122.3653,2187.3352,111.9486,2191.5019,122.3653,2195.6685,118.1986,2191.5019" style="stroke:#EC7211;stroke-width:1.0417;"/><line style="stroke:#EC7211;stroke-width:3.125;stroke-dasharray:2.0833,2.0833;" x1="116.1153" x2="927.4984" y1="2191.5019" y2="2191.5019"/><text fill="#4E5D6C" font-family="Verdana" font-size="12.5" lengthAdjust="spacing" textLength="70.1782" x="133.8236" y="2181.5857">final_result</text></g><path d="M20.8333,2209.2102 L20.8333,2312.3352 A4.1667,4.1667 0 0 0 25,2316.5019 L1012.5,2316.5019 A4.1667,4.1667 0 0 0 1016.6667,2312.3352 L1016.6667,2215.4602 L1006.25,2205.0435 L25,2205.0435 A4.1667,4.1667 0 0 0 20.8333,2209.2102" fill="#0073BB" style="stroke:#005C96;stroke-width:1.0417;"/><path d="M1006.25,2205.0435 L1006.25,2213.3769 A2.0833,2.0833 0 0 0 1008.3333,2215.4602 L1016.6667,2215.4602 L1006.25,2205.0435" fill="#0073BB" style="stroke:#005C96;stroke-width:1.0417;"/><text fill="#FFFFFF" font-family="Verdana" font-size="12.5" font-weight="bold" lengthAdjust="spacing" textLength="106.2256" x="308.1563" y="2228.0273">KEY BENEFITS:</text><text fill="#FFFFFF" font-family="Verdana" font-size="12.5" lengthAdjust="spacing" textLength="12.4939" x="308.1563" y="2243.219">1.</text><text fill="#FFFFFF" font-family="Verdana" font-size="12.5" font-weight="bold" lengthAdjust="spacing" textLength="99.6033" x="325.0448" y="2243.219">No Exceptions</text><text fill="#FFFFFF" font-family="Verdana" font-size="12.5" lengthAdjust="spacing" textLength="262.5671" x="424.648" y="2243.219">: All errors are explicit in the type system</text><text fill="#FFFFFF" font-family="Verdana" font-size="12.5" lengthAdjust="spacing" textLength="12.4939" x="308.1563" y="2258.4106">2.</text><text fill="#FFFFFF" font-family="Verdana" font-size="12.5" font-weight="bold" lengthAdjust="spacing" textLength="99.3286" x="325.0448" y="2258.4106">Composability</text><text fill="#FFFFFF" font-family="Verdana" font-size="12.5" lengthAdjust="spacing" textLength="263.2446" x="424.3734" y="2258.4106">: Results can be chained and transformed</text><text fill="#FFFFFF" font-family="Verdana" font-size="12.5" lengthAdjust="spacing" textLength="12.4939" x="308.1563" y="2273.6023">3.</text><text fill="#FFFFFF" font-family="Verdana" font-size="12.5" font-weight="bold" lengthAdjust="spacing" textLength="82.6111" x="325.0448" y="2273.6023">Type Safety</text><text fill="#FFFFFF" font-family="Verdana" font-size="12.5" lengthAdjust="spacing" textLength="312.9089" x="407.6558" y="2273.6023">: Compile-time guarantee that errors are handled</text><text fill="#FFFFFF" font-family="Verdana" font-size="12.5" lengthAdjust="spacing" textLength="12.4939" x="308.1563" y="2288.7939">4.</text><text fill="#FFFFFF" font-family="Verdana" font-size="12.5" font-weight="bold" lengthAdjust="spacing" textLength="89.8865" x="325.0448" y="2288.7939">Performance</text><text fill="#FFFFFF" font-family="Verdana" font-size="12.5" lengthAdjust="spacing" textLength="223.3582" x="414.9312" y="2288.7939">: No exception unwinding overhead</text><text fill="#FFFFFF" font-family="Verdana" font-size="12.5" lengthAdjust="spacing" textLength="12.4939" x="308.1563" y="2303.9856">5.</text><text fill="#FFFFFF" font-family="Verdana" font-size="12.5" font-weight="bold" lengthAdjust="spacing" textLength="45.9839" x="325.0448" y="2303.9856">Clarity</text><text fill="#FFFFFF" font-family="Verdana" font-size="12.5" lengthAdjust="spacing" textLength="223.2544" x="371.0286" y="2303.9856">: Error paths are visible in the code</text><path d="M234.375,2331.6101 L234.375,2419.1101 A4.1667,4.1667 0 0 0 238.5417,2423.2768 L445.8333,2423.2768 A4.1667,4.1667 0 0 0 450,2419.1101 L450,2337.8601 L439.5833,2327.4434 L238.5417,2327.4434 A4.1667,4.1667 0 0 0 234.375,2331.6101" fill="#0073BB" style="stroke:#005C96;stroke-width:1.0417;"/><path d="M439.5833,2327.4434 L439.5833,2335.7768 A2.0833,2.0833 0 0 0 441.6667,2337.8601 L450,2337.8601 L439.5833,2327.4434" fill="#0073BB" style="stroke:#005C96;stroke-width:1.0417;"/><text fill="#FFFFFF" font-family="Verdana" font-size="12.5" font-weight="bold" lengthAdjust="spacing" textLength="149.2126" x="245.8333" y="2350.4272">DOMAIN BOUNDARY:</text><text fill="#FFFFFF" font-family="Verdana" font-size="12.5" lengthAdjust="spacing" textLength="184.1003" x="245.8333" y="2365.6189">Services never let exceptions</text><text fill="#FFFFFF" font-family="Verdana" font-size="12.5" lengthAdjust="spacing" textLength="165.2954" x="245.8333" y="2380.8105">escape. All external errors</text><text fill="#FFFFFF" font-family="Verdana" font-size="12.5" lengthAdjust="spacing" textLength="178.4851" x="245.8333" y="2396.0022">are caught and converted to</text><text fill="#FFFFFF" font-family="Verdana" font-size="12.5" lengthAdjust="spacing" textLength="81.9275" x="245.8333" y="2411.1938">Result types.</text><path d="M790.625,2438.8184 L790.625,2541.9434 A4.1667,4.1667 0 0 0 794.7917,2546.11 L1060.4167,2546.11 A4.1667,4.1667 0 0 0 1064.5833,2541.9434 L1064.5833,2445.0684 L1054.1667,2434.6517 L794.7917,2434.6517 A4.1667,4.1667 0 0 0 790.625,2438.8184" fill="#0073BB" style="stroke:#005C96;stroke-width:1.0417;"/><path d="M1054.1667,2434.6517 L1054.1667,2442.985 A2.0833,2.0833 0 0 0 1056.25,2445.0684 L1064.5833,2445.0684 L1054.1667,2434.6517" fill="#0073BB" style="stroke:#005C96;stroke-width:1.0417;"/><text fill="#FFFFFF" font-family="Verdana" font-size="12.5" font-weight="bold" lengthAdjust="spacing" textLength="171.1975" x="802.0833" y="2457.6355">RESULT&lt;T,E&gt; PATTERN:</text><text fill="#FFFFFF" font-family="Verdana" font-size="12.5" lengthAdjust="spacing" textLength="164.7461" x="802.0833" y="2472.8271">- Ok(value): Success case</text><text fill="#FFFFFF" font-family="Verdana" font-size="12.5" lengthAdjust="spacing" textLength="155.719" x="802.0833" y="2488.0188">- Err(error): Failure case</text><text fill="#FFFFFF" font-family="Verdana" font-size="12.5" lengthAdjust="spacing" textLength="206.2683" x="802.0833" y="2503.2104">- Is_Ok() / Is_Err(): Check state</text><text fill="#FFFFFF" font-family="Verdana" font-size="12.5" lengthAdjust="spacing" textLength="242.2485" x="802.0833" y="2518.4021">- Get_Ok() / Get_Err(): Extract values</text><text fill="#FFFFFF" font-family="Verdana" font-size="12.5" lengthAdjust="spacing" textLength="177.0081" x="802.0833" y="2533.5938">- Match(): Pattern matching</text><!--SRC=[rLVRRjj647tVhvZgIMOj5xsz2BK1nwPReubiI0gA0068DJaI5w5s2UvIbl- -ipUASjXO3XgWVRBfdJbpvipExFWxK-86WJ_gYMguN2CpmbG8SzHjPU2U6uEDX9jAFS84qgPH3Vp1PL49kOQ_X2bLQo3TvLWReQHchEQD4RcekJGmkge4qiyhLU08k8RSVH_QNAiD5n8Ms6n5xisq__tGRewrqiAevidPDFHvQ70ZYFVYIHlSE8kLVWvWK_fjUPfU10JxpTZvEIpQF4UjLsq5TpKstEO2v-UCUS8mkOYSO0evhofGqMnymdXkn9ORx7YpQ4n-bYSvhOGiCe8IvcaiYfwFouCvAx9UQR9ja1VPYh8PrzoKFLlAY0mcVTGAirn9OrKji6_OGVeqoVZkqzWJE8ZkD0WsFUGWLkeSJdtXB_eXede-p850H_ZQd0z42XnlTKOqlqXm7ySqBGvH6WB-7SqhaBrEBs3lpUj6sUiJwnjL7YH2988v5fd_wv6aWgptqVkQ6_wbodJH2INSu-D1kgkyxu3N5AcBzqyr6e0zfaGTxbx3WZ8OYa1j_MnSkI7sxRfQRdabYkpuxeuUHtMvL2PRgTR6irczsEsK-tZaMn385vplwB_T-fRpD-hzLq0xVRCDtIw-FZg6a_k6KwKAC2fUpocCuFj3mFzXix-etTTs-_70BzPa7w7pAMtVes-NyRCQsEaGTvjttEIbdG_fZczgsY7-ZH4nK8QlKTzn6t-KGEz6TiKrxXyRxNUMKtj8eE6qd_H7-RcuZ1DkMEw49bG6CTh0U8r1ndR8dZ2iDFQSAIh0iF_dsfEtBDXWSMcAyYgyXKErfV65eBRO19VJU98aVwOVu4qwIszkbujfah0Vpo19PggtaIR952wfRew41juWuAwkQ2ka72JG-WlcgQOgkCMH_MG1hjI6Tat-82gQOXR0vqpxAvVmW92NjB5IerEITEMvr2lLRB1WFrldfKLRy1LwLuj5Ks5Y1AtPwvQJkK6AMNBJv-G5AzWl5k8U6ul8POuMWlB1c0-qyf4U7NjThI8bFIRiLyUvuarWwvyz-wfuxAtGue7kTKWtfstS5iC-2zXNDrx49Bc-UtTvEuCtT-zdrvVp3rRPi9zha6XjApHxKfgXpdcDPrxfdMqh7YLdbaBEstLfd62qhXA0SNEIXSjaAw3F1abrfPwdY_TlbsvzX_lBvJATpoolYTsew1rjyMGQztWAfv6vVrV2vPk2dSsjO-AEmWu3FtG3ZafLOlu9jA6xHnPn7I6JRbQHjZigU6x0HTHavZkKJk8usOHnii_cRm00]--></g></svg>
