<svg xmlns="http://www.w3.org/2000/svg" xmlns:xlink="http://www.w3.org/1999/xlink" contentStyleType="text/css" data-diagram-type="CLASS" height="1242.7083px" preserveAspectRatio="none" style="width:1639px;height:1242px;" version="1.1" viewBox="0 0 1639 1242" width="1639.5833px" zoomAndPan="magnify"><title>Result Pattern Implementation</title><defs><linearGradient id="ga31vojws8bwy0" x1="50%" x2="50%" y1="0%" y2="100%"><stop offset="0%" stop-color="#FFFFFF"/><stop offset="100%" stop-color="#EEEEEE"/></linearGradient><linearGradient id="ga31vojws8bwy1" x1="50%" x2="50%" y1="0%" y2="100%"><stop offset="0%" stop-color="#F18E3E"/><stop offset="100%" stop-color="#EC7211"/></linearGradient></defs><g><g class="title" data-source-line="2"><rect fill="url(#ga31vojws8bwy0)" height="71.4722" rx="4.1667" ry="4.1667" style="stroke:#EEEEEE;stroke-width:1.0417;" width="385.0403" x="620.2351" y="5.2083"/><text fill="#EC7211" font-family="Verdana" font-size="20.8333" font-weight="bold" lengthAdjust="spacing" textLength="364.2069" x="630.6517" y="36.5702">Result Pattern Implementation</text><text fill="#EC7211" font-family="Verdana" font-size="20.8333" font-weight="bold" lengthAdjust="spacing" textLength="295.7764" x="664.867" y="61.8896">Type-Safe Error Handling</text></g><!--cluster Abohlib--><g class="cluster" data-entity="Abohlib" data-source-line="10" data-uid="ent0004" id="cluster_Abohlib"><path d="M352.5938,366.0451 L414.1436,366.0451 A6.25,6.25 0 0 1 418.3103,370.2118 L425.602,397.9034 L1158.8438,397.9034 A4.1667,4.1667 0 0 1 1163.0104,402.0701 L1163.0104,1231.743 A4.1667,4.1667 0 0 1 1158.8438,1235.9097 L352.5938,1235.9097 A4.1667,4.1667 0 0 1 348.4271,1231.743 L348.4271,370.2118 A4.1667,4.1667 0 0 1 352.5938,366.0451" fill="none" style="stroke:#4E5D6C;stroke-width:2.0833;"/><line style="stroke:#4E5D6C;stroke-width:2.0833;" x1="348.4271" x2="425.602" y1="397.9034" y2="397.9034"/><text fill="#4E5D6C" font-family="Verdana" font-size="12.5" font-weight="bold" lengthAdjust="spacing" textLength="53.2166" x="357.8021" y="385.9039">Abohlib</text></g><!--cluster Core--><g class="cluster" data-entity="Core" data-source-line="10" data-uid="ent0005" id="cluster_Core"><path d="M377.5938,419.1701 L418.0682,419.1701 A6.25,6.25 0 0 1 422.2349,423.3368 L429.5265,451.0284 L1133.8438,451.0284 A4.1667,4.1667 0 0 1 1138.0104,455.1951 L1138.0104,1206.743 A4.1667,4.1667 0 0 1 1133.8438,1210.9097 L377.5938,1210.9097 A4.1667,4.1667 0 0 1 373.4271,1206.743 L373.4271,423.3368 A4.1667,4.1667 0 0 1 377.5938,419.1701" fill="none" style="stroke:#4E5D6C;stroke-width:2.0833;"/><line style="stroke:#4E5D6C;stroke-width:2.0833;" x1="373.4271" x2="429.5265" y1="451.0284" y2="451.0284"/><text fill="#4E5D6C" font-family="Verdana" font-size="12.5" font-weight="bold" lengthAdjust="spacing" textLength="32.1411" x="382.8021" y="439.0289">Core</text></g><!--cluster Domain--><g class="cluster" data-entity="Domain" data-source-line="10" data-uid="ent0006" id="cluster_Domain"><path d="M402.5938,472.2951 L464.638,472.2951 A6.25,6.25 0 0 1 468.8047,476.4618 L476.0964,504.1534 L1108.8438,504.1534 A4.1667,4.1667 0 0 1 1113.0104,508.3201 L1113.0104,1181.743 A4.1667,4.1667 0 0 1 1108.8438,1185.9097 L402.5938,1185.9097 A4.1667,4.1667 0 0 1 398.4271,1181.743 L398.4271,476.4618 A4.1667,4.1667 0 0 1 402.5938,472.2951" fill="none" style="stroke:#4E5D6C;stroke-width:2.0833;"/><line style="stroke:#4E5D6C;stroke-width:2.0833;" x1="398.4271" x2="476.0964" y1="504.1534" y2="504.1534"/><text fill="#4E5D6C" font-family="Verdana" font-size="12.5" font-weight="bold" lengthAdjust="spacing" textLength="53.7109" x="407.8021" y="492.1539">Domain</text></g><!--cluster Result--><g class="cluster" data-entity="Result" data-source-line="8" data-uid="ent0002" id="cluster_Result"><path d="M427.5938,525.4201 L480.2935,525.4201 A6.25,6.25 0 0 1 484.4602,529.5868 L491.7519,557.2784 L1083.8438,557.2784 A4.1667,4.1667 0 0 1 1088.0104,561.4451 L1088.0104,1156.743 A4.1667,4.1667 0 0 1 1083.8438,1160.9097 L427.5938,1160.9097 A4.1667,4.1667 0 0 1 423.4271,1156.743 L423.4271,529.5868 A4.1667,4.1667 0 0 1 427.5938,525.4201" fill="none" style="stroke:#4E5D6C;stroke-width:2.0833;"/><line style="stroke:#4E5D6C;stroke-width:2.0833;" x1="423.4271" x2="491.7519" y1="557.2784" y2="557.2784"/><text fill="#4E5D6C" font-family="Verdana" font-size="12.5" font-weight="bold" lengthAdjust="spacing" textLength="44.3665" x="432.8021" y="545.2789">Result</text></g><!--cluster Common Instantiations--><g class="cluster" data-entity="Common Instantiations" data-source-line="50" data-uid="ent0011" id="cluster_Common Instantiations"><path d="M115.0938,93.0243 L288.5455,93.0243 A6.25,6.25 0 0 1 292.7122,97.1909 L300.0038,124.8826 L1002.5938,124.8826 A4.1667,4.1667 0 0 1 1006.7604,129.0492 L1006.7604,293.1284 A4.1667,4.1667 0 0 1 1002.5938,297.2951 L115.0938,297.2951 A4.1667,4.1667 0 0 1 110.9271,293.1284 L110.9271,97.1909 A4.1667,4.1667 0 0 1 115.0938,93.0243" fill="none" style="stroke:#4E5D6C;stroke-width:2.0833;"/><line style="stroke:#4E5D6C;stroke-width:2.0833;" x1="110.9271" x2="300.0038" y1="124.8826" y2="124.8826"/><text fill="#4E5D6C" font-family="Verdana" font-size="12.5" font-weight="bold" lengthAdjust="spacing" textLength="165.1184" x="120.3021" y="112.8831">Common Instantiations</text><text fill="#4E5D6C" font-family="Verdana" font-size="12.5" font-style="italic" lengthAdjust="spacing" textLength="71.6919" x="527.1645" y="144.7414">&#171;#FFF2E8&#187;</text></g><!--cluster Error Types--><g class="cluster" data-entity="Error Types" data-source-line="73" data-uid="ent0016" id="cluster_Error Types"><path d="M1055.7188,89.1805 L1145.1983,89.1805 A6.25,6.25 0 0 1 1149.365,93.3472 L1156.6567,121.0388 L1628.6354,121.0388 A4.1667,4.1667 0 0 1 1632.8021,125.2055 L1632.8021,296.9722 A4.1667,4.1667 0 0 1 1628.6354,301.1388 L1055.7188,301.1388 A4.1667,4.1667 0 0 1 1051.5521,296.9722 L1051.5521,93.3472 A4.1667,4.1667 0 0 1 1055.7188,89.1805" fill="none" style="stroke:#4E5D6C;stroke-width:2.0833;"/><line style="stroke:#4E5D6C;stroke-width:2.0833;" x1="1051.5521" x2="1156.6567" y1="121.0388" y2="121.0388"/><text fill="#4E5D6C" font-family="Verdana" font-size="12.5" font-weight="bold" lengthAdjust="spacing" textLength="81.1462" x="1060.9271" y="109.0393">Error Types</text><text fill="#4E5D6C" font-family="Verdana" font-size="12.5" font-style="italic" lengthAdjust="spacing" textLength="72.4548" x="1310.1163" y="140.8976">&#171;#E8F4F8&#187;</text></g><!--class Result_Package<Ok_Type, Err_Type>--><g class="entity" data-entity="Result_Package.Ok_Type. Err_Type." data-source-line="10" data-uid="ent0003" id="entity_Result_Package.Ok_Type. Err_Type."><rect fill="url(#ga31vojws8bwy1)" height="384.3338" rx="4.1667" ry="4.1667" style="stroke:#EC7211;stroke-width:1.0417;" width="284.8211" x="440.3958" y="570.2118"/><rect fill="url(#ga31vojws8bwy1)" height="75.559" rx="4.1667" ry="4.1667" style="stroke:url(#ga31vojws8bwy1);stroke-width:1.0417;" width="284.8211" x="440.3958" y="570.2118"/><rect fill="url(#ga31vojws8bwy1)" height="4.1667" style="stroke:url(#ga31vojws8bwy1);stroke-width:1.0417;" width="284.8211" x="440.3958" y="641.6041"/><rect fill="none" height="384.3338" rx="4.1667" ry="4.1667" style="stroke:#EC7211;stroke-width:1.0417;" width="284.8211" x="440.3958" y="570.2118"/><ellipse cx="465.2617" cy="607.9912" fill="#FFFFFF" rx="10.4167" ry="10.4167" style="stroke:#BEBEBE;stroke-width:1.0417;"/><path d="M467.1721,612.4163 Q466.7448,612.636 466.2749,612.7459 Q465.8049,612.8557 465.2861,612.8557 Q463.4428,612.8557 462.4724,611.6411 Q461.5019,610.4265 461.5019,608.1316 Q461.5019,605.8306 462.4724,604.616 Q463.4428,603.4014 465.2861,603.4014 Q465.8049,603.4014 466.281,603.5113 Q466.757,603.6211 467.1721,603.8409 L467.1721,605.8428 Q466.7082,605.4156 466.2718,605.2172 Q465.8354,605.0188 465.3715,605.0188 Q464.3828,605.0188 463.8792,605.8031 Q463.3757,606.5874 463.3757,608.1316 Q463.3757,609.6697 463.8792,610.454 Q464.3828,611.2383 465.3715,611.2383 Q465.8354,611.2383 466.2718,611.0399 Q466.7082,610.8416 467.1721,610.4143 Z " fill="#000000"/><text fill="#4E5D6C" font-family="Verdana" font-size="12.5" font-style="italic" lengthAdjust="spacing" textLength="61.9629" x="565.4674" y="593.1956">&#171;generic&#187;</text><text fill="#4E5D6C" font-family="Verdana" font-size="12.5" font-style="italic" lengthAdjust="spacing" textLength="72.4548" x="560.2215" y="608.3872">&#171;#F0F8E8&#187;</text><text fill="#FFFFFF" font-family="Verdana" font-size="11.4583" lengthAdjust="spacing" textLength="220.3044" x="486.2967" y="632.9483">Result_Package&lt;Ok_Type, Err_Type&gt;</text><line style="stroke:#EC7211;stroke-width:1.0417;" x1="441.4375" x2="724.1752" y1="645.7707" y2="645.7707"/><rect fill="none" height="6.25" style="stroke:#C82930;stroke-width:1.0417;" width="6.25" x="448.7292" y="660.5461"/><text fill="#FFFFFF" font-family="Verdana" font-size="11.4583" lengthAdjust="spacing" textLength="139.0106" x="465.3958" y="666.6656">Variant : Result_Variant</text><rect fill="none" height="6.25" style="stroke:#C82930;stroke-width:1.0417;" width="6.25" x="448.7292" y="684.8884"/><text fill="#FFFFFF" font-family="Verdana" font-size="11.4583" lengthAdjust="spacing" textLength="119.1711" x="465.3958" y="691.008">Ok_Value : Ok_Type</text><rect fill="none" height="6.25" style="stroke:#C82930;stroke-width:1.0417;" width="6.25" x="448.7292" y="709.2308"/><text fill="#FFFFFF" font-family="Verdana" font-size="11.4583" lengthAdjust="spacing" textLength="121.6217" x="465.3958" y="715.3503">Err_Value : Err_Type</text><line style="stroke:#EC7211;stroke-width:1.0417;" x1="441.4375" x2="724.1752" y1="727.1311" y2="727.1311"/><ellipse cx="451.8542" cy="745.0314" fill="#84BE84" rx="3.125" ry="3.125" style="stroke:#038048;stroke-width:1.0417;"/><text fill="#FFFFFF" font-family="Verdana" font-size="11.4583" lengthAdjust="spacing" textLength="171.226" x="465.3958" y="748.026">Ok(Value : Ok_Type) : Result</text><ellipse cx="451.8542" cy="769.3738" fill="#84BE84" rx="3.125" ry="3.125" style="stroke:#038048;stroke-width:1.0417;"/><text fill="#FFFFFF" font-family="Verdana" font-size="11.4583" lengthAdjust="spacing" textLength="170.6106" x="465.3958" y="772.3683">Err(Error : Err_Type) : Result</text><ellipse cx="451.8542" cy="793.7161" fill="#84BE84" rx="3.125" ry="3.125" style="stroke:#038048;stroke-width:1.0417;"/><text fill="#FFFFFF" font-family="Verdana" font-size="11.4583" lengthAdjust="spacing" textLength="103.4103" x="465.3958" y="796.7107">Is_Ok() : Boolean</text><ellipse cx="451.8542" cy="818.0585" fill="#84BE84" rx="3.125" ry="3.125" style="stroke:#038048;stroke-width:1.0417;"/><text fill="#FFFFFF" font-family="Verdana" font-size="11.4583" lengthAdjust="spacing" textLength="104.6356" x="465.3958" y="821.053">Is_Err() : Boolean</text><ellipse cx="451.8542" cy="842.4008" fill="#84BE84" rx="3.125" ry="3.125" style="stroke:#038048;stroke-width:1.0417;"/><text fill="#FFFFFF" font-family="Verdana" font-size="11.4583" lengthAdjust="spacing" textLength="117.8675" x="465.3958" y="845.3954">Get_Ok() : Ok_Type</text><ellipse cx="451.8542" cy="866.7432" fill="#84BE84" rx="3.125" ry="3.125" style="stroke:#038048;stroke-width:1.0417;"/><text fill="#FFFFFF" font-family="Verdana" font-size="11.4583" lengthAdjust="spacing" textLength="120.3181" x="465.3958" y="869.7377">Get_Err() : Err_Type</text><ellipse cx="451.8542" cy="891.0855" fill="#84BE84" rx="3.125" ry="3.125" style="stroke:#038048;stroke-width:1.0417;"/><text fill="#FFFFFF" font-family="Verdana" font-size="11.4583" lengthAdjust="spacing" textLength="244.6869" x="465.3958" y="894.0801">Get_Ok_Or(Default : Ok_Type) : Ok_Type</text><ellipse cx="451.8542" cy="915.4279" fill="#84BE84" rx="3.125" ry="3.125" style="stroke:#038048;stroke-width:1.0417;"/><text fill="#FFFFFF" font-family="Verdana" font-size="11.4583" lengthAdjust="spacing" textLength="248.3627" x="465.3958" y="918.4224">Get_Err_Or(Default : Err_Type) : Err_Type</text><ellipse cx="451.8542" cy="939.7702" fill="#84BE84" rx="3.125" ry="3.125" style="stroke:#038048;stroke-width:1.0417;"/><text fill="#FFFFFF" font-family="Verdana" font-size="11.4583" lengthAdjust="spacing" textLength="224.2767" x="465.3958" y="942.7648">Match&lt;Return_Type&gt;() : Return_Type</text></g><!--class Result_Variant--><g class="entity" data-entity="Result_Variant" data-source-line="26" data-uid="ent0007" id="entity_Result_Variant"><rect fill="url(#ga31vojws8bwy1)" height="100.1104" rx="4.1667" ry="4.1667" style="stroke:#EC7211;stroke-width:1.0417;" width="126.0208" x="519.7917" y="1044.1284"/><rect fill="url(#ga31vojws8bwy1)" height="34.759" rx="4.1667" ry="4.1667" style="stroke:url(#ga31vojws8bwy1);stroke-width:1.0417;" width="126.0208" x="519.7917" y="1044.1284"/><rect fill="url(#ga31vojws8bwy1)" height="4.1667" style="stroke:url(#ga31vojws8bwy1);stroke-width:1.0417;" width="126.0208" x="519.7917" y="1074.7208"/><rect fill="none" height="100.1104" rx="4.1667" ry="4.1667" style="stroke:#EC7211;stroke-width:1.0417;" width="126.0208" x="519.7917" y="1044.1284"/><ellipse cx="534.375" cy="1061.5079" fill="#F18E3E" rx="10.4167" ry="10.4167" style="stroke:#BD5B0E;stroke-width:1.0417;"/><path d="M537.4308,1066.1954 L531.7546,1066.1954 L531.7546,1057.0829 L537.4308,1057.0829 L537.4308,1058.6698 L533.5551,1058.6698 L533.5551,1060.6351 L537.0646,1060.6351 L537.0646,1062.222 L533.5551,1062.222 L533.5551,1064.6085 L537.4308,1064.6085 Z " fill="#000000"/><text fill="#FFFFFF" font-family="Verdana" font-size="11.4583" lengthAdjust="spacing" textLength="84.3541" x="553.125" y="1066.065">Result_Variant</text><line style="stroke:#EC7211;stroke-width:1.0417;" x1="520.8333" x2="644.7708" y1="1078.8874" y2="1078.8874"/><text fill="#FFFFFF" font-family="Verdana" font-size="11.4583" lengthAdjust="spacing" textLength="64.4811" x="531.25" y="1099.7823">Ok_Variant</text><text fill="#FFFFFF" font-family="Verdana" font-size="11.4583" lengthAdjust="spacing" textLength="65.7064" x="531.25" y="1124.1247">Err_Variant</text><line style="stroke:#EC7211;stroke-width:1.0417;" x1="520.8333" x2="644.7708" y1="1135.9055" y2="1135.9055"/></g><g class="entity" data-entity="GMN8" data-source-line="32" data-uid="ent0009" id="entity_GMN8"><path d="M761.2396,642.1909 L761.2396,758.2118 L725.7083,762.3784 L761.2396,766.5451 L761.2396,882.5657 A4.1667,4.1667 0 0 0 765.4063,886.7323 L1066.8731,886.7323 A4.1667,4.1667 0 0 0 1071.0398,882.5657 L1071.0398,648.4409 L1060.6231,638.0243 L765.4063,638.0243 A4.1667,4.1667 0 0 0 761.2396,642.1909" fill="#0073BB" style="stroke:#005C96;stroke-width:1.0417;"/><path d="M1060.6231,638.0243 L1060.6231,646.3576 A2.0833,2.0833 0 0 0 1062.7065,648.4409 L1071.0398,648.4409 L1060.6231,638.0243" fill="#0073BB" style="stroke:#005C96;stroke-width:1.0417;"/><text fill="#FFFFFF" font-family="Verdana" font-size="12.5" font-weight="bold" lengthAdjust="spacing" textLength="96.6858" x="772.6979" y="661.0081">Key Features:</text><text fill="#FFFFFF" font-family="Verdana" font-size="12.5" lengthAdjust="spacing" textLength="216.3269" x="772.6979" y="676.1997">- No exceptions across boundaries</text><text fill="#FFFFFF" font-family="Verdana" font-size="12.5" lengthAdjust="spacing" textLength="168.8049" x="772.6979" y="691.3914">- Compile-time type safety</text><text fill="#FFFFFF" font-family="Verdana" font-size="12.5" lengthAdjust="spacing" textLength="144.1467" x="772.6979" y="706.583">- Forces error handling</text><text fill="#FFFFFF" font-family="Verdana" font-size="12.5" lengthAdjust="spacing" textLength="179.2297" x="772.6979" y="721.7747">- Supports pattern matching</text><text fill="#FFFFFF" font-family="Verdana" font-size="12.5" lengthAdjust="spacing" textLength="4.3945" x="772.6979" y="736.9663">&#160;</text><text fill="#FFFFFF" font-family="Verdana" font-size="12.5" font-weight="bold" lengthAdjust="spacing" textLength="112.0483" x="772.6979" y="752.158">Usage Example:</text><text fill="#FFFFFF" font-family="Verdana" font-size="12.5" lengthAdjust="spacing" textLength="277.5085" x="772.6979" y="767.3496">function Divide(A, B : Float) return Result is</text><text fill="#FFFFFF" font-family="Verdana" font-size="12.5" lengthAdjust="spacing" textLength="34.3628" x="772.6979" y="782.5413">begin</text><text fill="#FFFFFF" font-family="Verdana" font-size="12.5" lengthAdjust="spacing" textLength="92.8345" x="781.487" y="797.7329">if B = 0.0 then</text><text fill="#FFFFFF" font-family="Verdana" font-size="12.5" lengthAdjust="spacing" textLength="190.5701" x="790.276" y="812.9246">return Err("Division by zero");</text><text fill="#FFFFFF" font-family="Verdana" font-size="12.5" lengthAdjust="spacing" textLength="24.8352" x="781.487" y="828.1162">else</text><text fill="#FFFFFF" font-family="Verdana" font-size="12.5" lengthAdjust="spacing" textLength="109.1003" x="790.276" y="843.3079">return Ok(A / B);</text><text fill="#FFFFFF" font-family="Verdana" font-size="12.5" lengthAdjust="spacing" textLength="41.04" x="781.487" y="858.4995">end if;</text><text fill="#FFFFFF" font-family="Verdana" font-size="12.5" lengthAdjust="spacing" textLength="72.3389" x="772.6979" y="873.6912">end Divide;</text></g><!--class Test_Result--><g class="entity" data-entity="Test_Result" data-source-line="52" data-uid="ent0012" id="entity_Test_Result"><rect fill="url(#ga31vojws8bwy1)" height="100.1104" rx="4.1667" ry="4.1667" style="stroke:#EC7211;stroke-width:1.0417;" width="203.0385" x="156.2917" y="172.1909"/><rect fill="url(#ga31vojws8bwy1)" height="34.759" rx="4.1667" ry="4.1667" style="stroke:url(#ga31vojws8bwy1);stroke-width:1.0417;" width="203.0385" x="156.2917" y="172.1909"/><rect fill="url(#ga31vojws8bwy1)" height="4.1667" style="stroke:url(#ga31vojws8bwy1);stroke-width:1.0417;" width="203.0385" x="156.2917" y="202.7833"/><rect fill="none" height="100.1104" rx="4.1667" ry="4.1667" style="stroke:#EC7211;stroke-width:1.0417;" width="203.0385" x="156.2917" y="172.1909"/><ellipse cx="214.7715" cy="189.5704" fill="#FFFFFF" rx="10.4167" ry="10.4167" style="stroke:#BEBEBE;stroke-width:1.0417;"/><path d="M216.6819,193.9955 Q216.2546,194.2152 215.7847,194.3251 Q215.3147,194.4349 214.7959,194.4349 Q212.9526,194.4349 211.9822,193.2203 Q211.0117,192.0057 211.0117,189.7108 Q211.0117,187.4098 211.9822,186.1952 Q212.9526,184.9806 214.7959,184.9806 Q215.3147,184.9806 215.7908,185.0904 Q216.2668,185.2003 216.6819,185.42 L216.6819,187.422 Q216.218,186.9947 215.7816,186.7964 Q215.3452,186.598 214.8813,186.598 Q213.8926,186.598 213.389,187.3823 Q212.8855,188.1666 212.8855,189.7108 Q212.8855,191.2489 213.389,192.0332 Q213.8926,192.8175 214.8813,192.8175 Q215.3452,192.8175 215.7816,192.6191 Q216.218,192.4208 216.6819,191.9935 Z " fill="#000000"/><text fill="#FFFFFF" font-family="Verdana" font-size="11.4583" lengthAdjust="spacing" textLength="67.3289" x="239.7715" y="194.1275">Test_Result</text><line style="stroke:#EC7211;stroke-width:1.0417;" x1="157.3333" x2="358.2885" y1="206.9499" y2="206.9499"/><text fill="#FFFFFF" font-family="Verdana" font-size="11.4583" lengthAdjust="spacing" textLength="180.1219" x="167.75" y="227.8448">Ok_Type =&gt; Test_Result_Type</text><text fill="#FFFFFF" font-family="Verdana" font-size="11.4583" lengthAdjust="spacing" textLength="139.4526" x="167.75" y="252.1872">Err_Type =&gt; Test_Error</text><line style="stroke:#EC7211;stroke-width:1.0417;" x1="157.3333" x2="358.2885" y1="263.968" y2="263.968"/></g><!--class Pipeline_Result--><g class="entity" data-entity="Pipeline_Result" data-source-line="57" data-uid="ent0013" id="entity_Pipeline_Result"><rect fill="url(#ga31vojws8bwy1)" height="100.1104" rx="4.1667" ry="4.1667" style="stroke:#EC7211;stroke-width:1.0417;" width="175.3998" x="396.1458" y="172.1909"/><rect fill="url(#ga31vojws8bwy1)" height="34.759" rx="4.1667" ry="4.1667" style="stroke:url(#ga31vojws8bwy1);stroke-width:1.0417;" width="175.3998" x="396.1458" y="172.1909"/><rect fill="url(#ga31vojws8bwy1)" height="4.1667" style="stroke:url(#ga31vojws8bwy1);stroke-width:1.0417;" width="175.3998" x="396.1458" y="202.7833"/><rect fill="none" height="100.1104" rx="4.1667" ry="4.1667" style="stroke:#EC7211;stroke-width:1.0417;" width="175.3998" x="396.1458" y="172.1909"/><ellipse cx="431.6053" cy="189.5704" fill="#FFFFFF" rx="10.4167" ry="10.4167" style="stroke:#BEBEBE;stroke-width:1.0417;"/><path d="M433.5157,193.9955 Q433.0884,194.2152 432.6184,194.3251 Q432.1485,194.4349 431.6297,194.4349 Q429.7864,194.4349 428.8159,193.2203 Q427.8455,192.0057 427.8455,189.7108 Q427.8455,187.4098 428.8159,186.1952 Q429.7864,184.9806 431.6297,184.9806 Q432.1485,184.9806 432.6245,185.0904 Q433.1006,185.2003 433.5157,185.42 L433.5157,187.422 Q433.0518,186.9947 432.6154,186.7964 Q432.179,186.598 431.7151,186.598 Q430.7263,186.598 430.2228,187.3823 Q429.7193,188.1666 429.7193,189.7108 Q429.7193,191.2489 430.2228,192.0332 Q430.7263,192.8175 431.7151,192.8175 Q432.179,192.8175 432.6154,192.6191 Q433.0518,192.4208 433.5157,191.9935 Z " fill="#000000"/><text fill="#FFFFFF" font-family="Verdana" font-size="11.4583" lengthAdjust="spacing" textLength="87.3418" x="454.9944" y="194.1275">Pipeline_Result</text><line style="stroke:#EC7211;stroke-width:1.0417;" x1="397.1875" x2="570.5039" y1="206.9499" y2="206.9499"/><text fill="#FFFFFF" font-family="Verdana" font-size="11.4583" lengthAdjust="spacing" textLength="152.4831" x="407.6042" y="227.8448">Ok_Type =&gt; Output_Type</text><text fill="#FFFFFF" font-family="Verdana" font-size="11.4583" lengthAdjust="spacing" textLength="148.2758" x="407.6042" y="252.1872">Err_Type =&gt; Stage_Error</text><line style="stroke:#EC7211;stroke-width:1.0417;" x1="397.1875" x2="570.5039" y1="263.968" y2="263.968"/></g><!--class Retry_Result--><g class="entity" data-entity="Retry_Result" data-source-line="62" data-uid="ent0014" id="entity_Retry_Result"><rect fill="url(#ga31vojws8bwy1)" height="100.1104" rx="4.1667" ry="4.1667" style="stroke:#EC7211;stroke-width:1.0417;" width="171.3826" x="607.5313" y="172.1909"/><rect fill="url(#ga31vojws8bwy1)" height="34.759" rx="4.1667" ry="4.1667" style="stroke:url(#ga31vojws8bwy1);stroke-width:1.0417;" width="171.3826" x="607.5313" y="172.1909"/><rect fill="url(#ga31vojws8bwy1)" height="4.1667" style="stroke:url(#ga31vojws8bwy1);stroke-width:1.0417;" width="171.3826" x="607.5313" y="202.7833"/><rect fill="none" height="100.1104" rx="4.1667" ry="4.1667" style="stroke:#EC7211;stroke-width:1.0417;" width="171.3826" x="607.5313" y="172.1909"/><ellipse cx="647.2154" cy="189.5704" fill="#FFFFFF" rx="10.4167" ry="10.4167" style="stroke:#BEBEBE;stroke-width:1.0417;"/><path d="M649.1258,193.9955 Q648.6985,194.2152 648.2286,194.3251 Q647.7586,194.4349 647.2398,194.4349 Q645.3965,194.4349 644.4261,193.2203 Q643.4556,192.0057 643.4556,189.7108 Q643.4556,187.4098 644.4261,186.1952 Q645.3965,184.9806 647.2398,184.9806 Q647.7586,184.9806 648.2347,185.0904 Q648.7107,185.2003 649.1258,185.42 L649.1258,187.422 Q648.6619,186.9947 648.2255,186.7964 Q647.7891,186.598 647.3252,186.598 Q646.3365,186.598 645.8329,187.3823 Q645.3294,188.1666 645.3294,189.7108 Q645.3294,191.2489 645.8329,192.0332 Q646.3365,192.8175 647.3252,192.8175 Q647.7891,192.8175 648.2255,192.6191 Q648.6619,192.4208 649.1258,191.9935 Z " fill="#000000"/><text fill="#FFFFFF" font-family="Verdana" font-size="11.4583" lengthAdjust="spacing" textLength="73.9365" x="671.5433" y="194.1275">Retry_Result</text><line style="stroke:#EC7211;stroke-width:1.0417;" x1="608.5729" x2="777.8722" y1="206.9499" y2="206.9499"/><text fill="#FFFFFF" font-family="Verdana" font-size="11.4583" lengthAdjust="spacing" textLength="148.466" x="618.9896" y="227.8448">Ok_Type =&gt; Result_Type</text><text fill="#FFFFFF" font-family="Verdana" font-size="11.4583" lengthAdjust="spacing" textLength="146.0602" x="618.9896" y="252.1872">Err_Type =&gt; Retry_Error</text><line style="stroke:#EC7211;stroke-width:1.0417;" x1="608.5729" x2="777.8722" y1="263.968" y2="263.968"/></g><!--class Void_Result--><g class="entity" data-entity="Void_Result" data-source-line="67" data-uid="ent0015" id="entity_Void_Result"><rect fill="url(#ga31vojws8bwy1)" height="100.1104" rx="4.1667" ry="4.1667" style="stroke:#EC7211;stroke-width:1.0417;" width="165.8045" x="815.5313" y="172.1909"/><rect fill="url(#ga31vojws8bwy1)" height="34.759" rx="4.1667" ry="4.1667" style="stroke:url(#ga31vojws8bwy1);stroke-width:1.0417;" width="165.8045" x="815.5313" y="172.1909"/><rect fill="url(#ga31vojws8bwy1)" height="4.1667" style="stroke:url(#ga31vojws8bwy1);stroke-width:1.0417;" width="165.8045" x="815.5313" y="202.7833"/><rect fill="none" height="100.1104" rx="4.1667" ry="4.1667" style="stroke:#EC7211;stroke-width:1.0417;" width="165.8045" x="815.5313" y="172.1909"/><ellipse cx="855.3639" cy="189.5704" fill="#FFFFFF" rx="10.4167" ry="10.4167" style="stroke:#BEBEBE;stroke-width:1.0417;"/><path d="M857.2743,193.9955 Q856.8471,194.2152 856.3771,194.3251 Q855.9071,194.4349 855.3883,194.4349 Q853.5451,194.4349 852.5746,193.2203 Q851.6041,192.0057 851.6041,189.7108 Q851.6041,187.4098 852.5746,186.1952 Q853.5451,184.9806 855.3883,184.9806 Q855.9071,184.9806 856.3832,185.0904 Q856.8593,185.2003 857.2743,185.42 L857.2743,187.422 Q856.8104,186.9947 856.374,186.7964 Q855.9376,186.598 855.4738,186.598 Q854.485,186.598 853.9815,187.3823 Q853.4779,188.1666 853.4779,189.7108 Q853.4779,191.2489 853.9815,192.0332 Q854.485,192.8175 855.4738,192.8175 Q855.9376,192.8175 856.374,192.6191 Q856.8104,192.4208 857.2743,191.9935 Z " fill="#000000"/><text fill="#FFFFFF" font-family="Verdana" font-size="11.4583" lengthAdjust="spacing" textLength="68.0283" x="879.7249" y="194.1275">Void_Result</text><line style="stroke:#EC7211;stroke-width:1.0417;" x1="816.5729" x2="980.2941" y1="206.9499" y2="206.9499"/><text fill="#FFFFFF" font-family="Verdana" font-size="11.4583" lengthAdjust="spacing" textLength="123.5687" x="826.9896" y="227.8448">Ok_Type =&gt; Boolean</text><text fill="#FFFFFF" font-family="Verdana" font-size="11.4583" lengthAdjust="spacing" textLength="142.8879" x="826.9896" y="252.1872">Err_Type =&gt; Error_Type</text><line style="stroke:#EC7211;stroke-width:1.0417;" x1="816.5729" x2="980.2941" y1="263.968" y2="263.968"/></g><!--class Domain_Error--><g class="entity" data-entity="Domain_Error" data-source-line="75" data-uid="ent0017" id="entity_Domain_Error"><rect fill="url(#ga31vojws8bwy1)" height="124.4527" rx="4.1667" ry="4.1667" style="stroke:#EC7211;stroke-width:1.0417;" width="136.8195" x="1068.5625" y="160.0138"/><rect fill="url(#ga31vojws8bwy1)" height="34.759" rx="4.1667" ry="4.1667" style="stroke:url(#ga31vojws8bwy1);stroke-width:1.0417;" width="136.8195" x="1068.5625" y="160.0138"/><rect fill="url(#ga31vojws8bwy1)" height="4.1667" style="stroke:url(#ga31vojws8bwy1);stroke-width:1.0417;" width="136.8195" x="1068.5625" y="190.6062"/><rect fill="none" height="124.4527" rx="4.1667" ry="4.1667" style="stroke:#EC7211;stroke-width:1.0417;" width="136.8195" x="1068.5625" y="160.0138"/><ellipse cx="1089.8029" cy="177.3933" fill="#FFFFFF" rx="10.4167" ry="10.4167" style="stroke:#BEBEBE;stroke-width:1.0417;"/><path d="M1091.7133,181.8184 Q1091.286,182.0381 1090.816,182.148 Q1090.3461,182.2578 1089.8273,182.2578 Q1087.984,182.2578 1087.0136,181.0432 Q1086.0431,179.8286 1086.0431,177.5337 Q1086.0431,175.2327 1087.0136,174.0181 Q1087.984,172.8035 1089.8273,172.8035 Q1090.3461,172.8035 1090.8221,172.9134 Q1091.2982,173.0232 1091.7133,173.243 L1091.7133,175.2449 Q1091.2494,174.8177 1090.813,174.6193 Q1090.3766,174.4209 1089.9127,174.4209 Q1088.924,174.4209 1088.4204,175.2052 Q1087.9169,175.9895 1087.9169,177.5337 Q1087.9169,179.0718 1088.4204,179.8561 Q1088.924,180.6404 1089.9127,180.6404 Q1090.3766,180.6404 1090.813,180.442 Q1091.2494,180.2437 1091.7133,179.8164 Z " fill="#000000"/><text fill="#FFFFFF" font-family="Verdana" font-size="11.4583" lengthAdjust="spacing" textLength="80.3594" x="1110.0322" y="181.9504">Domain_Error</text><line style="stroke:#EC7211;stroke-width:1.0417;" x1="1069.6042" x2="1204.3403" y1="194.7728" y2="194.7728"/><ellipse cx="1080.0208" cy="212.6732" fill="none" rx="3.125" ry="3.125" style="stroke:#038048;stroke-width:1.0417;"/><text fill="#FFFFFF" font-family="Verdana" font-size="11.4583" lengthAdjust="spacing" textLength="100.3611" x="1093.5625" y="215.6677">Kind : Error_Kind</text><ellipse cx="1080.0208" cy="237.0155" fill="none" rx="3.125" ry="3.125" style="stroke:#038048;stroke-width:1.0417;"/><text fill="#FFFFFF" font-family="Verdana" font-size="11.4583" lengthAdjust="spacing" textLength="97.3007" x="1093.5625" y="240.0101">Message : String</text><ellipse cx="1080.0208" cy="261.3579" fill="none" rx="3.125" ry="3.125" style="stroke:#038048;stroke-width:1.0417;"/><text fill="#FFFFFF" font-family="Verdana" font-size="11.4583" lengthAdjust="spacing" textLength="92.8752" x="1093.5625" y="264.3524">Context : String</text><line style="stroke:#EC7211;stroke-width:1.0417;" x1="1069.6042" x2="1204.3403" y1="276.1332" y2="276.1332"/></g><!--class Application_Error--><g class="entity" data-entity="Application_Error" data-source-line="81" data-uid="ent0018" id="entity_Application_Error"><rect fill="url(#ga31vojws8bwy1)" height="124.4527" rx="4.1667" ry="4.1667" style="stroke:#EC7211;stroke-width:1.0417;" width="166.215" x="1241.3646" y="160.0138"/><rect fill="url(#ga31vojws8bwy1)" height="34.759" rx="4.1667" ry="4.1667" style="stroke:url(#ga31vojws8bwy1);stroke-width:1.0417;" width="166.215" x="1241.3646" y="160.0138"/><rect fill="url(#ga31vojws8bwy1)" height="4.1667" style="stroke:url(#ga31vojws8bwy1);stroke-width:1.0417;" width="166.215" x="1241.3646" y="190.6062"/><rect fill="none" height="124.4527" rx="4.1667" ry="4.1667" style="stroke:#EC7211;stroke-width:1.0417;" width="166.215" x="1241.3646" y="160.0138"/><ellipse cx="1267.3231" cy="177.3933" fill="#FFFFFF" rx="10.4167" ry="10.4167" style="stroke:#BEBEBE;stroke-width:1.0417;"/><path d="M1269.2335,181.8184 Q1268.8063,182.0381 1268.3363,182.148 Q1267.8663,182.2578 1267.3475,182.2578 Q1265.5043,182.2578 1264.5338,181.0432 Q1263.5633,179.8286 1263.5633,177.5337 Q1263.5633,175.2327 1264.5338,174.0181 Q1265.5043,172.8035 1267.3475,172.8035 Q1267.8663,172.8035 1268.3424,172.9134 Q1268.8185,173.0232 1269.2335,173.243 L1269.2335,175.2449 Q1268.7696,174.8177 1268.3332,174.6193 Q1267.8968,174.4209 1267.433,174.4209 Q1266.4442,174.4209 1265.9407,175.2052 Q1265.4371,175.9895 1265.4371,177.5337 Q1265.4371,179.0718 1265.9407,179.8561 Q1266.4442,180.6404 1267.433,180.6404 Q1267.8968,180.6404 1268.3332,180.442 Q1268.7696,180.2437 1269.2335,179.8164 Z " fill="#000000"/><text fill="#FFFFFF" font-family="Verdana" font-size="11.4583" lengthAdjust="spacing" textLength="99.2701" x="1288.6009" y="181.9504">Application_Error</text><line style="stroke:#EC7211;stroke-width:1.0417;" x1="1242.4063" x2="1406.5379" y1="194.7728" y2="194.7728"/><ellipse cx="1252.8229" cy="212.6732" fill="none" rx="3.125" ry="3.125" style="stroke:#038048;stroke-width:1.0417;"/><text fill="#FFFFFF" font-family="Verdana" font-size="11.4583" lengthAdjust="spacing" textLength="129.7567" x="1266.3646" y="215.6677">Kind : App_Error_Kind</text><ellipse cx="1252.8229" cy="237.0155" fill="none" rx="3.125" ry="3.125" style="stroke:#038048;stroke-width:1.0417;"/><text fill="#FFFFFF" font-family="Verdana" font-size="11.4583" lengthAdjust="spacing" textLength="97.3007" x="1266.3646" y="240.0101">Message : String</text><ellipse cx="1252.8229" cy="261.3579" fill="none" rx="3.125" ry="3.125" style="stroke:#038048;stroke-width:1.0417;"/><text fill="#FFFFFF" font-family="Verdana" font-size="11.4583" lengthAdjust="spacing" textLength="87.3418" x="1266.3646" y="264.3524">Details : String</text><line style="stroke:#EC7211;stroke-width:1.0417;" x1="1242.4063" x2="1406.5379" y1="276.1332" y2="276.1332"/></g><!--class Infrastructure_Error--><g class="entity" data-entity="Infrastructure_Error" data-source-line="87" data-uid="ent0019" id="entity_Infrastructure_Error"><rect fill="url(#ga31vojws8bwy1)" height="124.4527" rx="4.1667" ry="4.1667" style="stroke:#EC7211;stroke-width:1.0417;" width="171.9777" x="1443.6875" y="160.0138"/><rect fill="url(#ga31vojws8bwy1)" height="34.759" rx="4.1667" ry="4.1667" style="stroke:url(#ga31vojws8bwy1);stroke-width:1.0417;" width="171.9777" x="1443.6875" y="160.0138"/><rect fill="url(#ga31vojws8bwy1)" height="4.1667" style="stroke:url(#ga31vojws8bwy1);stroke-width:1.0417;" width="171.9777" x="1443.6875" y="190.6062"/><rect fill="none" height="124.4527" rx="4.1667" ry="4.1667" style="stroke:#EC7211;stroke-width:1.0417;" width="171.9777" x="1443.6875" y="160.0138"/><ellipse cx="1464.6635" cy="177.3933" fill="#FFFFFF" rx="10.4167" ry="10.4167" style="stroke:#BEBEBE;stroke-width:1.0417;"/><path d="M1466.5739,181.8184 Q1466.1467,182.0381 1465.6767,182.148 Q1465.2067,182.2578 1464.6879,182.2578 Q1462.8447,182.2578 1461.8742,181.0432 Q1460.9037,179.8286 1460.9037,177.5337 Q1460.9037,175.2327 1461.8742,174.0181 Q1462.8447,172.8035 1464.6879,172.8035 Q1465.2067,172.8035 1465.6828,172.9134 Q1466.1589,173.0232 1466.5739,173.243 L1466.5739,175.2449 Q1466.11,174.8177 1465.6736,174.6193 Q1465.2372,174.4209 1464.7734,174.4209 Q1463.7846,174.4209 1463.2811,175.2052 Q1462.7775,175.9895 1462.7775,177.5337 Q1462.7775,179.0718 1463.2811,179.8561 Q1463.7846,180.6404 1464.7734,180.6404 Q1465.2372,180.6404 1465.6736,180.442 Q1466.11,180.2437 1466.5739,179.8164 Z " fill="#000000"/><text fill="#FFFFFF" font-family="Verdana" font-size="11.4583" lengthAdjust="spacing" textLength="116.1051" x="1484.8341" y="181.9504">Infrastructure_Error</text><line style="stroke:#EC7211;stroke-width:1.0417;" x1="1444.7292" x2="1614.6236" y1="194.7728" y2="194.7728"/><ellipse cx="1455.1458" cy="212.6732" fill="none" rx="3.125" ry="3.125" style="stroke:#038048;stroke-width:1.0417;"/><text fill="#FFFFFF" font-family="Verdana" font-size="11.4583" lengthAdjust="spacing" textLength="135.5194" x="1468.6875" y="215.6677">Kind : Infra_Error_Kind</text><ellipse cx="1455.1458" cy="237.0155" fill="none" rx="3.125" ry="3.125" style="stroke:#038048;stroke-width:1.0417;"/><text fill="#FFFFFF" font-family="Verdana" font-size="11.4583" lengthAdjust="spacing" textLength="97.3007" x="1468.6875" y="240.0101">Message : String</text><ellipse cx="1455.1458" cy="261.3579" fill="none" rx="3.125" ry="3.125" style="stroke:#038048;stroke-width:1.0417;"/><text fill="#FFFFFF" font-family="Verdana" font-size="11.4583" lengthAdjust="spacing" textLength="127.2558" x="1468.6875" y="264.3524">System_Error : String</text><line style="stroke:#EC7211;stroke-width:1.0417;" x1="1444.7292" x2="1614.6236" y1="276.1332" y2="276.1332"/></g><!--class Err_Type--><g class="entity" data-entity="Err_Type" data-source-line="100" data-uid="ent0025" id="entity_Err_Type"><rect fill="url(#ga31vojws8bwy1)" height="51.4257" rx="4.1667" ry="4.1667" style="stroke:#EC7211;stroke-width:1.0417;" width="93.7831" x="1277.5833" y="736.6701"/><rect fill="url(#ga31vojws8bwy1)" height="34.759" rx="4.1667" ry="4.1667" style="stroke:url(#ga31vojws8bwy1);stroke-width:1.0417;" width="93.7831" x="1277.5833" y="736.6701"/><rect fill="url(#ga31vojws8bwy1)" height="4.1667" style="stroke:url(#ga31vojws8bwy1);stroke-width:1.0417;" width="93.7831" x="1277.5833" y="767.2624"/><rect fill="none" height="51.4257" rx="4.1667" ry="4.1667" style="stroke:#EC7211;stroke-width:1.0417;" width="93.7831" x="1277.5833" y="736.6701"/><ellipse cx="1292.1667" cy="754.0496" fill="#FFFFFF" rx="10.4167" ry="10.4167" style="stroke:#BEBEBE;stroke-width:1.0417;"/><path d="M1294.0771,758.4746 Q1293.6498,758.6944 1293.1799,758.8042 Q1292.7099,758.9141 1292.1911,758.9141 Q1290.3478,758.9141 1289.3774,757.6995 Q1288.4069,756.4849 1288.4069,754.19 Q1288.4069,751.8889 1289.3774,750.6743 Q1290.3478,749.4597 1292.1911,749.4597 Q1292.7099,749.4597 1293.186,749.5696 Q1293.662,749.6795 1294.0771,749.8992 L1294.0771,751.9012 Q1293.6132,751.4739 1293.1768,751.2755 Q1292.7404,751.0772 1292.2765,751.0772 Q1291.2878,751.0772 1290.7842,751.8615 Q1290.2807,752.6458 1290.2807,754.19 Q1290.2807,755.7281 1290.7842,756.5124 Q1291.2878,757.2967 1292.2765,757.2967 Q1292.7404,757.2967 1293.1768,757.0983 Q1293.6132,756.8999 1294.0771,756.4727 Z " fill="#000000"/><text fill="#FFFFFF" font-family="Verdana" font-size="11.4583" lengthAdjust="spacing" textLength="52.1164" x="1310.9167" y="758.6066">Err_Type</text><line style="stroke:#EC7211;stroke-width:1.0417;" x1="1278.625" x2="1370.3247" y1="771.4291" y2="771.4291"/><line style="stroke:#EC7211;stroke-width:1.0417;" x1="1278.625" x2="1370.3247" y1="779.7624" y2="779.7624"/></g><g class="entity" data-entity="GMN29" data-source-line="105" data-uid="ent0030" id="entity_GMN29"><path d="M6.25,718.1493 L6.25,806.6075 A4.1667,4.1667 0 0 0 10.4167,810.7742 L228.1128,810.7742 A4.1667,4.1667 0 0 0 232.2795,806.6075 L232.2795,724.3993 L221.8628,713.9826 L10.4167,713.9826 A4.1667,4.1667 0 0 0 6.25,718.1493" fill="#0073BB" style="stroke:#005C96;stroke-width:1.0417;"/><path d="M221.8628,713.9826 L221.8628,722.3159 A2.0833,2.0833 0 0 0 223.9461,724.3993 L232.2795,724.3993 L221.8628,713.9826" fill="#0073BB" style="stroke:#005C96;stroke-width:1.0417;"/><text fill="#FFFFFF" font-family="Verdana" font-size="12.5" font-weight="bold" lengthAdjust="spacing" textLength="119.3115" x="17.7083" y="736.9664">Pattern Benefits:</text><text fill="#FFFFFF" font-family="Verdana" font-size="12.5" lengthAdjust="spacing" textLength="155.2063" x="17.7083" y="752.158">1. Explicit error handling</text><text fill="#FFFFFF" font-family="Verdana" font-size="12.5" lengthAdjust="spacing" textLength="158.2092" x="17.7083" y="767.3497">2. No hidden control flow</text><text fill="#FFFFFF" font-family="Verdana" font-size="12.5" lengthAdjust="spacing" textLength="163.8428" x="17.7083" y="782.5413">3. Composable operations</text><text fill="#FFFFFF" font-family="Verdana" font-size="12.5" lengthAdjust="spacing" textLength="193.7378" x="17.7083" y="797.733">4. Type-safe error propagation</text></g><!--link Result_Package<Ok_Type, Err_Type> to Result_Variant--><g class="link" data-entity-1="Result_Package.Ok_Type. Err_Type." data-entity-2="Result_Variant" data-source-line="94" data-uid="lnk20" id="link_Result_Package.Ok_Type. Err_Type._Result_Variant"><path codeLine="94" d="M582.8021,954.743 C582.8021,987.7013 582.8021,1012.9618 582.8021,1037.5659" fill="none" id="Result_Package&lt;Ok_Type, Err_Type&gt;-to-Result_Variant" style="stroke:#EC7211;stroke-width:3.125;"/><polygon fill="#EC7211" points="582.8021,1043.8159,586.9688,1034.4409,582.8021,1038.6076,578.6354,1034.4409,582.8021,1043.8159" style="stroke:#EC7211;stroke-width:3.125;"/><text fill="#4E5D6C" font-family="Verdana" font-size="12.5" lengthAdjust="spacing" textLength="28.3813" x="589.0521" y="1004.6122">uses</text></g><!--link Test_Result to Result_Package<Ok_Type, Err_Type>--><g class="link" data-entity-1="Test_Result" data-entity-2="Result_Package.Ok_Type. Err_Type." data-source-line="95" data-uid="lnk21" id="link_Test_Result_Result_Package.Ok_Type. Err_Type."><path codeLine="95" d="M287.5104,272.4618 C328.0208,339.5243 393.2012,447.4334 457.42,553.7459" fill="none" id="Test_Result-to-Result_Package&lt;Ok_Type, Err_Type&gt;" style="stroke:#EC7211;stroke-width:3.125;"/><polygon fill="none" points="467.1146,569.7951,462.7697,550.5143,452.0702,556.9774,467.1146,569.7951" style="stroke:#EC7211;stroke-width:3.125;"/><text fill="#4E5D6C" font-family="Verdana" font-size="12.5" lengthAdjust="spacing" textLength="72.9431" x="338.3854" y="341.1122">instantiates</text></g><!--link Pipeline_Result to Result_Package<Ok_Type, Err_Type>--><g class="link" data-entity-1="Pipeline_Result" data-entity-2="Result_Package.Ok_Type. Err_Type." data-source-line="96" data-uid="lnk22" id="link_Pipeline_Result_Result_Package.Ok_Type. Err_Type."><path codeLine="96" d="M492.8958,272.4618 C505.2292,339.5243 524.6276,445.0422 544.1901,551.3547" fill="none" id="Pipeline_Result-to-Result_Package&lt;Ok_Type, Err_Type&gt;" style="stroke:#EC7211;stroke-width:3.125;"/><polygon fill="none" points="547.5833,569.7951,550.3369,550.2236,538.0433,552.4857,547.5833,569.7951" style="stroke:#EC7211;stroke-width:3.125;"/><text fill="#4E5D6C" font-family="Verdana" font-size="12.5" lengthAdjust="spacing" textLength="72.9431" x="512.7292" y="341.1122">instantiates</text></g><!--link Retry_Result to Result_Package<Ok_Type, Err_Type>--><g class="link" data-entity-1="Retry_Result" data-entity-2="Result_Package.Ok_Type. Err_Type." data-source-line="97" data-uid="lnk23" id="link_Retry_Result_Result_Package.Ok_Type. Err_Type."><path codeLine="97" d="M683.1354,272.4618 C669.3646,339.5243 647.6956,445.1152 625.8831,551.4277" fill="none" id="Retry_Result-to-Result_Package&lt;Ok_Type, Err_Type&gt;" style="stroke:#EC7211;stroke-width:3.125;"/><polygon fill="none" points="622.1146,569.7951,632.0055,552.6839,619.7606,550.1715,622.1146,569.7951" style="stroke:#EC7211;stroke-width:3.125;"/><text fill="#4E5D6C" font-family="Verdana" font-size="12.5" lengthAdjust="spacing" textLength="72.9431" x="678.3542" y="341.1122">instantiates</text></g><!--link Void_Result to Result_Package<Ok_Type, Err_Type>--><g class="link" data-entity-1="Void_Result" data-entity-2="Result_Package.Ok_Type. Err_Type." data-source-line="98" data-uid="lnk24" id="link_Void_Result_Result_Package.Ok_Type. Err_Type."><path codeLine="98" d="M855.8542,272.7534 C831.6563,298.4097 799.5729,328.6493 766.1354,349.3784 C756.9271,355.0972 751,350.1701 743.2188,357.7118 C684.6563,414.5763 652.6936,477.6692 628.6623,552.1692" fill="none" id="Void_Result-to-Result_Package&lt;Ok_Type, Err_Type&gt;" style="stroke:#EC7211;stroke-width:3.125;"/><polygon fill="none" points="622.9063,570.0138,634.6105,554.0879,622.7141,550.2505,622.9063,570.0138" style="stroke:#EC7211;stroke-width:3.125;"/><text fill="#4E5D6C" font-family="Verdana" font-size="12.5" lengthAdjust="spacing" textLength="72.9431" x="808.7708" y="341.1122">instantiates</text></g><!--link Domain_Error to Err_Type--><g class="link" data-entity-1="Domain_Error" data-entity-2="Err_Type" data-source-line="100" data-uid="lnk26" id="link_Domain_Error_Err_Type"><path codeLine="100" d="M1158.3854,284.743 C1199.4688,402.618 1281.5707,638.214 1309.5811,718.6098" fill="none" id="Domain_Error-to-Err_Type" style="stroke:#EC7211;stroke-width:3.125;"/><polygon fill="none" points="1315.75,736.3159,1315.4831,716.5535,1303.679,720.6661,1315.75,736.3159" style="stroke:#EC7211;stroke-width:3.125;"/><text fill="#4E5D6C" font-family="Verdana" font-size="12.5" lengthAdjust="spacing" textLength="41.5588" x="1186.1042" y="341.1122">can be</text></g><!--link Application_Error to Err_Type--><g class="link" data-entity-1="Application_Error" data-entity-2="Err_Type" data-source-line="101" data-uid="lnk27" id="link_Application_Error_Err_Type"><path codeLine="101" d="M1324.4688,284.743 C1324.4688,402.618 1324.4688,637.1701 1324.4688,717.5659" fill="none" id="Application_Error-to-Err_Type" style="stroke:#EC7211;stroke-width:3.125;"/><polygon fill="none" points="1324.4688,736.3159,1330.7188,717.5659,1318.2188,717.5659,1324.4688,736.3159" style="stroke:#EC7211;stroke-width:3.125;"/><text fill="#4E5D6C" font-family="Verdana" font-size="12.5" lengthAdjust="spacing" textLength="41.5588" x="1330.7188" y="341.1122">can be</text></g><!--link Infrastructure_Error to Err_Type--><g class="link" data-entity-1="Infrastructure_Error" data-entity-2="Err_Type" data-source-line="102" data-uid="lnk28" id="link_Infrastructure_Error_Err_Type"><path codeLine="102" d="M1506.2396,284.743 C1461.2813,402.618 1371.3576,638.4006 1340.7013,718.7964" fill="none" id="Infrastructure_Error-to-Err_Type" style="stroke:#EC7211;stroke-width:3.125;"/><polygon fill="none" points="1334.0208,736.3159,1346.5412,721.0232,1334.8615,716.5696,1334.0208,736.3159" style="stroke:#EC7211;stroke-width:3.125;"/><text fill="#4E5D6C" font-family="Verdana" font-size="12.5" lengthAdjust="spacing" textLength="41.5588" x="1496.6771" y="341.1122">can be</text></g><!--link Common Instantiations to GMN29--><g class="link" data-entity-1="Common Instantiations" data-entity-2="GMN29" data-source-line="105" data-uid="lnk31" id="link_Common Instantiations_GMN29"><path d="M119.2604,298.6679 C119.2604,303.5644 119.2604,308.6429 119.2604,313.886 C119.2604,324.3724 119.2604,335.5173 119.2604,347.1817 C119.2604,370.5105 119.2604,395.9172 119.2604,422.2886 C119.2604,527.7743 119.2604,648.6961 119.2604,713.8159" fill="none" id="Common Instantiations-GMN29" style="stroke:#EC7211;stroke-width:3.125;stroke-dasharray:7.2917,7.2917;"/></g><!--SRC=[dLRVRzis47xNNt7rNfoayhAs3u6R6d0SgpFQnO6TvMc0GCidcwXC2YIrnblxl-yeahRyQp026B38x-wx4- -xezwO9QuGs7STIyN40YF3JO4mGLqL1XwPCQW4Z5PbGNR2CCEb-4iyhKkCfon762eb5VpEnBpWOX55R-QOSu4mUdWQJfB-O9WEnb_74_XbU9DyI6us-E1hVpeDM98axuPRxFFmOJWP3JReTN93Q5Iox1jR8BJwCxai-Ampa0exztB5kEYuX5lmRmH0lwnWMaFBxQQFplDs_2srcR-rMTTFlHRStYvGeE9PhqVFEw5fnz81nF3C56V2GDUVJEetF4p4pwoea70VmmCsK412K0V5zTyLsRVtN2ysKRm9ERRTEMz93en6EYKgktqdPO5CRFUj_o7m6KtmQERiWE2oatFmISUgVOyvimhPoVeepwvrC_yzyZ-OoPQt4pIL4guwRVUMcmqo_EdgYw9QxPN2rweknROshW1XxRs5D0YABvO6P7wEIcggoyilk8O46UM3kdjvwMly805VCYnjQsXWcP8alPcin9pYelPM0xagUO6nuTHlXbX1K_-OjOSJgJBKW7MPbw6T73Qjob8gew7qxRYo9nLmdzkVslR6y8NPLWt9vPN8R5fmp__cSsptty8T7MbII6OkGDKd6tgTkqndkE1E8W0y9_DFSDsv1feJOHU2enL9op9h6sAsXdzGoTR5Hs-7XSPz5n9S7tw5kwsHc5COjxBFBj6FaLlPGaK_6wrFfxYYM2EX3LMKr-D8soPkp1FVjjify8JQfCq10K6fyAa73NIhnb3wZK7TVri5UUP7NY8L2a-pZojJLYU8fuRUwGGpgLwjJzF-NxxEzJZji-JpqwpD0T5ahBcs7TWiY9jB5ghBi3VszqlXXhNBpOU_WY-SAjtrGUmYp0FKjQQxT50ggFsA6aaOV37DxPrtx9TbmRDQ6SS3aK5wRh1xD8mN-cImaSWLqqPLcHqAn-FLDcT7dAwrmLKQvdqZB1txEHTQ7FVs9sCNAas3QBSHulX7xwmRiWjyqswMvK3qhsRQ5VchQNP4_LgMQ4URZYLOM-ECqOZ3w51T9qsFQkEaTLHVIZDfZ5pLjzBnKHVPMHy-o-xeooNdnjz5ltLe_Dlik3cyHzvrx3srvFCv2iYeXPGi82_aTyBUT-hRIMeseqy_MQ9omGZwqAbxExPtbISjbIpPehQ8DZFwFm00]--></g></svg>