<svg xmlns="http://www.w3.org/2000/svg" xmlns:xlink="http://www.w3.org/1999/xlink" contentStyleType="text/css" data-diagram-type="ACTIVITY" height="2343.75px" preserveAspectRatio="none" style="width:1428px;height:2343px;" version="1.1" viewBox="0 0 1428 2343" width="1428.125px" zoomAndPan="magnify"><title>Retry Handler Execution Flow</title><defs><linearGradient id="g17y06t064kooy0" x1="50%" x2="50%" y1="0%" y2="100%"><stop offset="0%" stop-color="#FFFFFF"/><stop offset="100%" stop-color="#EEEEEE"/></linearGradient><linearGradient id="g17y06t064kooy1" x1="50%" x2="50%" y1="0%" y2="100%"><stop offset="0%" stop-color="#F18E3E"/><stop offset="100%" stop-color="#EC7211"/></linearGradient></defs><g><g class="title" data-source-line="2"><rect fill="url(#g17y06t064kooy0)" height="71.4722" rx="4.1667" ry="4.1667" style="stroke:#EEEEEE;stroke-width:1.0417;" width="530.8228" x="447.2483" y="15.625"/><text fill="#EC7211" font-family="Verdana" font-size="20.8333" font-weight="bold" lengthAdjust="spacing" textLength="347.2188" x="539.0503" y="46.9869">Retry Handler Execution Flow</text><text fill="#EC7211" font-family="Verdana" font-size="20.8333" font-weight="bold" lengthAdjust="spacing" textLength="509.9894" x="457.665" y="72.3063">With Circuit Breaker and Backoff Strategies</text></g><ellipse cx="962.1343" cy="103.7638" fill="#0073BB" rx="10.4167" ry="10.4167" style="stroke:#222222;stroke-width:1.0417;"/><rect fill="url(#g17y06t064kooy1)" height="46.4417" rx="4.1667" ry="4.1667" style="stroke:#EC7211;stroke-width:0.5208;" width="175.9827" x="874.143" y="135.0138"/><text fill="#FFFFFF" font-family="Verdana" font-size="12.5" lengthAdjust="spacing" textLength="144.7327" x="889.768" y="163.206">Initialize Retry Handler</text><rect fill="url(#g17y06t064kooy1)" height="46.4417" rx="4.1667" ry="4.1667" style="stroke:#EC7211;stroke-width:0.5208;" width="185.2234" x="869.5226" y="202.2888"/><text fill="#FFFFFF" font-family="Verdana" font-size="12.5" lengthAdjust="spacing" textLength="153.9734" x="885.1476" y="230.481">Set attempt counter = 0</text><rect fill="url(#g17y06t064kooy1)" height="46.4417" rx="4.1667" ry="4.1667" style="stroke:#EC7211;stroke-width:0.5208;" width="202.2461" x="861.0113" y="335.3434"/><text fill="#FFFFFF" font-family="Verdana" font-size="12.5" lengthAdjust="spacing" textLength="170.9961" x="876.6363" y="363.5356">Increment attempt counter</text><rect fill="url(#g17y06t064kooy1)" height="46.4417" rx="4.1667" ry="4.1667" style="stroke:#EC7211;stroke-width:0.5208;" width="83.3252" x="920.4717" y="516.9434"/><text fill="#FFFFFF" font-family="Verdana" font-size="12.5" lengthAdjust="spacing" textLength="52.0752" x="936.0967" y="545.1355">Fail Fast</text><rect fill="url(#g17y06t064kooy1)" height="46.4417" rx="4.1667" ry="4.1667" style="stroke:#EC7211;stroke-width:0.5208;" width="198.5046" x="862.882" y="584.2183"/><text fill="#FFFFFF" font-family="Verdana" font-size="12.5" lengthAdjust="spacing" textLength="167.2546" x="878.507" y="612.4105">Return Circuit_Open_Error</text><ellipse cx="962.1343" cy="662.9517" fill="none" rx="11.4583" ry="11.4583" style="stroke:#222222;stroke-width:1.0417;"/><ellipse cx="962.1343" cy="662.9517" fill="#222222" rx="6.25" ry="6.25" style="stroke:#222222;stroke-width:1.0417;"/><polygon fill="#EEEEEE" points="914.6927,459.7809,1009.5759,459.7809,1022.0759,472.585,1009.5759,485.3892,914.6927,485.3892,902.1927,472.585,914.6927,459.7809" style="stroke:#BEBEBE;stroke-width:0.5208;"/><text fill="#4E5D6C" font-family="Verdana" font-size="12.5" lengthAdjust="spacing" textLength="21.3562" x="971.5093" y="503.1647">yes</text><text fill="#4E5D6C" font-family="Verdana" font-size="12.5" lengthAdjust="spacing" textLength="84.4666" x="919.901" y="477.5564">Circuit Open?</text><polygon fill="#EEEEEE" points="879.5822,402.6184,1044.6864,402.6184,1057.1864,415.4226,1044.6864,428.2267,879.5822,428.2267,867.0822,415.4226,879.5822,402.6184" style="stroke:#BEBEBE;stroke-width:0.5208;"/><text fill="#4E5D6C" font-family="Verdana" font-size="12.5" lengthAdjust="spacing" textLength="21.3562" x="971.5093" y="446.0022">yes</text><text fill="#4E5D6C" font-family="Verdana" font-size="12.5" lengthAdjust="spacing" textLength="154.6875" x="884.7905" y="420.3939">Circuit Breaker Enabled?</text><polygon fill="#EEEEEE" points="962.1343,718.16,974.6343,730.66,962.1343,743.16,949.6343,730.66,962.1343,718.16" style="stroke:#BEBEBE;stroke-width:0.5208;"/><rect fill="url(#g17y06t064kooy1)" height="46.4417" rx="4.1667" ry="4.1667" style="stroke:#EC7211;stroke-width:0.5208;" width="204.1504" x="860.0591" y="763.9933"/><text fill="#FFFFFF" font-family="Verdana" font-size="12.5" lengthAdjust="spacing" textLength="172.9004" x="875.6841" y="792.1855">Fire Attempt_Started Event</text><rect fill="none" height="386.9832" rx="4.1667" ry="4.1667" style="stroke:#EC7211;stroke-width:1.5625;" width="399.7386" x="760.3378" y="820.8516"/><path d="M896.8755,820.8516 L896.8755,839.1683 L886.4588,849.585 L760.3378,849.585" fill="none" style="stroke:#EC7211;stroke-width:1.5625;"/><text fill="#EC7211" font-family="Verdana" font-size="12.5" lengthAdjust="spacing" textLength="115.7043" x="768.6712" y="839.6688">Execute Operation</text><rect fill="url(#g17y06t064kooy1)" height="46.4417" rx="4.1667" ry="4.1667" style="stroke:#EC7211;stroke-width:0.5208;" width="189.3494" x="867.4596" y="867.2933"/><text fill="#FFFFFF" font-family="Verdana" font-size="12.5" lengthAdjust="spacing" textLength="158.0994" x="883.0846" y="895.4854">Call Execute_Operation()</text><polygon fill="#EEEEEE" points="887.5931,934.5683,1036.6755,934.5683,1049.1755,947.3724,1036.6755,960.1766,887.5931,960.1766,875.0931,947.3724,887.5931,934.5683" style="stroke:#BEBEBE;stroke-width:0.5208;"/><text fill="#4E5D6C" font-family="Verdana" font-size="12.5" lengthAdjust="spacing" textLength="138.6658" x="892.8014" y="952.3438">Operation Successful?</text><text fill="#4E5D6C" font-family="Verdana" font-size="12.5" lengthAdjust="spacing" textLength="21.3562" x="848.5285" y="939.5396">yes</text><text fill="#4E5D6C" font-family="Verdana" font-size="12.5" lengthAdjust="spacing" textLength="15.4968" x="1054.3839" y="939.5396">no</text><rect fill="url(#g17y06t064kooy1)" height="46.4417" rx="4.1667" ry="4.1667" style="stroke:#EC7211;stroke-width:0.5208;" width="167.0105" x="781.1712" y="970.5933"/><text fill="#FFFFFF" font-family="Verdana" font-size="12.5" lengthAdjust="spacing" textLength="135.7605" x="796.7962" y="998.7854">Update Success Stats</text><rect fill="url(#g17y06t064kooy1)" height="46.4417" rx="4.1667" ry="4.1667" style="stroke:#EC7211;stroke-width:0.5208;" width="148.9685" x="790.1922" y="1037.8682"/><text fill="#FFFFFF" font-family="Verdana" font-size="12.5" lengthAdjust="spacing" textLength="117.7185" x="805.8172" y="1066.0604">Fire Success Event</text><rect fill="url(#g17y06t064kooy1)" height="46.4417" rx="4.1667" ry="4.1667" style="stroke:#EC7211;stroke-width:0.5208;" width="145.3674" x="791.9927" y="1105.1432"/><text fill="#FFFFFF" font-family="Verdana" font-size="12.5" lengthAdjust="spacing" textLength="114.1174" x="807.6177" y="1133.3354">Return Ok(Result)</text><ellipse cx="864.6764" cy="1183.8765" fill="none" rx="11.4583" ry="11.4583" style="stroke:#222222;stroke-width:1.0417;"/><ellipse cx="864.6764" cy="1183.8765" fill="#222222" rx="6.25" ry="6.25" style="stroke:#222222;stroke-width:1.0417;"/><rect fill="url(#g17y06t064kooy1)" height="46.4417" rx="4.1667" ry="4.1667" style="stroke:#EC7211;stroke-width:0.5208;" width="116.7786" x="1001.2029" y="970.5933"/><text fill="#FFFFFF" font-family="Verdana" font-size="12.5" lengthAdjust="spacing" textLength="85.5286" x="1016.8279" y="998.7854">Capture Error</text><rect fill="url(#g17y06t064kooy1)" height="46.4417" rx="4.1667" ry="4.1667" style="stroke:#EC7211;stroke-width:0.5208;" width="159.3018" x="979.9413" y="1037.8682"/><text fill="#FFFFFF" font-family="Verdana" font-size="12.5" lengthAdjust="spacing" textLength="128.0518" x="995.5663" y="1066.0604">Update Failure Stats</text><polygon fill="#EEEEEE" points="889.6378,1232.6828,1034.6308,1232.6828,1047.1308,1245.487,1034.6308,1258.2911,889.6378,1258.2911,877.1378,1245.487,889.6378,1232.6828" style="stroke:#BEBEBE;stroke-width:0.5208;"/><text fill="#4E5D6C" font-family="Verdana" font-size="12.5" lengthAdjust="spacing" textLength="134.5764" x="894.8461" y="1250.4583">Should_Retry(Error)?</text><text fill="#4E5D6C" font-family="Verdana" font-size="12.5" lengthAdjust="spacing" textLength="21.3562" x="850.5732" y="1237.6541">yes</text><text fill="#4E5D6C" font-family="Verdana" font-size="12.5" lengthAdjust="spacing" textLength="15.4968" x="1052.3392" y="1237.6541">no</text><rect fill="none" height="305.7307" rx="4.1667" ry="4.1667" style="stroke:#EC7211;stroke-width:1.5625;" width="1041.6951" x="93.5506" y="1325.5661"/><path d="M211.5885,1325.5661 L211.5885,1343.8828 L201.1719,1354.2994 L93.5506,1354.2994" fill="none" style="stroke:#EC7211;stroke-width:1.5625;"/><text fill="#EC7211" font-family="Verdana" font-size="12.5" lengthAdjust="spacing" textLength="97.2046" x="101.884" y="1344.3832">Calculate Delay</text><polygon fill="#EEEEEE" points="556.8766,1372.0078,671.9198,1372.0078,684.4198,1384.8119,671.9198,1397.6161,556.8766,1397.6161,544.3766,1384.8119,556.8766,1372.0078" style="stroke:#BEBEBE;stroke-width:0.5208;"/><text fill="#4E5D6C" font-family="Verdana" font-size="12.5" lengthAdjust="spacing" textLength="104.6265" x="562.085" y="1389.7832">Backoff Strategy</text><rect fill="url(#g17y06t064kooy1)" height="46.4417" rx="4.1667" ry="4.1667" style="stroke:#EC7211;stroke-width:0.5208;" width="159.4177" x="103.9673" y="1459.2468"/><text fill="#FFFFFF" font-family="Verdana" font-size="12.5" lengthAdjust="spacing" textLength="128.1677" x="119.5923" y="1487.439">delay = initial_delay</text><rect fill="url(#g17y06t064kooy1)" height="46.4417" rx="4.1667" ry="4.1667" style="stroke:#EC7211;stroke-width:0.5208;" width="225.8301" x="284.2183" y="1459.2468"/><text fill="#FFFFFF" font-family="Verdana" font-size="12.5" lengthAdjust="spacing" textLength="194.5801" x="299.8433" y="1487.439">delay = initial_delay * attempt</text><rect fill="url(#g17y06t064kooy1)" height="46.4417" rx="4.1667" ry="4.1667" style="stroke:#EC7211;stroke-width:0.5208;" width="320.3186" x="530.8818" y="1459.2468"/><text fill="#FFFFFF" font-family="Verdana" font-size="12.5" lengthAdjust="spacing" textLength="289.0686" x="546.5068" y="1487.439">delay = initial_delay * multiplier^(attempt-1)</text><rect fill="url(#g17y06t064kooy1)" height="46.4417" rx="4.1667" ry="4.1667" style="stroke:#EC7211;stroke-width:0.5208;" width="252.7954" x="872.0337" y="1459.2468"/><text fill="#FFFFFF" font-family="Verdana" font-size="12.5" lengthAdjust="spacing" textLength="221.5454" x="887.6587" y="1487.439">delay = initial_delay * fib(attempt)</text><polygon fill="#EEEEEE" points="614.3982,1526.5218,614.3982,1526.5218,626.8982,1539.0218,614.3982,1551.5218,614.3982,1551.5218,601.8982,1539.0218,614.3982,1526.5218" style="stroke:#BEBEBE;stroke-width:0.5208;"/><rect fill="url(#g17y06t064kooy1)" height="46.4417" rx="4.1667" ry="4.1667" style="stroke:#EC7211;stroke-width:0.5208;" width="183.0383" x="522.879" y="1572.3551"/><text fill="#FFFFFF" font-family="Verdana" font-size="12.5" lengthAdjust="spacing" textLength="151.7883" x="538.504" y="1600.5473">Cap delay at max_delay</text><rect fill="none" height="229.6687" rx="4.1667" ry="4.1667" style="stroke:#EC7211;stroke-width:1.5625;" width="1149.6297" x="39.5833" y="1641.7135"/><path d="M131.5043,1641.7135 L131.5043,1660.0301 L121.0876,1670.4468 L39.5833,1670.4468" fill="none" style="stroke:#EC7211;stroke-width:1.5625;"/><text fill="#EC7211" font-family="Verdana" font-size="12.5" lengthAdjust="spacing" textLength="71.0876" x="47.9167" y="1660.5306">Apply Jitter</text><polygon fill="#EEEEEE" points="574.4425,1688.1551,654.3538,1688.1551,666.8538,1700.9593,654.3538,1713.7634,574.4425,1713.7634,561.9425,1700.9593,574.4425,1688.1551" style="stroke:#BEBEBE;stroke-width:0.5208;"/><text fill="#4E5D6C" font-family="Verdana" font-size="12.5" lengthAdjust="spacing" textLength="69.4946" x="579.6509" y="1705.9306">Jitter Mode</text><rect fill="url(#g17y06t064kooy1)" height="46.4417" rx="4.1667" ry="4.1667" style="stroke:#EC7211;stroke-width:0.5208;" width="152.0264" x="50" y="1766.6072"/><text fill="#FFFFFF" font-family="Verdana" font-size="12.5" lengthAdjust="spacing" textLength="120.7764" x="65.625" y="1794.7993">final_delay = delay</text><rect fill="url(#g17y06t064kooy1)" height="46.4417" rx="4.1667" ry="4.1667" style="stroke:#EC7211;stroke-width:0.5208;" width="228.5522" x="222.8597" y="1766.6072"/><text fill="#FFFFFF" font-family="Verdana" font-size="12.5" lengthAdjust="spacing" textLength="197.3022" x="238.4847" y="1794.7993">final_delay = random(0, delay)</text><rect fill="url(#g17y06t064kooy1)" height="46.4417" rx="4.1667" ry="4.1667" style="stroke:#EC7211;stroke-width:0.5208;" width="308.3862" x="472.2453" y="1766.6072"/><text fill="#FFFFFF" font-family="Verdana" font-size="12.5" lengthAdjust="spacing" textLength="277.1362" x="487.8703" y="1794.7993">final_delay = delay/2 + random(0, delay/2)</text><rect fill="url(#g17y06t064kooy1)" height="46.4417" rx="4.1667" ry="4.1667" style="stroke:#EC7211;stroke-width:0.5208;" width="377.3315" x="801.4648" y="1766.6072"/><text fill="#FFFFFF" font-family="Verdana" font-size="12.5" lengthAdjust="spacing" textLength="346.0815" x="817.0898" y="1794.7993">final_delay = min(max_delay, random(initial, prev*3))</text><polygon fill="#EEEEEE" points="614.3982,1833.8821,614.3982,1833.8821,626.8982,1846.3821,614.3982,1858.8821,614.3982,1858.8821,601.8982,1846.3821,614.3982,1833.8821" style="stroke:#BEBEBE;stroke-width:0.5208;"/><rect fill="url(#g17y06t064kooy1)" height="46.4417" rx="4.1667" ry="4.1667" style="stroke:#EC7211;stroke-width:0.5208;" width="139.0137" x="544.8914" y="1892.2155"/><text fill="#FFFFFF" font-family="Verdana" font-size="12.5" lengthAdjust="spacing" textLength="107.7637" x="560.5164" y="1920.4076">Wait(final_delay)</text><rect fill="url(#g17y06t064kooy1)" height="46.4417" rx="4.1667" ry="4.1667" style="stroke:#EC7211;stroke-width:0.5208;" width="205.5359" x="511.6302" y="1959.4905"/><text fill="#FFFFFF" font-family="Verdana" font-size="12.5" lengthAdjust="spacing" textLength="174.2859" x="527.2552" y="1987.6826">Fire Retry_Scheduled Event</text><polygon fill="#EEEEEE" points="565.2751,1268.7078,663.5213,1268.7078,676.0213,1281.5119,663.5213,1294.3161,565.2751,1294.3161,552.7751,1281.5119,565.2751,1268.7078" style="stroke:#BEBEBE;stroke-width:0.5208;"/><text fill="#4E5D6C" font-family="Verdana" font-size="12.5" lengthAdjust="spacing" textLength="15.4968" x="623.7732" y="1312.0916">no</text><text fill="#4E5D6C" font-family="Verdana" font-size="12.5" lengthAdjust="spacing" textLength="87.8296" x="570.4834" y="1286.4833">Last Attempt?</text><polygon fill="#EEEEEE" points="614.3982,2026.7654,626.8982,2039.2654,614.3982,2051.7654,601.8982,2039.2654,614.3982,2026.7654" style="stroke:#BEBEBE;stroke-width:0.5208;"/><rect fill="url(#g17y06t064kooy1)" height="46.4417" rx="4.1667" ry="4.1667" style="stroke:#EC7211;stroke-width:0.5208;" width="153.8147" x="1232.9631" y="1268.7078"/><text fill="#FFFFFF" font-family="Verdana" font-size="12.5" lengthAdjust="spacing" textLength="122.5647" x="1248.5881" y="1296.8999">Non-retryable error</text><rect fill="url(#g17y06t064kooy1)" height="46.4417" rx="4.1667" ry="4.1667" style="stroke:#EC7211;stroke-width:0.5208;" width="139.2822" x="1240.2293" y="1351.3036"/><text fill="#FFFFFF" font-family="Verdana" font-size="12.5" lengthAdjust="spacing" textLength="108.0322" x="1255.8543" y="1379.4957">Return Err(Error)</text><ellipse cx="1309.8704" cy="1445.6594" fill="none" rx="11.4583" ry="11.4583" style="stroke:#222222;stroke-width:1.0417;"/><ellipse cx="1309.8704" cy="1445.6594" fill="#222222" rx="6.25" ry="6.25" style="stroke:#222222;stroke-width:1.0417;"/><polygon fill="#EEEEEE" points="873.3444,269.5638,1050.9242,269.5638,1063.4242,282.368,1050.9242,295.1721,873.3444,295.1721,860.8444,282.368,873.3444,269.5638" style="stroke:#BEBEBE;stroke-width:0.5208;"/><text fill="#4E5D6C" font-family="Verdana" font-size="12.5" lengthAdjust="spacing" textLength="21.3562" x="971.5093" y="312.9476">yes</text><text fill="#4E5D6C" font-family="Verdana" font-size="12.5" lengthAdjust="spacing" textLength="167.1631" x="878.5528" y="287.3393">Attempt &lt; Max_Attempts?</text><text fill="#4E5D6C" font-family="Verdana" font-size="12.5" lengthAdjust="spacing" textLength="15.4968" x="840.1393" y="274.5351">no</text><rect fill="url(#g17y06t064kooy1)" height="46.4417" rx="4.1667" ry="4.1667" style="stroke:#EC7211;stroke-width:0.5208;" width="206.0608" x="859.1039" y="2095.5154"/><text fill="#FFFFFF" font-family="Verdana" font-size="12.5" lengthAdjust="spacing" textLength="174.8108" x="874.7289" y="2123.7076">Fire Retry_Exhausted Event</text><rect fill="url(#g17y06t064kooy1)" height="46.4417" rx="4.1667" ry="4.1667" style="stroke:#EC7211;stroke-width:0.5208;" width="266.0767" x="829.096" y="2162.7904"/><text fill="#FFFFFF" font-family="Verdana" font-size="12.5" lengthAdjust="spacing" textLength="234.8267" x="844.721" y="2190.9826">Return Err(Max_Attempts_Exceeded)</text><path d="M994.426,2219.6487 L994.426,2271.4737 L973.5926,2275.6404 L994.426,2279.807 L994.426,2331.632 A0,0 0 0 0 994.426,2331.632 L1267.4342,2331.632 A0,0 0 0 0 1267.4342,2331.632 L1267.4342,2230.0654 L1257.0175,2219.6487 L994.426,2219.6487 A0,0 0 0 0 994.426,2219.6487" fill="#0073BB" style="stroke:#005C96;stroke-width:1.0417;"/><path d="M1257.0175,2219.6487 L1257.0175,2230.0654 L1267.4342,2230.0654 L1257.0175,2219.6487" fill="#0073BB" style="stroke:#005C96;stroke-width:1.0417;"/><text fill="#FFFFFF" font-family="Verdana" font-size="12.5" font-weight="bold" lengthAdjust="spacing" textLength="96.6858" x="1005.8843" y="2242.6325">Key Features:</text><text fill="#FFFFFF" font-family="Verdana" font-size="12.5" lengthAdjust="spacing" textLength="175.5798" x="1005.8843" y="2257.8242">- Circuit breaker integration</text><text fill="#FFFFFF" font-family="Verdana" font-size="12.5" lengthAdjust="spacing" textLength="175.1648" x="1005.8843" y="2273.0158">- Multiple backoff strategies</text><text fill="#FFFFFF" font-family="Verdana" font-size="12.5" lengthAdjust="spacing" textLength="240.7166" x="1005.8843" y="2288.2075">- Jitter for thundering herd prevention</text><text fill="#FFFFFF" font-family="Verdana" font-size="12.5" lengthAdjust="spacing" textLength="201.886" x="1005.8843" y="2303.3991">- Comprehensive event tracking</text><text fill="#FFFFFF" font-family="Verdana" font-size="12.5" lengthAdjust="spacing" textLength="193.2434" x="1005.8843" y="2318.5908">- Configurable retry predicates</text><ellipse cx="962.1343" cy="2275.6404" fill="none" rx="11.4583" ry="11.4583" style="stroke:#222222;stroke-width:1.0417;"/><ellipse cx="962.1343" cy="2275.6404" fill="#222222" rx="6.25" ry="6.25" style="stroke:#222222;stroke-width:1.0417;"/><line style="stroke:#EC7211;stroke-width:3.125;" x1="962.1343" x2="962.1343" y1="114.1805" y2="135.0138"/><polygon fill="#EC7211" points="957.9676,124.5972,962.1343,135.0138,966.301,124.5972,962.1343,128.7638" style="stroke:#EC7211;stroke-width:1.0417;"/><line style="stroke:#EC7211;stroke-width:3.125;" x1="962.1343" x2="962.1343" y1="181.4555" y2="202.2888"/><polygon fill="#EC7211" points="957.9676,191.8722,962.1343,202.2888,966.301,191.8722,962.1343,196.0388" style="stroke:#EC7211;stroke-width:1.0417;"/><line style="stroke:#EC7211;stroke-width:3.125;" x1="962.1343" x2="962.1343" y1="563.385" y2="584.2183"/><polygon fill="#EC7211" points="957.9676,573.8017,962.1343,584.2183,966.301,573.8017,962.1343,577.9683" style="stroke:#EC7211;stroke-width:1.0417;"/><line style="stroke:#EC7211;stroke-width:3.125;" x1="962.1343" x2="962.1343" y1="630.66" y2="651.4933"/><polygon fill="#EC7211" points="957.9676,641.0767,962.1343,651.4933,966.301,641.0767,962.1343,645.2433" style="stroke:#EC7211;stroke-width:1.0417;"/><line style="stroke:#EC7211;stroke-width:3.125;" x1="962.1343" x2="962.1343" y1="485.3892" y2="516.9434"/><polygon fill="#EC7211" points="957.9676,506.5267,962.1343,516.9434,966.301,506.5267,962.1343,510.6934" style="stroke:#EC7211;stroke-width:1.0417;"/><line style="stroke:#EC7211;stroke-width:3.125;" x1="1022.0759" x2="1071.8033" y1="472.585" y2="472.585"/><polygon fill="#EC7211" points="1067.6366,581.9829,1071.8033,592.3996,1075.97,581.9829,1071.8033,586.1496" style="stroke:#EC7211;stroke-width:3.125;"/><line style="stroke:#EC7211;stroke-width:3.125;" x1="1071.8033" x2="1071.8033" y1="472.585" y2="697.3267"/><line style="stroke:#EC7211;stroke-width:3.125;" x1="1071.8033" x2="962.1343" y1="697.3267" y2="697.3267"/><line style="stroke:#EC7211;stroke-width:3.125;" x1="962.1343" x2="962.1343" y1="697.3267" y2="718.16"/><polygon fill="#EC7211" points="957.9676,707.7433,962.1343,718.16,966.301,707.7433,962.1343,711.91" style="stroke:#EC7211;stroke-width:1.0417;"/><line style="stroke:#EC7211;stroke-width:3.125;" x1="962.1343" x2="962.1343" y1="428.2267" y2="459.7809"/><polygon fill="#EC7211" points="957.9676,449.3642,962.1343,459.7809,966.301,449.3642,962.1343,453.5309" style="stroke:#EC7211;stroke-width:1.0417;"/><line style="stroke:#EC7211;stroke-width:3.125;" x1="1057.1864" x2="1094.72" y1="415.4226" y2="415.4226"/><polygon fill="#EC7211" points="1090.5533,580.6371,1094.72,591.0538,1098.8866,580.6371,1094.72,584.8038" style="stroke:#EC7211;stroke-width:3.125;"/><line style="stroke:#EC7211;stroke-width:3.125;" x1="1094.72" x2="1094.72" y1="415.4226" y2="730.66"/><line style="stroke:#EC7211;stroke-width:3.125;" x1="1094.72" x2="974.6343" y1="730.66" y2="730.66"/><polygon fill="#EC7211" points="985.051,726.4933,974.6343,730.66,985.051,734.8267,980.8843,730.66" style="stroke:#EC7211;stroke-width:1.0417;"/><line style="stroke:#EC7211;stroke-width:3.125;" x1="962.1343" x2="962.1343" y1="381.7851" y2="402.6184"/><polygon fill="#EC7211" points="957.9676,392.2017,962.1343,402.6184,966.301,392.2017,962.1343,396.3684" style="stroke:#EC7211;stroke-width:1.0417;"/><line style="stroke:#EC7211;stroke-width:3.125;" x1="962.1343" x2="962.1343" y1="743.16" y2="763.9933"/><polygon fill="#EC7211" points="957.9676,753.5767,962.1343,763.9933,966.301,753.5767,962.1343,757.7433" style="stroke:#EC7211;stroke-width:1.0417;"/><line style="stroke:#EC7211;stroke-width:3.125;" x1="864.6764" x2="864.6764" y1="1017.0349" y2="1037.8682"/><polygon fill="#EC7211" points="860.5097,1027.4516,864.6764,1037.8682,868.8431,1027.4516,864.6764,1031.6182" style="stroke:#EC7211;stroke-width:1.0417;"/><line style="stroke:#EC7211;stroke-width:3.125;" x1="864.6764" x2="864.6764" y1="1084.3099" y2="1105.1432"/><polygon fill="#EC7211" points="860.5097,1094.7266,864.6764,1105.1432,868.8431,1094.7266,864.6764,1098.8932" style="stroke:#EC7211;stroke-width:1.0417;"/><line style="stroke:#EC7211;stroke-width:3.125;" x1="864.6764" x2="864.6764" y1="1151.5849" y2="1172.4182"/><polygon fill="#EC7211" points="860.5097,1162.0015,864.6764,1172.4182,868.8431,1162.0015,864.6764,1166.1682" style="stroke:#EC7211;stroke-width:1.0417;"/><line style="stroke:#EC7211;stroke-width:3.125;" x1="1059.5922" x2="1059.5922" y1="1017.0349" y2="1037.8682"/><polygon fill="#EC7211" points="1055.4255,1027.4516,1059.5922,1037.8682,1063.7589,1027.4516,1059.5922,1031.6182" style="stroke:#EC7211;stroke-width:1.0417;"/><line style="stroke:#EC7211;stroke-width:3.125;" x1="875.0931" x2="864.6764" y1="947.3724" y2="947.3724"/><line style="stroke:#EC7211;stroke-width:3.125;" x1="864.6764" x2="864.6764" y1="947.3724" y2="970.5933"/><polygon fill="#EC7211" points="860.5097,960.1766,864.6764,970.5933,868.8431,960.1766,864.6764,964.3433" style="stroke:#EC7211;stroke-width:1.0417;"/><line style="stroke:#EC7211;stroke-width:3.125;" x1="1049.1755" x2="1059.5922" y1="947.3724" y2="947.3724"/><line style="stroke:#EC7211;stroke-width:3.125;" x1="1059.5922" x2="1059.5922" y1="947.3724" y2="970.5933"/><polygon fill="#EC7211" points="1055.4255,960.1766,1059.5922,970.5933,1063.7589,960.1766,1059.5922,964.3433" style="stroke:#EC7211;stroke-width:1.0417;"/><line style="stroke:#EC7211;stroke-width:3.125;" x1="1059.5922" x2="1059.5922" y1="1084.3099" y2="1200.5432"/><line style="stroke:#EC7211;stroke-width:3.125;" x1="1059.5922" x2="962.1343" y1="1200.5432" y2="1200.5432"/><line style="stroke:#EC7211;stroke-width:3.125;" x1="962.1343" x2="962.1343" y1="1200.5432" y2="1232.6828"/><polygon fill="#EC7211" points="957.9676,1222.2661,962.1343,1232.6828,966.301,1222.2661,962.1343,1226.4328" style="stroke:#EC7211;stroke-width:1.0417;"/><line style="stroke:#EC7211;stroke-width:3.125;" x1="962.1343" x2="962.1343" y1="913.7349" y2="934.5683"/><polygon fill="#EC7211" points="957.9676,924.1516,962.1343,934.5683,966.301,924.1516,962.1343,928.3183" style="stroke:#EC7211;stroke-width:1.0417;"/><line style="stroke:#EC7211;stroke-width:3.125;" x1="962.1343" x2="962.1343" y1="810.435" y2="867.2933"/><polygon fill="#EC7211" points="957.9676,856.8766,962.1343,867.2933,966.301,856.8766,962.1343,861.0433" style="stroke:#EC7211;stroke-width:1.0417;"/><line style="stroke:#EC7211;stroke-width:3.125;" x1="544.3766" x2="183.6761" y1="1384.8119" y2="1384.8119"/><line style="stroke:#EC7211;stroke-width:3.125;" x1="183.6761" x2="183.6761" y1="1384.8119" y2="1459.2468"/><polygon fill="#EC7211" points="179.5095,1448.8302,183.6761,1459.2468,187.8428,1448.8302,183.6761,1452.9968" style="stroke:#EC7211;stroke-width:1.0417;"/><text fill="#4E5D6C" font-family="Verdana" font-size="12.5" lengthAdjust="spacing" textLength="33.2458" x="188.8845" y="1426.9994">Fixed</text><line style="stroke:#EC7211;stroke-width:3.125;" x1="684.4198" x2="998.4314" y1="1384.8119" y2="1384.8119"/><line style="stroke:#EC7211;stroke-width:3.125;" x1="998.4314" x2="998.4314" y1="1384.8119" y2="1459.2468"/><polygon fill="#EC7211" points="994.2647,1448.8302,998.4314,1459.2468,1002.5981,1448.8302,998.4314,1452.9968" style="stroke:#EC7211;stroke-width:1.0417;"/><text fill="#4E5D6C" font-family="Verdana" font-size="12.5" lengthAdjust="spacing" textLength="57.8613" x="1003.6397" y="1426.9994">Fibonacci</text><line style="stroke:#EC7211;stroke-width:3.125;" x1="397.1334" x2="397.1334" y1="1384.8119" y2="1459.2468"/><polygon fill="#EC7211" points="392.9667,1448.8302,397.1334,1459.2468,401.3,1448.8302,397.1334,1452.9968" style="stroke:#EC7211;stroke-width:1.0417;"/><text fill="#4E5D6C" font-family="Verdana" font-size="12.5" lengthAdjust="spacing" textLength="38.5864" x="402.3417" y="1421.7911">Linear</text><line style="stroke:#EC7211;stroke-width:3.125;" x1="614.3982" x2="614.3982" y1="1397.6161" y2="1418.158"/><line style="stroke:#EC7211;stroke-width:3.125;" x1="614.3982" x2="691.0411" y1="1418.158" y2="1418.158"/><line style="stroke:#EC7211;stroke-width:3.125;" x1="691.0411" x2="691.0411" y1="1418.158" y2="1459.2468"/><polygon fill="#EC7211" points="686.8744,1448.8302,691.0411,1459.2468,695.2077,1448.8302,691.0411,1452.9968" style="stroke:#EC7211;stroke-width:1.0417;"/><text fill="#4E5D6C" font-family="Verdana" font-size="12.5" lengthAdjust="spacing" textLength="73.2361" x="619.6065" y="1428.1932">Exponential</text><line style="stroke:#EC7211;stroke-width:3.125;" x1="183.6761" x2="183.6761" y1="1505.6885" y2="1539.0218"/><line style="stroke:#EC7211;stroke-width:3.125;" x1="183.6761" x2="601.8982" y1="1539.0218" y2="1539.0218"/><polygon fill="#EC7211" points="591.4815,1534.8551,601.8982,1539.0218,591.4815,1543.1885,595.6482,1539.0218" style="stroke:#EC7211;stroke-width:1.0417;"/><line style="stroke:#EC7211;stroke-width:3.125;" x1="998.4314" x2="998.4314" y1="1505.6885" y2="1539.0218"/><line style="stroke:#EC7211;stroke-width:3.125;" x1="998.4314" x2="626.8982" y1="1539.0218" y2="1539.0218"/><polygon fill="#EC7211" points="637.3149,1534.8551,626.8982,1539.0218,637.3149,1543.1885,633.1482,1539.0218" style="stroke:#EC7211;stroke-width:1.0417;"/><line style="stroke:#EC7211;stroke-width:3.125;" x1="397.1334" x2="397.1334" y1="1505.6885" y2="1539.0218"/><polygon fill="#EC7211" points="392.9667,1528.6051,397.1334,1539.0218,401.3,1528.6051,397.1334,1532.7718" style="stroke:#EC7211;stroke-width:1.0417;"/><line style="stroke:#EC7211;stroke-width:3.125;" x1="691.0411" x2="691.0411" y1="1505.6885" y2="1510.8968"/><line style="stroke:#EC7211;stroke-width:3.125;" x1="691.0411" x2="614.3982" y1="1510.8968" y2="1510.8968"/><line style="stroke:#EC7211;stroke-width:3.125;" x1="614.3982" x2="614.3982" y1="1510.8968" y2="1526.5218"/><polygon fill="#EC7211" points="610.2315,1516.1051,614.3982,1526.5218,618.5649,1516.1051,614.3982,1520.2718" style="stroke:#EC7211;stroke-width:1.0417;"/><line style="stroke:#EC7211;stroke-width:3.125;" x1="614.3982" x2="614.3982" y1="1551.5218" y2="1572.3551"/><polygon fill="#EC7211" points="610.2315,1561.9385,614.3982,1572.3551,618.5649,1561.9385,614.3982,1566.1051" style="stroke:#EC7211;stroke-width:1.0417;"/><line style="stroke:#EC7211;stroke-width:3.125;" x1="561.9425" x2="126.0132" y1="1700.9593" y2="1700.9593"/><line style="stroke:#EC7211;stroke-width:3.125;" x1="126.0132" x2="126.0132" y1="1700.9593" y2="1766.6072"/><polygon fill="#EC7211" points="121.8465,1756.1905,126.0132,1766.6072,130.1799,1756.1905,126.0132,1760.3572" style="stroke:#EC7211;stroke-width:1.0417;"/><text fill="#4E5D6C" font-family="Verdana" font-size="12.5" lengthAdjust="spacing" textLength="32.2937" x="131.2215" y="1743.0176">None</text><line style="stroke:#EC7211;stroke-width:3.125;" x1="666.8538" x2="990.1306" y1="1700.9593" y2="1700.9593"/><line style="stroke:#EC7211;stroke-width:3.125;" x1="990.1306" x2="990.1306" y1="1700.9593" y2="1766.6072"/><polygon fill="#EC7211" points="985.9639,1756.1905,990.1306,1766.6072,994.2973,1756.1905,990.1306,1760.3572" style="stroke:#EC7211;stroke-width:1.0417;"/><text fill="#4E5D6C" font-family="Verdana" font-size="12.5" lengthAdjust="spacing" textLength="80.3894" x="995.3389" y="1743.0176">Decorrelated</text><line style="stroke:#EC7211;stroke-width:3.125;" x1="337.1358" x2="337.1358" y1="1700.9593" y2="1766.6072"/><polygon fill="#EC7211" points="332.9692,1756.1905,337.1358,1766.6072,341.3025,1756.1905,337.1358,1760.3572" style="stroke:#EC7211;stroke-width:1.0417;"/><text fill="#4E5D6C" font-family="Verdana" font-size="12.5" lengthAdjust="spacing" textLength="21.9543" x="342.3442" y="1737.8092">Full</text><line style="stroke:#EC7211;stroke-width:3.125;" x1="614.3982" x2="614.3982" y1="1713.7634" y2="1734.1761"/><line style="stroke:#EC7211;stroke-width:3.125;" x1="614.3982" x2="626.4384" y1="1734.1761" y2="1734.1761"/><line style="stroke:#EC7211;stroke-width:3.125;" x1="626.4384" x2="626.4384" y1="1734.1761" y2="1766.6072"/><polygon fill="#EC7211" points="622.2717,1756.1905,626.4384,1766.6072,630.6051,1756.1905,626.4384,1760.3572" style="stroke:#EC7211;stroke-width:1.0417;"/><text fill="#4E5D6C" font-family="Verdana" font-size="12.5" lengthAdjust="spacing" textLength="34.5398" x="619.6065" y="1744.2113">Equal</text><line style="stroke:#EC7211;stroke-width:3.125;" x1="126.0132" x2="126.0132" y1="1813.0488" y2="1846.3821"/><line style="stroke:#EC7211;stroke-width:3.125;" x1="126.0132" x2="601.8982" y1="1846.3821" y2="1846.3821"/><polygon fill="#EC7211" points="591.4815,1842.2155,601.8982,1846.3821,591.4815,1850.5488,595.6482,1846.3821" style="stroke:#EC7211;stroke-width:1.0417;"/><line style="stroke:#EC7211;stroke-width:3.125;" x1="990.1306" x2="990.1306" y1="1813.0488" y2="1846.3821"/><line style="stroke:#EC7211;stroke-width:3.125;" x1="990.1306" x2="626.8982" y1="1846.3821" y2="1846.3821"/><polygon fill="#EC7211" points="637.3149,1842.2155,626.8982,1846.3821,637.3149,1850.5488,633.1482,1846.3821" style="stroke:#EC7211;stroke-width:1.0417;"/><line style="stroke:#EC7211;stroke-width:3.125;" x1="337.1358" x2="337.1358" y1="1813.0488" y2="1846.3821"/><polygon fill="#EC7211" points="332.9692,1835.9655,337.1358,1846.3821,341.3025,1835.9655,337.1358,1840.1321" style="stroke:#EC7211;stroke-width:1.0417;"/><line style="stroke:#EC7211;stroke-width:3.125;" x1="626.4384" x2="626.4384" y1="1813.0488" y2="1818.2571"/><line style="stroke:#EC7211;stroke-width:3.125;" x1="626.4384" x2="614.3982" y1="1818.2571" y2="1818.2571"/><line style="stroke:#EC7211;stroke-width:3.125;" x1="614.3982" x2="614.3982" y1="1818.2571" y2="1833.8821"/><polygon fill="#EC7211" points="610.2315,1823.4655,614.3982,1833.8821,618.5649,1823.4655,614.3982,1827.6321" style="stroke:#EC7211;stroke-width:1.0417;"/><line style="stroke:#EC7211;stroke-width:3.125;" x1="614.3982" x2="614.3982" y1="1618.7968" y2="1688.1551"/><polygon fill="#EC7211" points="610.2315,1677.7384,614.3982,1688.1551,618.5649,1677.7384,614.3982,1681.9051" style="stroke:#EC7211;stroke-width:1.0417;"/><line style="stroke:#EC7211;stroke-width:3.125;" x1="614.3982" x2="614.3982" y1="1858.8821" y2="1892.2155"/><polygon fill="#EC7211" points="610.2315,1881.7988,614.3982,1892.2155,618.5649,1881.7988,614.3982,1885.9655" style="stroke:#EC7211;stroke-width:1.0417;"/><line style="stroke:#EC7211;stroke-width:3.125;" x1="614.3982" x2="614.3982" y1="1938.6571" y2="1959.4905"/><polygon fill="#EC7211" points="610.2315,1949.0738,614.3982,1959.4905,618.5649,1949.0738,614.3982,1953.2405" style="stroke:#EC7211;stroke-width:1.0417;"/><line style="stroke:#EC7211;stroke-width:3.125;" x1="614.3982" x2="614.3982" y1="1294.3161" y2="1372.0078"/><polygon fill="#EC7211" points="610.2315,1361.5911,614.3982,1372.0078,618.5649,1361.5911,614.3982,1365.7578" style="stroke:#EC7211;stroke-width:1.0417;"/><line style="stroke:#EC7211;stroke-width:3.125;" x1="676.0213" x2="1199.6297" y1="1281.5119" y2="1281.5119"/><polygon fill="#EC7211" points="1195.4631,1659.5739,1199.6297,1669.9905,1203.7964,1659.5739,1199.6297,1663.7405" style="stroke:#EC7211;stroke-width:3.125;"/><line style="stroke:#EC7211;stroke-width:3.125;" x1="1199.6297" x2="1199.6297" y1="1281.5119" y2="2039.2654"/><line style="stroke:#EC7211;stroke-width:3.125;" x1="1199.6297" x2="626.8982" y1="2039.2654" y2="2039.2654"/><polygon fill="#EC7211" points="637.3149,2035.0988,626.8982,2039.2654,637.3149,2043.4321,633.1482,2039.2654" style="stroke:#EC7211;stroke-width:1.0417;"/><line style="stroke:#EC7211;stroke-width:3.125;" x1="614.3982" x2="614.3982" y1="2005.9321" y2="2026.7654"/><polygon fill="#EC7211" points="610.2315,2016.3488,614.3982,2026.7654,618.5649,2016.3488,614.3982,2020.5154" style="stroke:#EC7211;stroke-width:1.0417;"/><line style="stroke:#EC7211;stroke-width:3.125;" x1="1309.8704" x2="1309.8704" y1="1315.1494" y2="1351.3036"/><polygon fill="#EC7211" points="1305.7037,1340.8869,1309.8704,1351.3036,1314.0371,1340.8869,1309.8704,1345.0536" style="stroke:#EC7211;stroke-width:1.0417;"/><line style="stroke:#EC7211;stroke-width:3.125;" x1="1309.8704" x2="1309.8704" y1="1397.7453" y2="1434.201"/><polygon fill="#EC7211" points="1305.7037,1423.7844,1309.8704,1434.201,1314.0371,1423.7844,1309.8704,1427.951" style="stroke:#EC7211;stroke-width:1.0417;"/><line style="stroke:#EC7211;stroke-width:3.125;" x1="877.1378" x2="614.3982" y1="1245.487" y2="1245.487"/><line style="stroke:#EC7211;stroke-width:3.125;" x1="614.3982" x2="614.3982" y1="1245.487" y2="1268.7078"/><polygon fill="#EC7211" points="610.2315,1258.2911,614.3982,1268.7078,618.5649,1258.2911,614.3982,1262.4578" style="stroke:#EC7211;stroke-width:1.0417;"/><line style="stroke:#EC7211;stroke-width:3.125;" x1="1047.1308" x2="1309.8704" y1="1245.487" y2="1245.487"/><line style="stroke:#EC7211;stroke-width:3.125;" x1="1309.8704" x2="1309.8704" y1="1245.487" y2="1268.7078"/><polygon fill="#EC7211" points="1305.7037,1258.2911,1309.8704,1268.7078,1314.0371,1258.2911,1309.8704,1262.4578" style="stroke:#EC7211;stroke-width:1.0417;"/><line style="stroke:#EC7211;stroke-width:3.125;" x1="614.3982" x2="614.3982" y1="2051.7654" y2="2056.9738"/><line style="stroke:#EC7211;stroke-width:3.125;" x1="614.3982" x2="962.1343" y1="2056.9738" y2="2056.9738"/><line style="stroke:#EC7211;stroke-width:3.125;" x1="962.1343" x2="962.1343" y1="295.1721" y2="335.3434"/><polygon fill="#EC7211" points="957.9676,324.9268,962.1343,335.3434,966.301,324.9268,962.1343,329.0934" style="stroke:#EC7211;stroke-width:1.0417;"/><line style="stroke:#EC7211;stroke-width:3.125;" x1="962.1343" x2="962.1343" y1="2056.9738" y2="2062.1821"/><line style="stroke:#EC7211;stroke-width:3.125;" x1="962.1343" x2="1401.3611" y1="2062.1821" y2="2062.1821"/><polygon fill="#EC7211" points="1397.1944,1228.6682,1401.3611,1218.2515,1405.5278,1228.6682,1401.3611,1224.5015" style="stroke:#EC7211;stroke-width:3.125;"/><line style="stroke:#EC7211;stroke-width:3.125;" x1="1401.3611" x2="1401.3611" y1="282.368" y2="2062.1821"/><line style="stroke:#EC7211;stroke-width:3.125;" x1="1401.3611" x2="1063.4242" y1="282.368" y2="282.368"/><polygon fill="#EC7211" points="1073.8408,278.2013,1063.4242,282.368,1073.8408,286.5346,1069.6742,282.368" style="stroke:#EC7211;stroke-width:1.0417;"/><line style="stroke:#EC7211;stroke-width:3.125;" x1="860.8444" x2="25" y1="282.368" y2="282.368"/><polygon fill="#EC7211" points="20.8333,1219.2932,25,1229.7099,29.1667,1219.2932,25,1223.4599" style="stroke:#EC7211;stroke-width:3.125;"/><line style="stroke:#EC7211;stroke-width:3.125;" x1="25" x2="25" y1="282.368" y2="2079.8904"/><line style="stroke:#EC7211;stroke-width:3.125;" x1="25" x2="962.1343" y1="2079.8904" y2="2079.8904"/><line style="stroke:#EC7211;stroke-width:3.125;" x1="962.1343" x2="962.1343" y1="2079.8904" y2="2095.5154"/><polygon fill="#EC7211" points="957.9676,2085.0988,962.1343,2095.5154,966.301,2085.0988,962.1343,2089.2654" style="stroke:#EC7211;stroke-width:1.0417;"/><line style="stroke:#EC7211;stroke-width:3.125;" x1="962.1343" x2="962.1343" y1="248.7305" y2="269.5638"/><polygon fill="#EC7211" points="957.9676,259.1471,962.1343,269.5638,966.301,259.1471,962.1343,263.3138" style="stroke:#EC7211;stroke-width:1.0417;"/><line style="stroke:#EC7211;stroke-width:3.125;" x1="962.1343" x2="962.1343" y1="2141.9571" y2="2162.7904"/><polygon fill="#EC7211" points="957.9676,2152.3738,962.1343,2162.7904,966.301,2152.3738,962.1343,2156.5404" style="stroke:#EC7211;stroke-width:1.0417;"/><line style="stroke:#EC7211;stroke-width:3.125;" x1="962.1343" x2="962.1343" y1="2209.2321" y2="2264.182"/><polygon fill="#EC7211" points="957.9676,2253.7654,962.1343,2264.182,966.301,2253.7654,962.1343,2257.932" style="stroke:#EC7211;stroke-width:1.0417;"/><!--SRC=[ZLNRRjim37ttLt1zihCMtUKjsJ1iROBTkW4DXhqC2nIPZeagaYV9RR9X_pxA5yL9kcw00TiYUKYU8r6FV8bh177dpemLUeM99wyGhj7RBRmLEbTeORf1MNio6cRAt7tJNycNS45MrkJXZKLnmqxi2s-4l3550NDlXSSLeKiIvuNrIJ9-fycJKFJp07sIZEVeGNYFwyg3DBNs3FSIdaoIvAuahYPztHbVm9NOBBe_zoe3Sf1kqMK902UGbflHHrWJjl931QI7HK-rM2hC6Oc9q15ht_bpXVhOWpFE12cO2USd_GftLblTSxC8aOkfjSRs7iwRglb4dLEHxDwXWnbPXAwxnJpmXZbCRxcbheMAbwWHugJL14Dnp3KldS2l1dXy8PJg9CD5DATPMqBiBbfWNak9pXMrkhVBBrNEOlPUhAtmBZRSbDoROgb3BZxVfDVeQkMpOmwKOt6rYQakHCKn27kKzGK4jeDnK41Ftk-TmlFIr2fVD5iiRN2o-zNzoBhrP4UFNItTQy0uyofh5IgvH2MsFTzDHtVaPGdfmVxVPj53Yj3gZ3QOxnQvjpn0yMQdzdGicl_9GTX7qYZil-DWr6_zGuJffZAQnM7N_u9PirvKAKBxFUqWpvvcawDsbaOBAUc_C0jQzbW399QmPI-kn8-m7Q2D5XxMVFBtsFdzLwLULvNQmdlYPFO-cLeBN9aS3nNwn3JjTLEGZZsyX7lbcTLAFH33SpKtw_J9QHjznEBqHotKltAUFuF7XqZdpuwmBb4QQp7iqlm1o3NfDF9vskDsWfr2PV5sz3nxGAK3xiTV1Vbqa2FR7n3DQLpCPObvhOOpBMB4SRWt4iOinvaDmM5C0-x6GZzT-8HtfxnTxsPBdAhyqTqX0JCPbZFTbA9sWn4xn1pUC-mf4NDcT1AkCqwGQCDZmDAgz9naDFg0MvYX2BFBZKSZNZkBz-Eoksg8hw9LEt4R-rLxn12MtT1mkqipsBjDMXZBiwdMELhIAoZHveq-uJ1tI1TcpIiylnpTCad118mbRpYWSz05hMhRaDZG6I1oafpF1OeWz9Fy0G00]--></g></svg>